<svg width="300" height="164" viewBox="0 0 300 164" fill="none" xmlns="http://www.w3.org/2000/svg">
<path d="M2 152.106H5.55931V1.99991H2V152.106Z" fill="#782F9A"/>
<path d="M27.3678 104.176H34.0662C36.822 104.176 44.2408 103.413 44.2408 92.2643C44.2408 85.0558 41.5703 80.6894 34.151 80.6894H27.3678V104.176ZM23.3399 77.2978H33.7271C43.0541 77.2978 48.2687 81.9614 48.2687 91.7119C48.2687 101.844 43.8169 107.569 33.7271 107.569H23.3399" fill="#231F20"/>
<path d="M52.0796 85.6496H55.6833V107.569H52.0796V85.6496ZM55.6833 81.7069H52.0796V77.2978H55.6833" fill="#231F20"/>
<path d="M62.4412 100.658C62.5683 103.88 65.3662 104.897 68.334 104.897C70.581 104.897 73.6331 104.389 73.6331 101.633C73.6331 98.8353 70.072 98.3684 66.4685 97.5633C62.9074 96.7575 59.3037 95.5696 59.3037 91.3728C59.3037 86.9646 63.6702 85.1412 67.4858 85.1412C72.319 85.1412 76.177 86.6667 76.474 92.01H72.8703C72.6161 89.2111 70.1571 88.3209 67.7829 88.3209C65.6207 88.3209 63.1194 88.9148 63.1194 91.1182C63.1194 93.7041 66.9348 94.1289 70.2842 94.934C73.8879 95.7401 77.4488 96.9262 77.4488 101.167C77.4488 106.381 72.5733 108.077 68.122 108.077C63.204 108.077 59.0495 106.085 58.8375 100.658" fill="#231F20"/>
<path d="M95.4333 92.6874C94.8817 89.9321 92.9742 88.3209 90.0067 88.3209C84.7916 88.3209 83.1807 92.4328 83.1807 96.8841C83.1807 100.912 85.0036 104.897 89.5828 104.897C93.0591 104.897 95.1362 102.863 95.6029 99.5557H99.2909C98.4859 104.897 95.1362 108.077 89.6245 108.077C82.9265 108.077 79.3651 103.413 79.3651 96.8841C79.3651 90.3132 82.7565 85.1412 89.7094 85.1412C94.6702 85.1412 98.6553 87.4731 99.1641 92.6874" fill="#231F20"/>
<path d="M102.513 107.569H106.116V77.2978H102.513V107.569Z" fill="#231F20"/>
<path d="M120.085 104.897C123.858 104.897 126.911 101.93 126.911 96.6298C126.911 91.2887 123.858 88.3209 120.085 88.3209C116.312 88.3209 113.259 91.2887 113.259 96.6298C113.259 101.93 116.312 104.897 120.085 104.897ZM120.085 85.1412C127.038 85.1412 130.726 90.1863 130.726 96.6298C130.726 103.032 127.038 108.077 120.085 108.077C113.132 108.077 109.444 103.032 109.444 96.6298C109.444 90.1863 113.132 85.1412 120.085 85.1412Z" fill="#231F20"/>
<path d="M136.221 100.658C136.348 103.88 139.145 104.897 142.114 104.897C144.36 104.897 147.413 104.389 147.413 101.633C147.413 98.8353 143.852 98.3684 140.248 97.5633C136.687 96.7575 133.083 95.5696 133.083 91.3728C133.083 86.9646 137.45 85.1412 141.266 85.1412C146.099 85.1412 149.957 86.6667 150.254 92.01H146.65C146.395 89.2111 143.936 88.3209 141.562 88.3209C139.401 88.3209 136.899 88.9148 136.899 91.1182C136.899 93.7041 140.714 94.1289 144.064 94.934C147.667 95.7401 151.229 96.9262 151.229 101.167C151.229 106.381 146.353 108.077 141.902 108.077C136.984 108.077 132.829 106.085 132.617 100.658" fill="#231F20"/>
<path d="M172.342 107.569H168.95V104.092H168.865C167.339 106.806 164.88 108.077 161.743 108.077C155.977 108.077 154.196 104.77 154.196 100.064V85.6496H157.8V100.487C157.8 103.159 159.496 104.897 162.251 104.897C166.619 104.897 168.739 101.972 168.739 98.0283V85.6496H172.342" fill="#231F20"/>
<path d="M176.658 85.6496H180.049V90.2712H180.134C181.873 86.7521 184.289 85.0141 188.189 85.1412V88.9566C182.38 88.9566 180.262 92.2642 180.262 97.8176V107.569H176.658" fill="#231F20"/>
<path d="M204.931 94.5111C204.761 91.0766 202.175 88.3209 198.614 88.3209C194.84 88.3209 192.593 91.1622 192.339 94.5111H204.931ZM208.407 100.615C207.432 105.449 203.955 108.077 199.038 108.077C192.042 108.077 188.735 103.244 188.523 96.5451C188.523 89.9741 192.848 85.1412 198.826 85.1412C206.584 85.1412 208.958 92.3912 208.746 97.6911H192.339C192.212 101.507 194.374 104.897 199.165 104.897C202.133 104.897 204.21 103.455 204.846 100.615" fill="#231F20"/>
<path d="M236.388 83.6991C236.388 81.9614 235.074 80.4774 232.911 80.4774C231.215 80.4774 229.435 81.4949 229.435 83.6991C229.435 85.5225 231.046 87.3027 232.36 88.9566C234.098 87.8545 236.388 86.2435 236.388 83.6991ZM231.173 92.9419C228.333 94.5528 225.916 96.163 225.916 99.768C225.916 102.82 228.756 104.897 231.682 104.897C234.438 104.897 236.642 103.499 238.126 101.294L231.173 92.9419ZM240.119 103.795C238.296 106.635 234.861 108.077 231.554 108.077C223.372 108.077 222.101 102.269 222.101 99.8099C222.101 95.0607 225.323 92.6873 229.181 90.6533C227.485 88.2363 225.831 86.6249 225.831 83.5303C225.831 80.2231 228.29 77.2978 232.658 77.2978C236.43 77.2978 239.992 79.3755 239.992 83.4877C239.992 87.0917 237.236 89.6778 234.311 91.3308L239.78 97.9865C240.331 96.503 240.67 94.8921 240.755 93.2809H244.188C243.892 96.8421 243.425 98.0722 242.153 100.742L248.047 107.569H243.341" fill="#231F20"/>
<path d="M27.3678 148.713H37.4576C40.9342 148.713 43.1384 146.593 43.1384 143.286C43.1384 139.343 39.9589 138.241 36.5675 138.241H27.3678V148.713ZM27.3678 134.85H35.4228C40.0015 134.85 41.8669 133.196 41.8669 130.018C41.8669 125.82 38.8991 125.227 35.4228 125.227H27.3678V134.85ZM23.3399 121.834H34.3204C36.9914 121.834 40.5103 121.834 42.3331 122.936C44.3259 124.124 45.8945 126.285 45.8945 129.253C45.8945 132.477 44.1988 134.892 41.4004 136.037V136.122C45.1312 136.884 47.1663 139.683 47.1663 143.413C47.1663 147.865 43.9868 152.106 37.9667 152.106H23.3399" fill="#231F20"/>
<path d="M64.2646 140.785C62.8656 141.802 60.1524 141.846 57.7356 142.269C55.3615 142.693 53.3264 143.541 53.3264 146.212C53.3264 148.586 55.3615 149.434 57.5662 149.434C62.3143 149.434 64.2646 146.467 64.2646 144.474V140.785ZM70.115 152.02C69.4791 152.401 68.6736 152.615 67.5289 152.615C65.6632 152.615 64.4765 151.597 64.4765 149.222C62.4837 151.553 59.8133 152.615 56.7606 152.615C52.7753 152.615 49.5112 150.832 49.5112 146.467C49.5112 141.507 53.1993 140.446 56.9301 139.725C60.9151 138.962 64.3069 139.217 64.3069 136.503C64.3069 133.367 61.721 132.858 59.4314 132.858C56.3787 132.858 54.1319 133.79 53.9625 137.012H50.3588C50.5708 131.585 54.7681 129.678 59.6433 129.678C63.5861 129.678 67.8682 130.568 67.8682 135.699V146.975C67.8682 148.671 67.8682 149.434 69.0127 149.434C69.3097 149.434 69.6488 149.392 70.115 149.222" fill="#231F20"/>
<path d="M72.5566 130.187H75.9483V134.808H76.0331C77.7711 131.289 80.1876 129.551 84.0881 129.678V133.493C78.2802 133.493 76.1603 136.801 76.1603 142.355V152.106H72.5566" fill="#231F20"/>
<path d="M86.0211 130.187H89.4131V134.808H89.4979C91.2357 131.289 93.6519 129.551 97.5521 129.678V133.493C91.7445 133.493 89.6245 136.801 89.6245 142.355V152.106H86.0211" fill="#231F20"/>
<path d="M99.642 130.187H103.246V152.106H99.642V130.187ZM103.246 126.243H99.642V121.834H103.246" fill="#231F20"/>
<path d="M107.654 130.187H111.046V133.663H111.131C112.657 130.95 115.116 129.678 118.253 129.678C124.019 129.678 125.8 132.986 125.8 137.691V152.106H122.196V137.266C122.196 134.596 120.5 132.858 117.745 132.858C113.378 132.858 111.258 135.782 111.258 139.725V152.106H107.654" fill="#231F20"/>
<path d="M145.506 140.7C145.506 136.842 143.81 132.858 139.273 132.858C134.652 132.858 132.787 136.63 132.787 140.827C132.787 144.77 134.228 149.18 138.977 149.18C143.725 149.18 145.506 144.814 145.506 140.7ZM149.066 150.24C149.066 157.362 145.802 161.008 138.892 161.008C134.779 161.008 130.031 159.356 129.819 154.564H133.422C133.592 157.192 136.729 158.126 139.104 158.126C143.81 158.126 145.674 154.733 145.674 149.815V148.375H145.59C144.403 151.045 141.519 152.36 138.764 152.36C132.235 152.36 128.971 147.229 128.971 141.252C128.971 136.08 131.515 129.678 139.104 129.678C141.86 129.678 144.319 130.908 145.632 133.323H145.674V130.187H149.066" fill="#231F20"/>
<path d="M183.534 130.695C183.067 126.371 180.185 124.506 176.03 124.506C172.638 124.506 169.246 125.736 169.246 129.678C169.246 133.409 174.08 133.96 178.956 135.063C183.788 136.165 188.622 137.86 188.622 143.795C188.622 150.24 182.304 152.827 176.793 152.827C170.01 152.827 164.287 149.519 164.287 142.142H168.102C168.102 147.229 172.342 149.434 176.92 149.434C180.566 149.434 184.594 148.29 184.594 143.922C184.594 139.768 179.761 139.048 174.927 137.987C170.094 136.928 165.219 135.528 165.219 129.974C165.219 123.826 170.688 121.113 176.199 121.113C182.389 121.113 187.095 124.039 187.35 130.695" fill="#231F20"/>
<path d="M207.216 139.048C207.046 135.613 204.461 132.858 200.899 132.858C197.126 132.858 194.879 135.699 194.625 139.048H207.216ZM210.692 145.152C209.718 149.986 206.241 152.615 201.323 152.615C194.328 152.615 191.021 147.781 190.809 141.082C190.809 134.511 195.133 129.678 201.112 129.678C208.87 129.678 211.244 136.928 211.031 142.228H194.625C194.497 146.044 196.66 149.434 201.451 149.434C204.418 149.434 206.495 147.992 207.131 145.152" fill="#231F20"/>
<path d="M213.936 130.187H217.327V134.808H217.412C219.15 131.289 221.566 129.551 225.467 129.678V133.493C219.659 133.493 217.539 136.801 217.539 142.355V152.106H213.936" fill="#231F20"/>
<path d="M238.46 152.106H234.603L226.463 130.187H230.491L236.637 148.459H236.722L242.701 130.187H246.473" fill="#231F20"/>
<path d="M248.861 130.187H252.464V152.106H248.861V130.187ZM252.464 126.243H248.861V121.834H252.464" fill="#231F20"/>
<path d="M271.923 137.224C271.372 134.469 269.464 132.858 266.496 132.858C261.281 132.858 259.671 136.97 259.671 141.421C259.671 145.449 261.493 149.434 266.072 149.434C269.549 149.434 271.627 147.4 272.092 144.092H275.781C274.975 149.434 271.627 152.615 266.115 152.615C259.417 152.615 255.855 147.95 255.855 141.421C255.855 134.85 259.247 129.678 266.2 129.678C271.16 129.678 275.145 132.01 275.654 137.224" fill="#231F20"/>
<path d="M294.172 139.048C294.003 135.613 291.416 132.858 287.855 132.858C284.082 132.858 281.836 135.699 281.581 139.048H294.172ZM297.648 145.152C296.673 149.986 293.197 152.615 288.279 152.615C281.284 152.615 277.977 147.781 277.766 141.082C277.766 134.511 282.089 129.678 288.067 129.678C295.825 129.678 298.2 136.928 297.987 142.228H281.581C281.454 146.044 283.615 149.434 288.407 149.434C291.374 149.434 293.451 147.992 294.088 145.152" fill="#231F20"/>
<path d="M41.1153 6.81799V8.91713C42.1822 8.98526 42.9588 9.16854 43.3862 9.29123C43.1658 8.09618 42.2733 7.13698 41.1153 6.81799Z" fill="#231F20"/>
<path d="M39.8033 5.33724C39.8033 6.04414 39.6572 6.51338 39.4387 6.81723C39.4629 6.8094 39.819 6.70538 40.2756 6.70538C40.5742 6.70538 41.0749 6.80992 41.112 6.81723C40.894 6.51338 40.7465 6.04494 40.7465 5.33803C42.3365 5.33803 42.7257 6.08216 42.7257 6.69534H43.0311V4.86499V3.03241H42.7257C42.7257 3.64716 42.3365 4.39386 40.7465 4.39386C40.7465 2.80307 41.4928 2.41358 42.1073 2.41358V2.1099H40.2748H38.442V2.41358C39.057 2.41358 39.8033 2.80307 39.8033 4.39386C38.2126 4.39386 37.8236 3.64638 37.8236 3.03241H37.5208V4.86499V6.69742H37.8236C37.8236 6.08214 38.2126 5.33724 39.8033 5.33724Z" fill="#231F20"/>
<path d="M39.4353 6.81799C38.2812 7.13568 37.3908 8.09069 37.1666 9.28183C37.596 9.15314 38.3627 8.97287 39.4353 8.90996" fill="#231F20"/>
<path d="M42.0721 59.4062C42.0721 59.0348 42.3749 58.7312 42.7476 58.7312C43.1201 58.7312 43.4222 59.0348 43.4222 59.4062C43.4222 59.7785 43.1201 60.081 42.7476 60.081C42.3749 60.081 42.0721 59.7785 42.0721 59.4062ZM41.414 59.4062C41.414 60.1424 42.012 60.7409 42.7476 60.7409C43.4835 60.7409 44.0837 60.1424 44.0837 59.4062C44.0837 58.6701 43.4835 58.0712 42.7476 58.0712C42.012 58.0712 41.414 58.6701 41.414 59.4062Z" fill="#231F20"/>
<path d="M37.7547 42.2817L37.5957 43.4128L36.7092 41.6191C36.8032 41.5726 36.9089 41.549 37.0206 41.549C37.425 41.549 37.8077 41.9108 37.7547 42.2817ZM37.3871 44.9065L36.0065 42.1127C36.1558 42.0239 36.2981 41.9259 36.4328 41.8178L37.5132 44.0049L37.3871 44.9065ZM37.1783 46.3994L35.2335 42.4635C35.3985 42.4103 35.5578 42.3459 35.711 42.2725L37.3047 45.4992L37.1783 46.3994ZM36.971 47.8945L34.3713 42.6326C34.5538 42.6195 34.7303 42.5915 34.9038 42.5526L37.0963 46.9921L36.971 47.8945ZM36.7609 49.3882L33.4015 42.5832C33.596 42.6182 33.7962 42.639 34.0017 42.6421L36.8872 48.4869L36.7609 49.3882ZM32.8943 42.4508C32.9202 42.4612 32.946 42.469 32.9737 42.4774L36.6594 49.9401C32.099 47.8938 32.5618 44.1758 32.8943 42.4508ZM38.9683 41.8296C38.9683 41.171 38.4347 40.6386 37.7779 40.6386L37.5602 40.6373H31.065C30.5001 40.6373 30.0417 41.1009 30.0417 41.6674C30.0417 42.0743 30.3742 42.4086 30.783 42.4086C31.1905 42.4086 31.5218 42.0864 31.5234 41.6428C31.6768 41.7843 31.8421 41.9136 32.017 42.0284C31.9381 42.4255 31.8241 43.0103 31.7797 43.7015C31.6902 43.5619 31.5338 43.4686 31.3552 43.4686C31.0762 43.4686 30.8501 43.6945 30.8501 43.9722C30.8501 44.2513 31.0762 44.4768 31.3552 44.4768C31.522 44.4768 31.6706 44.3954 31.7622 44.269C31.7622 44.6241 31.7836 44.9988 31.8387 45.3831C31.7552 45.3217 31.6523 45.2847 31.5393 45.2847C31.2615 45.2847 31.0355 45.5107 31.0355 45.7887C31.0355 46.0675 31.2615 46.2939 31.5393 46.2939C31.7207 46.2939 31.8802 46.1967 31.9687 46.0529C31.9802 46.0967 31.9901 46.1401 32.0013 46.1837C32.0833 46.488 32.1841 46.7814 32.3054 47.0628C32.2326 47.0224 32.1499 46.9997 32.0611 46.9997C31.7826 46.9997 31.5565 47.2256 31.5565 47.5039C31.5565 47.7832 31.7826 48.0086 32.0611 48.0086C32.3112 48.0086 32.52 47.8254 32.5581 47.5861C32.7367 47.9145 32.9445 48.2267 33.1815 48.5212C33.1515 48.5159 33.1201 48.5132 33.0867 48.5132C32.8085 48.5132 32.5821 48.7394 32.5821 49.0184C32.5821 49.2964 32.8085 49.5219 33.0867 49.5219C33.366 49.5219 33.5911 49.2964 33.5911 49.0184C33.5911 49.008 33.5903 48.9949 33.5903 48.9845C34.3463 49.764 35.3335 50.4113 36.5476 50.9187L36.3344 52.4464C36.3344 52.4464 36.8134 52.6746 37.5519 52.8842C38.2674 53.0868 38.9725 53.2008 38.9725 53.2008" fill="#231F20"/>
<path d="M34.5165 11.8712C34.5165 11.4324 34.8736 11.0749 35.3132 11.0749C35.7517 11.0749 36.1086 11.4324 36.1086 11.8712C36.1086 12.3111 35.7517 12.6677 35.3132 12.6677C34.8736 12.6677 34.5165 12.3111 34.5165 11.8712Z" fill="#231F20"/>
<path d="M24.2191 17.3454C24.2191 16.9068 24.5754 16.5505 25.0145 16.5505C25.4541 16.5505 25.8099 16.9068 25.8099 17.3454C25.8099 17.786 25.4541 18.1412 25.0145 18.1412C24.5754 18.1412 24.2191 17.786 24.2191 17.3454Z" fill="#231F20"/>
<path d="M23.7947 15.3393C23.7947 14.8989 24.1526 14.5432 24.5914 14.5432C25.0299 14.5432 25.3868 14.8989 25.3868 15.3393C25.3868 15.7776 25.0299 16.1339 24.5914 16.1339C24.1526 16.1339 23.7947 15.7776 23.7947 15.3393Z" fill="#231F20"/>
<path d="M23.9902 13.3006C23.9902 12.8615 24.3489 12.5038 24.7877 12.5038C25.2273 12.5038 25.5833 12.8615 25.5833 13.3006C25.5833 13.7402 25.2273 14.0964 24.7877 14.0964C24.3489 14.0964 23.9902 13.7402 23.9902 13.3006Z" fill="#231F20"/>
<path d="M25.068 11.5623C25.068 11.123 25.4244 10.7663 25.8634 10.7663C26.3033 10.7663 26.6593 11.123 26.6593 11.5623C26.6593 12.0019 26.3033 12.3586 25.8634 12.3586C25.4244 12.3586 25.068 12.0019 25.068 11.5623Z" fill="#231F20"/>
<path d="M26.727 10.3703C26.727 9.93071 27.0838 9.57558 27.5234 9.57558C27.9625 9.57558 28.3196 9.93071 28.3196 10.3703C28.3196 10.8107 27.9625 11.166 27.5234 11.166C27.0838 11.166 26.727 10.8107 26.727 10.3703Z" fill="#231F20"/>
<path d="M28.7349 10.0132C28.7349 9.57412 29.0907 9.21767 29.5303 9.21767C29.9702 9.21767 30.327 9.57412 30.327 10.0132C30.327 10.4525 29.9702 10.8081 29.5303 10.8081C29.0907 10.8081 28.7349 10.4525 28.7349 10.0132Z" fill="#231F20"/>
<path d="M30.7222 10.4269C30.7222 9.98761 31.0788 9.6319 31.5176 9.6319C31.9572 9.6319 32.3135 9.98761 32.3135 10.4269C32.3135 10.8665 31.9572 11.2226 31.5176 11.2226C31.0788 11.2226 30.7222 10.8665 30.7222 10.4269Z" fill="#231F20"/>
<path d="M32.6367 11.166C32.6367 10.7267 32.993 10.3703 33.4321 10.3703C33.8717 10.3703 34.2283 10.7267 34.2283 11.166C34.2283 11.6061 33.8717 11.9615 33.4321 11.9615C32.993 11.9615 32.6367 11.6061 32.6367 11.166Z" fill="#231F20"/>
<path d="M46.0349 11.8712C46.0349 11.4324 45.6799 11.0749 45.2382 11.0749C44.7997 11.0749 44.4449 11.4324 44.4449 11.8712C44.4449 12.3111 44.7997 12.6677 45.2382 12.6677C45.6799 12.6677 46.0349 12.3111 46.0349 11.8712Z" fill="#231F20"/>
<path d="M56.3338 17.3454C56.3338 16.9068 55.977 16.5505 55.5382 16.5505C55.097 16.5505 54.742 16.9068 54.742 17.3454C54.742 17.786 55.097 18.1412 55.5382 18.1412C55.977 18.1412 56.3338 17.786 56.3338 17.3454Z" fill="#231F20"/>
<path d="M56.757 15.3393C56.757 14.8989 56.3994 14.5432 55.9606 14.5432C55.522 14.5432 55.1652 14.8989 55.1652 15.3393C55.1652 15.7776 55.522 16.1339 55.9606 16.1339C56.3994 16.1339 56.757 15.7776 56.757 15.3393Z" fill="#231F20"/>
<path d="M56.5599 13.3006C56.5599 12.8615 56.2049 12.5038 55.7645 12.5038C55.3249 12.5038 54.9696 12.8615 54.9696 13.3006C54.9696 13.7402 55.3249 14.0964 55.7645 14.0964C56.2049 14.0964 56.5599 13.7402 56.5599 13.3006Z" fill="#231F20"/>
<path d="M55.4852 11.5623C55.4852 11.123 55.1286 10.7663 54.6893 10.7663C54.2505 10.7663 53.8926 11.123 53.8926 11.5623C53.8926 12.0019 54.2505 12.3586 54.6893 12.3586C55.1286 12.3586 55.4852 12.0019 55.4852 11.5623Z" fill="#231F20"/>
<path d="M53.8242 10.3703C53.8242 9.93071 53.4679 9.57558 53.029 9.57558C52.5887 9.57558 52.2329 9.93071 52.2329 10.3703C52.2329 10.8107 52.5887 11.166 53.029 11.166C53.4679 11.166 53.8242 10.8107 53.8242 10.3703Z" fill="#231F20"/>
<path d="M51.817 10.0132C51.817 9.57412 51.4617 9.21767 51.0221 9.21767C50.582 9.21767 50.2255 9.57412 50.2255 10.0132C50.2255 10.4525 50.582 10.8081 51.0221 10.8081C51.4617 10.8081 51.817 10.4525 51.817 10.0132Z" fill="#231F20"/>
<path d="M49.8308 10.4269C49.8308 9.98761 49.4747 9.6319 49.0351 9.6319C48.5947 9.6319 48.2384 9.98761 48.2384 10.4269C48.2384 10.8665 48.5947 11.2226 49.0351 11.2226C49.4747 11.2226 49.8308 10.8665 49.8308 10.4269Z" fill="#231F20"/>
<path d="M47.915 11.166C47.915 10.7267 47.5597 10.3703 47.1196 10.3703C46.6813 10.3703 46.3229 10.7267 46.3229 11.166C46.3229 11.6061 46.6813 11.9615 47.1196 11.9615C47.5597 11.9615 47.915 11.6061 47.915 11.166Z" fill="#231F20"/>
<path d="M47.0929 23.2955C47.0929 22.8118 46.7011 22.42 46.2174 22.42C45.734 22.42 45.3414 22.8118 45.3414 23.2955C45.3414 23.7782 45.734 24.1693 46.2174 24.1693C46.7011 24.1693 47.0929 23.7782 47.0929 23.2955Z" fill="#231F20"/>
<path d="M49.9942 38.3712H41.6447V28.867H44.9187H46.1503H49.9942V38.3712ZM41.3753 28.5976V38.6374H50.2581L50.2615 28.596" fill="#231F20"/>
<path d="M49.1385 29.4695V29.7314H49.4011V37.5075H49.1385V37.7688H42.4994V37.5075H42.2378V29.7314H42.4994V29.4695H49.1385ZM42.4994 29.2072H41.9768V37.5075V38.0306H42.4994H49.1385H49.6634V37.5075V29.7314V29.2072H49.1385H46.278H44.7997" fill="#231F20"/>
<path d="M48.7461 31.7526L48.3332 32.142C48.3332 32.142 48.3319 32.141 48.3306 32.141C48.3306 32.141 48.3042 32.1645 48.2666 32.2024L47.4871 32.9286C47.2394 33.152 47.1901 33.5104 47.3738 33.762C47.3725 33.7612 47.8233 34.3859 47.8233 34.3859C47.8667 34.4444 47.8842 34.5149 47.8722 34.5854C47.8615 34.6548 47.8233 34.7164 47.7664 34.7589C47.7098 34.8007 47.6388 34.8185 47.568 34.8075C47.4976 34.7971 47.4378 34.7599 47.3942 34.7017C47.3942 34.7017 46.9525 34.0991 46.7283 33.7926V32.9286L47.815 31.906V30.9835L47.4326 30.5992L47.9032 30.1319H45.984L45.5223 30.5888V31.1009C45.5828 31.0646 45.6549 31.0432 45.729 31.0432C45.9551 31.0432 46.1388 31.2267 46.1388 31.4522C46.1388 31.6773 45.9551 31.8609 45.729 31.8609C45.6549 31.8609 45.5828 31.8373 45.5223 31.8026V32.4283H44.8723L44.0795 31.3523C44.1899 31.256 44.2588 31.1173 44.2588 30.9578C44.2588 30.6689 44.0244 30.4352 43.7357 30.4352C43.6221 30.4352 43.5193 30.4707 43.4347 30.5297V30.8323V31.3605V31.3874C43.4459 31.3952 43.459 31.403 43.4731 31.4108L44.2217 32.4278L44.6078 32.9523H45.2594H45.4831L44.9999 33.4344H44.1171C44.0406 33.2405 43.8503 33.1021 43.63 33.1021C43.4083 33.1021 43.2193 33.2405 43.1431 33.4344C43.1194 33.4942 43.1058 33.5587 43.1058 33.6263C43.1058 33.7526 43.1507 33.869 43.2251 33.9588H44.0351H45.3414L45.7068 34.4535H44.867H44.2716V34.4718L44.8177 35.2254L45.1132 35.6339H44.3828C44.3157 35.4212 44.1171 35.2683 43.8834 35.2683C43.6514 35.2683 43.4517 35.4212 43.3841 35.6339C43.3694 35.6838 43.3603 35.7368 43.3603 35.7914C43.3603 35.9344 43.4167 36.0636 43.5078 36.1581H44.2588H45.4928H46.1023L45.7214 35.6339L45.4257 35.2254H46.2738L46.573 35.6339L46.9585 36.1581H48.0465H48.1804V36.7425H48.0131C47.9463 36.5314 47.7479 36.3782 47.5137 36.3782C47.2801 36.3782 47.0817 36.5314 47.0136 36.7425C46.9998 36.7932 46.9901 36.846 46.9901 36.9011C46.9901 37.0447 47.0475 37.173 47.1386 37.2675L48.7049 37.2686V36.1581V35.6339H48.1804H47.661L47.1499 34.938C47.2436 35.0471 47.3725 35.1206 47.5166 35.1427C47.6756 35.1662 47.8372 35.1297 47.9661 35.0323C48.098 34.9365 48.1833 34.7955 48.2089 34.6362C48.2324 34.476 48.1925 34.3159 48.098 34.1861C48.0987 34.1867 47.6469 33.5632 47.6469 33.5632C47.5558 33.4366 47.615 33.27 47.7174 33.1789C47.7192 33.1776 47.815 33.0878 47.9382 32.9719C48.1233 33.1442 48.4104 33.1454 48.5971 32.9713C48.6947 32.8783 48.7451 32.7578 48.7487 32.6343" fill="#231F20"/>
<path d="M39.0711 23.2925L40.2764 22.0859L41.4834 23.2925L40.2764 24.4983" fill="#231F20"/>
<path d="M33.46 23.2955C33.46 22.8118 33.8521 22.42 34.3345 22.42C34.8193 22.42 35.2098 22.8118 35.2098 23.2955C35.2098 23.7782 34.8193 24.1693 34.3345 24.1693C33.8521 24.1693 33.46 23.7782 33.46 23.2955Z" fill="#231F20"/>
<path d="M43.9043 45.9236L43.3744 45.3943H44.4332L43.9043 45.9236ZM49.6363 45.8529L49.5943 45.8548C49.6337 45.7723 49.6566 45.6799 49.6566 45.5828C49.6566 45.2435 49.3807 44.9678 49.0414 44.9678H46.8249C46.8175 44.6856 46.5878 44.46 46.3043 44.46C46.1605 44.46 46.03 44.5178 45.9352 44.6133L45.2382 45.3094H45.8971C45.8995 45.3107 45.8995 45.3121 45.9008 45.3121H46.7087H49.0414C49.192 45.3121 49.3126 45.4324 49.3126 45.5825C49.3126 45.7323 49.192 45.8527 49.0414 45.8527L47.5482 45.8545L44.6499 45.8527V45.2296L45.4212 44.4597H42.3866L43.1541 45.2267V46.3638L41.9196 45.3793C42.0227 45.2822 42.0877 45.1445 42.0877 44.9907C42.0877 44.6968 41.8497 44.4584 41.5549 44.4584C41.4273 44.4584 41.309 44.5034 41.2174 44.5794C41.2174 44.5794 41.2174 45.2079 41.2174 45.3669V45.5019L43.0967 47.0013L42.2115 47.2773C42.1402 47.064 41.9418 46.911 41.7053 46.911C41.4106 46.911 41.1722 47.1498 41.1722 47.4446C41.1722 47.5717 41.2174 47.6886 41.2923 47.7807C41.2923 47.7807 41.656 47.7807 41.8992 47.7807H42.383L47.1658 46.296V47.0333L46.5468 47.3187C46.4899 47.085 46.2814 46.911 46.03 46.911C45.736 46.911 45.4967 47.1498 45.4967 47.4446C45.4967 47.5717 45.5421 47.6886 45.6165 47.7807C45.6165 47.7807 45.9665 47.7807 46.2104 47.7807H46.8162L47.5644 47.4361L48.0481 47.2135L47.8257 46.729L47.7236 46.5074H49.4802C49.4609 46.5763 49.4392 46.647 49.4167 46.7167C49.3752 46.8439 49.3301 46.9687 49.2873 47.0822C49.1904 46.9773 49.051 46.911 48.8973 46.911C48.6023 46.911 48.3647 47.1498 48.3647 47.4446C48.3647 47.5717 48.4086 47.6886 48.4843 47.7807C48.4843 47.7807 49.3037 47.7807 49.3092 47.7807C49.3358 47.7807 49.576 47.7807 49.576 47.7807C49.7156 47.4724 49.8378 47.1158 49.9096 46.8861C50.0485 46.4449 50.1435 46.002 50.1698 45.8527C50.1698 45.8545 49.6363 45.8529 49.6363 45.8529Z" fill="#231F20"/>
<path d="M43.9043 42.0888L43.3744 41.5581H44.4332L43.9043 42.0888ZM49.7248 42.019C49.765 41.937 49.7887 41.8455 49.7887 41.7481C49.7887 41.4075 49.5123 41.132 49.1732 41.132H46.8249C46.8175 40.8496 46.5878 40.6241 46.3043 40.6241C46.1605 40.6241 46.03 40.6832 45.9352 40.7772L45.2382 41.4754H45.8971C45.8995 41.4754 45.8995 41.476 45.9008 41.476C45.9008 41.476 46.5669 41.476 46.6886 41.476H49.1732C49.323 41.476 49.4447 41.5983 49.4447 41.7481C49.4447 41.8964 49.323 42.019 49.1732 42.019H47.5482H44.6499V41.3944L45.4212 40.6241H42.3866L43.1541 41.3913V42.5284L41.9183 41.5445C42.0227 41.4469 42.0877 41.3084 42.0877 41.1562C42.0877 40.8618 41.8497 40.623 41.5549 40.623C41.4273 40.623 41.309 40.6695 41.2174 40.7439C41.2174 40.7439 41.2174 41.372 41.2174 41.5315V41.6674L43.0967 43.1658L42.2115 43.4412C42.1402 43.2292 41.94 43.0771 41.7053 43.0771C41.4106 43.0771 41.1722 43.3149 41.1722 43.6091C41.1722 43.7365 41.2174 43.8545 41.2923 43.9469C41.2931 43.9469 42.117 43.9468 42.117 43.9453H42.383L47.1658 42.4607V43.242L46.5247 43.4412C46.4542 43.2292 46.2537 43.0771 46.019 43.0771C45.7251 43.0771 45.4852 43.3149 45.4852 43.6091C45.4852 43.7365 45.5311 43.8545 45.6068 43.9469C45.6068 43.9469 46.4312 43.9468 46.4312 43.9453H46.6962L47.8923 43.5744L48.4762 43.3927L48.0314 42.9747L47.7098 42.6716H49.8201V43.2635C49.7216 43.1494 49.576 43.0771 49.4128 43.0771C49.1181 43.0771 48.8806 43.3149 48.8806 43.6091C48.8806 43.7365 48.926 43.8545 49.0022 43.9469C49.0022 43.9469 49.8263 43.9468 49.8263 43.9453H50.3518V42.6716V42.3992V42.019" fill="#231F20"/>
<path d="M43.9043 49.7553L43.3744 49.2265H44.4332L43.9043 49.7553ZM47.7429 48.7976H46.8249C46.8175 48.517 46.5878 48.2914 46.3043 48.2914C46.1605 48.2914 46.03 48.3499 45.9352 48.4447L45.2382 49.1405H45.8971C45.8995 49.1418 45.8995 49.1426 45.9008 49.1432C45.9008 49.1432 46.7087 49.1431 46.7087 49.1416H47.7429C47.8923 49.1416 48.0144 49.2635 48.0144 49.4126C48.0144 49.5632 47.8923 49.6838 47.7429 49.6838H46.2219L44.6499 49.6841V49.0606L45.4212 48.2903H42.3866L43.1541 49.057V50.3536L41.9024 49.2254C42.0152 49.1275 42.0877 48.9832 42.0877 48.8221C42.0877 48.5269 41.8497 48.2882 41.5549 48.2882C41.4273 48.2882 41.309 48.3344 41.2174 48.4088C41.2174 48.4088 41.2174 48.7498 41.2174 48.9939V49.3243L43.1987 51.1121L43.289 51.0111L42.0227 52.4905C41.9183 52.4077 41.781 52.3639 41.6385 52.3793C41.3466 52.4095 41.1336 52.6703 41.1647 52.964C41.1764 53.076 41.2211 53.1766 41.2897 53.2546C41.473 53.2389 41.7544 53.2134 42.1579 53.1471L43.566 51.5054C43.7534 51.4417 43.9456 51.3678 44.1406 51.2837L44.6937 51.7834C44.583 51.8382 44.4713 51.8879 44.3593 51.9365C44.2137 51.8148 44.0087 51.7736 43.8216 51.8477C43.5464 51.955 43.412 52.2639 43.5188 52.538C43.5548 52.6319 43.6313 52.7027 43.6905 52.7656C43.6905 52.7669 43.9129 52.6931 44.1299 52.6111C44.3358 52.532 44.5371 52.4451 44.5371 52.4451C44.5449 52.4425 44.5496 52.4399 44.5533 52.4373C44.7898 52.3339 45.0276 52.2237 45.2234 52.1172V51.5063V50.7223C45.5659 50.5132 45.8799 50.2839 46.1321 50.051L46.6661 50.5331C46.5529 50.624 46.4351 50.7123 46.3182 50.7995C46.1639 50.7134 45.9707 50.7089 45.8089 50.8016C45.6825 50.8736 45.5977 50.9889 45.5617 51.1179C45.545 51.1816 45.5398 51.25 45.5484 51.3153C45.5562 51.3834 45.5771 51.4503 45.6126 51.5135C45.6674 51.6093 45.7776 51.6932 45.8762 51.7402C46.1177 51.5898 46.3555 51.4302 46.5863 51.2621C46.7593 51.136 46.9288 51.0057 47.0929 50.8715C47.1462 50.8269 47.1997 50.7827 47.2527 50.738V50.1978V50.0277H47.7429C48.0818 50.0277 48.3593 49.7519 48.3593 49.4123C48.3593 49.0724 48.0818 48.7976 47.7429 48.7976Z" fill="#231F20"/>
<path d="M32.7904 37.0962L32.2611 36.5669H33.3191L32.7904 37.0962ZM38.6127 37.0274C38.6529 36.9449 38.6754 36.8533 38.6754 36.7546C38.6754 36.4155 38.4002 36.1398 38.0604 36.1398H35.7125C35.705 35.8584 35.4742 35.6321 35.1915 35.6321C35.0477 35.6321 34.9174 35.6897 34.8221 35.7853L34.1254 36.482H34.7859C34.7859 36.482 35.5614 36.4844 35.5933 36.4844H38.0604C38.2099 36.4844 38.3313 36.6045 38.3313 36.7546C38.3313 36.9047 38.2099 37.0274 38.0604 37.0274H36.4359L33.5376 37.0255V36.4019L34.3066 35.6321H31.2738L32.0407 36.3995V37.5366L30.8057 36.5523C30.9086 36.4552 30.9752 36.3174 30.9752 36.1641C30.9752 35.8697 30.7363 35.6307 30.4418 35.6307C30.3134 35.6307 30.1965 35.6758 30.1046 35.7528C30.1046 35.7528 30.1046 36.3792 30.1048 36.54L30.1046 36.6745L31.9851 38.1739L31.0973 38.4487C31.0271 38.236 30.8279 38.0837 30.5919 38.0837C30.2988 38.0837 30.0605 38.3216 30.0605 38.6168C30.0605 38.7447 30.1048 38.8632 30.1811 38.9538C30.1811 38.9538 30.9133 38.9539 30.9981 38.9536L31.2691 38.9538L36.0537 37.4686V38.2485L35.4118 38.4487C35.3411 38.236 35.1409 38.0837 34.9062 38.0837C34.6123 38.0837 34.3739 38.3216 34.3739 38.6168C34.3739 38.7447 34.4186 38.8632 34.4935 38.9538C34.4935 38.9538 35.2275 38.9539 35.3098 38.9536L35.5828 38.9538L36.7794 38.5821L37.3631 38.4006L36.9175 37.9818L36.5983 37.6789H38.7064V38.272C38.6083 38.1574 38.4629 38.0837 38.3 38.0837C38.0071 38.0837 37.7675 38.3216 37.7675 38.6168C37.7675 38.7447 37.8139 38.8632 37.8876 38.9538C37.8876 38.9538 38.7132 38.9539 38.7132 38.9536H39.2387V37.6789L39.2392 37.0274" fill="#231F20"/>
<path d="M32.7904 33.3985L32.2611 32.8687H33.3191L32.7904 33.3985ZM38.6127 33.3301C38.6529 33.2474 38.6754 33.1563 38.6754 33.0578C38.6754 32.718 38.4002 32.4422 38.0604 32.4422H35.7125C35.705 32.1605 35.4742 31.9347 35.1915 31.9347C35.0477 31.9347 34.9174 31.9937 34.8221 32.0885L34.1254 32.7848H34.7859C34.7861 32.785 34.7861 32.7863 34.7866 32.7873C34.7866 32.7873 35.4155 32.7873 35.5638 32.7873H38.0604C38.2099 32.7873 38.3313 32.9077 38.3313 33.0575C38.3313 33.2068 38.2099 33.3285 38.0604 33.3285L36.4359 33.3298L33.5376 33.3285V32.7049L34.3066 31.9346H31.2738L32.0407 32.7017V33.839L30.8057 32.8542C30.9086 32.7579 30.9752 32.6193 30.9752 32.4666C30.9752 32.1719 30.7363 31.933 30.4418 31.933C30.3134 31.933 30.1965 31.9788 30.1046 32.0538C30.1046 32.0538 30.1046 32.6821 30.1048 32.8429L30.1046 32.9769L31.9851 34.476L31.0973 34.7509C31.0281 34.5392 30.8285 34.3857 30.5919 34.3857C30.2988 34.3857 30.0605 34.624 30.0605 34.9185C30.0605 35.0469 30.1048 35.1644 30.1811 35.2566C30.1811 35.2566 31.0036 35.2565 31.0057 35.2558H31.2691L36.0537 33.771V34.5525L35.4118 34.7509C35.3421 34.5392 35.1422 34.3857 34.9062 34.3857C34.6123 34.3857 34.3739 34.624 34.3739 34.9185C34.3739 35.0469 34.4186 35.1644 34.4935 35.2566L35.3181 35.2558H35.5828L36.7794 34.8856L37.3631 34.7029L36.9175 34.2834L36.5983 33.9813H38.7064V34.5745C38.6083 34.4599 38.4629 34.3857 38.3 34.3857C38.0071 34.3857 37.7675 34.624 37.7675 34.9185C37.7675 35.0469 37.8139 35.1644 37.8876 35.2566L38.7132 35.2558H39.2387V33.9813L39.2392 33.3298" fill="#231F20"/>
<path d="M32.7904 29.7012L32.2611 29.1718H33.3191L32.7904 29.7012ZM38.6127 29.6325C38.6529 29.5503 38.6754 29.458 38.6754 29.3609C38.6754 29.0197 38.4002 28.7452 38.0604 28.7452H35.7125C35.705 28.4628 35.4742 28.2376 35.1915 28.2376C35.0477 28.2376 34.9174 28.2961 34.8221 28.3906L34.1254 29.0873H34.7851C34.7851 29.0873 35.4659 29.0894 35.5792 29.0894H38.0604C38.2099 29.0894 38.3313 29.2103 38.3313 29.3609C38.3313 29.5097 38.2099 29.6309 38.0604 29.6309L36.4359 29.6325L33.5376 29.6309V29.0073L34.3066 28.2376H31.2738L32.0407 29.0037V30.1421L30.8057 29.1573C30.9086 29.0607 30.9752 28.9225 30.9752 28.769C30.9752 28.4745 30.7363 28.2362 30.4418 28.2362C30.3134 28.2362 30.1965 28.2811 30.1046 28.356C30.1046 28.356 30.1046 28.985 30.1048 29.145L30.1046 29.2796L31.9851 30.7787L31.0973 31.0542C31.0271 30.8425 30.8279 30.689 30.5919 30.689C30.2988 30.689 30.0605 30.9268 30.0605 31.221C30.0605 31.3497 30.1048 31.4674 30.1811 31.5588C30.1811 31.5588 30.9357 31.5588 31.001 31.558H31.2691L36.0537 30.0734V30.8546L35.4118 31.0542C35.3411 30.8425 35.1409 30.689 34.9062 30.689C34.6123 30.689 34.3739 30.9268 34.3739 31.221C34.3739 31.3497 34.4186 31.4674 34.4935 31.5588C34.4935 31.5588 35.2495 31.5588 35.3132 31.558H35.5828L36.7794 31.1876L37.3631 31.0061L36.9175 30.5861L36.5983 30.2842H38.7064V30.8772C38.6083 30.7626 38.4629 30.689 38.3 30.689C38.0071 30.689 37.7675 30.9268 37.7675 31.221C37.7675 31.3497 37.8139 31.4674 37.8876 31.5588L38.7132 31.558H39.2387V30.2842L39.2392 29.6325" fill="#231F20"/>
<path d="M54.8339 39.068C55.1704 38.9709 55.3638 38.6183 55.2657 38.2816C55.2184 38.1195 55.1106 37.9855 54.9621 37.9035C54.8114 37.8218 54.6399 37.8031 54.4781 37.8498C54.3176 37.8965 54.1815 38.0051 54.1014 38.1544C54.0189 38.3043 54.0007 38.4744 54.0482 38.6375C54.144 38.9719 54.4977 39.1664 54.8339 39.068Z" fill="#231F20"/>
<path d="M53.0003 40.4888L53.0852 41.0704C53.0852 41.0704 55.1477 40.7689 55.174 40.7645C55.1999 40.7775 57.2663 41.7998 57.2663 41.7998L57.1642 41.0998C57.1642 41.0998 55.8248 40.4358 55.7188 40.383C55.8076 40.3016 56.8995 39.2928 56.8995 39.2928L56.7972 38.592L56.7374 38.6503C56.7374 38.6503 55.1158 40.1644 55.0957 40.1837C55.0678 40.1863 53.0003 40.4888 53.0003 40.4888Z" fill="#231F20"/>
<path d="M54.6191 42.4895C54.6224 42.6581 54.6901 42.8157 54.8114 42.9361C54.9339 43.0543 55.0936 43.1187 55.2623 43.1161C55.4299 43.114 55.588 43.047 55.7076 42.9243C55.8264 42.8034 55.8895 42.6429 55.8882 42.4753C55.8875 42.3054 55.8188 42.1482 55.6964 42.0284C55.575 41.9099 55.4139 41.8454 55.2463 41.8464C54.8981 41.8516 54.6162 42.1397 54.6191 42.4895Z" fill="#231F20"/>
<path d="M56.51 44.5565C56.4993 44.6309 56.4333 45.1046 56.4333 45.1046C56.3626 45.6052 55.9699 45.6053 55.8026 45.5813C55.4868 45.5361 55.3069 45.3377 55.3069 45.0407C55.3069 45.0049 55.3095 44.9657 55.3139 44.9263C55.3139 44.9263 55.3711 44.5287 55.3894 44.3976C55.4687 44.4081 56.4323 44.5447 56.51 44.5565ZM53.1867 43.5279L53.1102 44.0769C53.1102 44.0769 54.7156 44.3032 54.7994 44.3154C54.7893 44.388 54.7308 44.7969 54.7308 44.7969C54.7177 44.8888 54.712 44.9756 54.712 45.0596C54.712 45.3408 54.7838 45.5783 54.9268 45.7671C55.097 45.9952 55.3625 46.1401 55.6951 46.1853C56.4135 46.286 56.9241 45.905 57.0238 45.1887L57.1851 44.0468L53.1922 43.4844" fill="#231F20"/>
<path d="M52.8069 45.8846L52.1512 47.8597L52.7166 48.0486C52.7166 48.0486 53.1747 46.672 53.2011 46.5929C53.2765 46.619 54.2058 46.9272 54.2807 46.9523C54.2544 47.0309 53.8278 48.3141 53.8278 48.3141L54.3946 48.5029C54.3946 48.5029 54.8216 47.2191 54.8469 47.14C54.9216 47.1661 55.8188 47.4629 55.8937 47.488C55.8674 47.5665 55.4233 48.898 55.4233 48.898L55.9911 49.0871L56.6468 47.1142L52.8207 45.8429" fill="#231F20"/>
<path d="M52.0397 48.2151L51.7643 48.6475C51.7643 48.6475 54.0521 50.1002 54.2544 50.2292C54.0114 50.2501 50.5559 50.5512 50.5559 50.5512L50.291 50.9669L53.6939 53.1277L53.9936 52.6594C53.9936 52.6594 51.6896 51.1953 51.4884 51.0679C51.7306 51.047 55.2184 50.7293 55.2184 50.7293L55.4664 50.3396L52.0637 48.1778" fill="#231F20"/>
<path d="M50.6729 53.0671C50.2657 53.1415 49.8817 53.2126 49.6337 52.9594C49.5123 52.8346 49.4217 52.5335 49.6989 52.2628C49.9378 52.0287 50.2941 51.9473 50.7282 52.0288L50.8674 52.0549L50.2534 51.4281L50.2322 51.429C49.8362 51.4604 49.5199 51.602 49.2398 51.8766C49.0427 52.0703 48.932 52.3222 48.9299 52.5877C48.926 52.8787 49.05 53.1664 49.2779 53.399C49.7885 53.9213 50.3596 53.7965 50.8627 53.6874C51.237 53.6059 51.5591 53.5365 51.7729 53.7548C51.8489 53.8325 51.8875 53.9275 51.8875 54.0317C51.8857 54.1656 51.8178 54.3039 51.6996 54.4201C51.4996 54.6159 51.2127 54.7096 50.8499 54.6965L50.7387 54.694L51.2822 55.2477L51.3028 55.2449C51.6147 55.2021 51.8865 55.0764 52.0877 54.878C52.3289 54.6426 52.4581 54.3671 52.4602 54.0831C52.4641 53.8067 52.3464 53.5394 52.1217 53.3099C51.7016 52.8795 51.1548 52.9807 50.6729 53.0703" fill="#231F20"/>
<path d="M48.2206 52.8744L46.4939 54.0373L46.8288 54.5333C46.8288 54.5333 48.0314 53.7237 48.0987 53.6764C48.1436 53.7417 48.6897 54.5546 48.7349 54.6193C48.6673 54.6668 47.544 55.4226 47.544 55.4226L47.8782 55.9172C47.8782 55.9172 49.0006 55.1611 49.0688 55.1151C49.1139 55.1804 49.6415 55.9634 49.6843 56.0292C49.6162 56.0757 48.4517 56.8599 48.4517 56.8599L48.7855 57.3559L50.5105 56.1932L48.2577 52.8498" fill="#231F20"/>
<path d="M33.2585 55.5373C33.1896 55.4929 31.7238 54.5641 31.6544 54.5203C31.6998 54.4495 32.573 53.0694 32.573 53.0694L32.0679 52.7484L32.0444 52.787L29.9098 56.1553L30.416 56.4759C30.416 56.4759 31.29 55.0949 31.3351 55.0247C31.4046 55.0693 32.8695 55.9971 32.9403 56.0417C32.8943 56.1132 32.0201 57.4909 32.0201 57.4909L32.5255 57.812L34.6838 54.4062L34.1776 54.0863C34.1776 54.0863 33.3031 55.4652 33.2585 55.5373Z" fill="#231F20"/>
<path d="M30.5447 52.5502C30.5236 52.9319 30.3343 53.3013 30.014 53.5866C29.3836 54.1476 28.5522 54.1374 28.0369 53.5605C27.8027 53.2966 27.6829 52.9624 27.7033 52.623C27.7257 52.2419 27.9142 51.8749 28.2355 51.5893C28.5556 51.3048 28.9419 51.1602 29.3246 51.1819C29.6658 51.2028 29.9819 51.3558 30.2166 51.6194C30.4486 51.8794 30.5648 52.2098 30.5447 52.5502ZM31.1621 52.5768C31.1905 52.0793 31.0237 51.6106 30.6773 51.2224C29.8206 50.2594 28.5934 50.4466 27.8265 51.1308C27.379 51.5302 27.1151 52.0474 27.0846 52.5912C27.0548 53.0908 27.2271 53.5664 27.5819 53.965C28.3204 54.7939 29.542 54.829 30.4225 54.0466C30.8619 53.6535 31.1307 53.119 31.1621 52.5768Z" fill="#231F20"/>
<path d="M29.0615 49.165C29.0615 49.165 26.6024 50.3201 26.3902 50.4206C26.4978 50.2061 28.0792 47.0775 28.0792 47.0775L27.8667 46.6218L27.8259 46.64L24.2165 48.3349L24.4582 48.8497C24.4582 48.8497 26.9337 47.6858 27.1452 47.5856C27.0386 47.8001 25.4536 50.9655 25.4536 50.9655L25.653 51.3921L29.3016 49.6777" fill="#231F20"/>
<path d="M27.6811 45.536L27.6383 45.549L23.7712 46.5221L23.9176 47.1031L27.8265 46.1174" fill="#231F20"/>
<path d="M25.8091 44.1965C25.6724 44.0939 25.5066 44.0495 25.3395 44.0717C25.1727 44.0952 25.0244 44.1818 24.92 44.3171C24.8174 44.4531 24.7733 44.6194 24.7958 44.786C24.8185 44.9536 24.9065 45.1016 25.0422 45.2047C25.1777 45.3078 25.3432 45.352 25.511 45.3296C25.8567 45.2818 26.1007 44.9616 26.0537 44.6152C26.0308 44.4473 25.9441 44.2996 25.8091 44.1965Z" fill="#231F20"/>
<path d="M25.5611 42.6695C25.7953 42.3288 26.0161 42.0072 26.3719 42.0104C26.4798 42.0114 26.5923 42.0628 26.6732 42.1453C26.7711 42.2448 26.8207 42.3842 26.8186 42.5489C26.8152 42.8838 26.6207 43.1929 26.2566 43.444L26.1407 43.5232L27.018 43.531L27.0316 43.5154C27.2908 43.2126 27.413 42.8892 27.4174 42.4974C27.4192 42.221 27.32 41.9655 27.1331 41.7747C26.9298 41.5677 26.6379 41.4514 26.3129 41.4478C25.5833 41.4399 25.268 41.9312 24.9889 42.3653C24.7814 42.6872 24.6052 42.9653 24.2972 42.9622C24.1899 42.9603 24.0936 42.9207 24.0213 42.8468C23.9281 42.7513 23.8769 42.606 23.8787 42.4405C23.8811 42.1589 24.0173 41.8898 24.2839 41.6426L24.3645 41.5676L23.5898 41.5598L23.5767 41.5781C23.3872 41.8295 23.2856 42.1109 23.2823 42.3923C23.2789 42.7298 23.3822 43.0159 23.5809 43.2187C23.7738 43.4153 24.0455 43.5221 24.3671 43.5244C24.9694 43.5323 25.2837 43.0744 25.5611 42.6695Z" fill="#231F20"/>
<path d="M24.3645 38.7327C24.4499 38.3902 24.6569 38.1041 24.9485 37.9272C25.2745 37.7303 25.6844 37.6785 26.1012 37.7814C26.5184 37.884 26.8562 38.1215 27.0546 38.4488C27.2305 38.7414 27.2825 39.0899 27.1979 39.4322C27.0157 40.1701 26.2691 40.5783 25.462 40.3789C24.6402 40.1755 24.1784 39.483 24.3645 38.7327ZM25.3139 40.9737C25.8843 41.1157 26.479 41.035 26.9431 40.7541C27.3707 40.4965 27.662 40.0937 27.786 39.5875C27.9147 39.0662 27.846 38.5638 27.5855 38.1329C27.3062 37.6713 26.8204 37.3258 26.249 37.1853C25.0861 36.8982 24.0442 37.4873 23.7738 38.5871C23.7331 38.7513 23.7127 38.9148 23.7127 39.074C23.7127 39.4102 23.8025 39.7333 23.9795 40.0257C24.2593 40.488 24.7451 40.8343 25.3139 40.9737Z" fill="#231F20"/>
<path d="M52.1822 34.0904C52.2859 34.0669 53.2971 33.8147 53.4833 33.7691C53.3741 33.9252 52.7748 34.7891 52.7132 34.8807C52.6526 34.7909 52.2407 34.1776 52.1822 34.0904ZM52.349 35.41C52.3381 35.4256 52.2524 35.552 52.1441 35.7109L52.1433 35.1041C52.254 35.2685 52.3394 35.3954 52.349 35.41ZM49.6112 57.6239C48.3436 57.4485 46.6669 57.071 44.4462 56.3776C44.345 56.3466 44.245 56.3132 44.1426 56.2814C44.3536 54.9791 44.7845 54.169 45.4813 53.7634C46.6288 53.2238 47.6806 52.5127 48.6023 51.6609C49.4087 50.9224 50.2338 50.0607 50.8849 48.8202C51.941 47.0086 52.5464 44.9052 52.5464 42.6637C52.5464 41.6031 52.413 40.5609 52.1512 39.5549L52.1467 37.5889L52.7236 39.0304L53.2778 38.8087C53.2778 38.8087 52.7268 37.4309 52.697 37.3539C52.7761 37.3216 55.8851 36.0793 55.8851 36.0793L55.6671 35.5346L55.6256 35.5502L52.1457 36.941V36.7029L54.4619 33.3666L54.2319 33.0253L54.2022 33.0306L52.1405 33.5178L52.1352 29.624C52.3441 29.8125 52.5492 30.0083 52.75 30.2082C56.0785 33.5368 57.9111 37.9617 57.9111 42.6688C57.9111 45.7386 57.1094 48.762 55.5925 51.4119C54.1466 53.9367 52.0788 56.0806 49.6112 57.6239ZM53.2778 57.2297C52.9951 57.49 52.3929 57.7636 51.1153 57.7477C51.9744 57.1295 52.779 56.4383 53.5214 55.6847C53.6986 56.3966 53.6195 56.9154 53.2778 57.2297ZM43.5034 61.974C40.6243 61.371 37.2639 60.2895 35.2889 59.6003C35.4794 59.1211 35.8076 58.2922 36.1501 57.4297L36.6873 57.6562C36.6844 57.6886 36.6823 57.7213 36.6823 57.7568C36.6823 58.4929 37.2812 59.0907 38.0168 59.0907C38.7529 59.0907 39.352 58.4929 39.352 57.7568C39.352 57.0196 38.7529 56.421 38.0168 56.421C37.6221 56.421 37.2694 56.5944 37.0246 56.8661L36.4662 56.6319C36.7711 55.8631 37.0538 55.1485 37.225 54.7152C39.1894 55.5498 41.7371 56.533 44.1622 57.2911C46.7254 58.0914 48.7973 58.5513 50.4001 58.6719C47.6518 59.9899 43.685 61.8886 43.5034 61.974ZM43.0859 66.3068C43.0859 66.6787 43.0022 67.0317 42.8521 67.3507C42.7103 67.5872 42.4511 67.745 42.1559 67.745C41.7995 67.745 41.4962 67.5143 41.3884 67.1925C41.3691 67.1329 41.3265 66.9698 41.2696 66.7398C41.3605 66.7758 41.4612 66.7967 41.5643 66.7967C42.0073 66.7967 42.3665 66.437 42.3665 65.9948C42.3665 65.5515 42.0073 65.1923 41.5643 65.1923C41.3265 65.1923 41.112 65.297 40.9655 65.4628C40.7196 64.4163 40.4604 63.2854 40.4604 63.2854H40.298H40.0782C40.0782 63.2854 39.8214 64.413 39.5747 65.4593C39.4274 65.2954 39.2163 65.1923 38.98 65.1923C38.537 65.1923 38.1778 65.5515 38.1778 65.9948C38.1778 66.437 38.537 66.7967 38.98 66.7967C39.081 66.7967 39.1787 66.7759 39.2682 66.7414C39.2123 66.9709 39.1693 67.1348 39.151 67.1925C39.0448 67.5143 38.7404 67.745 38.382 67.745C38.0833 67.745 37.8223 67.5838 37.6824 67.3421C37.5344 67.0244 37.4519 66.6748 37.4519 66.3068V61.3114C39.1265 61.8434 41.1558 62.4323 43.0859 62.8489V66.3068ZM34.481 59.3126C34.3162 59.2523 34.1724 59.1988 34.0502 59.1536C30.7389 57.9003 27.9092 55.7019 25.8647 52.7942C23.7738 49.8194 22.6675 46.3189 22.6675 42.6696C22.6675 37.9625 24.5 33.5376 27.8293 30.209C28.0285 30.0091 28.2329 29.8151 28.441 29.6256L28.4337 34.4371C27.6829 33.937 26.8664 33.3926 26.8269 33.3676C26.8734 33.2989 27.5077 32.3456 27.5077 32.3456L27.0115 32.0144L26.9862 32.0507L25.3181 34.5573L25.8154 34.8879C25.8154 34.8879 26.4503 33.9331 26.4954 33.8658C26.5393 33.8945 27.614 34.6096 28.4323 35.1557L28.4308 36.8428L25.0286 35.2639L25.0103 35.304L24.7765 35.8062L28.4295 37.5035L28.4258 39.5734C28.1666 40.5737 28.0327 41.6096 28.0327 42.6637C28.0327 44.8867 28.6276 46.9727 29.6671 48.7731C30.3429 50.0786 31.2127 50.9702 32.0535 51.7345C32.414 52.0619 32.7936 52.3654 33.1854 52.6455C33.2162 52.6664 33.2465 52.6882 33.276 52.7088C33.3209 52.7401 33.366 52.7714 33.4112 52.8033C33.466 52.8409 33.5219 52.8764 33.5775 52.9132C33.5976 52.9263 33.6174 52.9396 33.6378 52.9529C33.9516 53.1557 34.2747 53.345 34.6068 53.5204L34.6039 53.5255C35.0589 53.7537 35.6891 54.0474 36.4364 54.3758L35.675 56.2989L35.3236 56.1501C35.1046 56.0582 34.8532 56.1606 34.7608 56.3791C34.6692 56.5981 34.7712 56.8486 34.9895 56.9405L35.3583 57.0975L34.481 59.3126ZM29.3818 39.9949H40.0404V53.9544C37.8458 53.9069 35.728 53.2238 33.9307 51.999C33.9273 51.9974 33.9252 51.9963 33.9226 51.9937C33.8558 51.9481 33.7897 51.9011 33.7237 51.8546C33.6997 51.8364 33.6759 51.8192 33.6529 51.803C33.6078 51.7699 33.5631 51.7366 33.519 51.7038C33.4632 51.6623 33.4078 51.6192 33.3525 51.5774C33.3405 51.567 33.3285 51.5565 33.3149 51.5476C32.1671 50.6447 31.1981 49.5254 30.47 48.2502C29.8156 46.952 29.3781 45.2106 29.3781 42.6563L29.3818 39.9949ZM29.3867 36.9706L29.3998 27.6558H31.0522H40.0404V39.516H29.3823L29.3867 36.9706ZM29.4319 25.669L32.1311 26.2263L29.4319 26.7818V25.669ZM34.2901 25.669L36.9896 26.2263L34.2901 26.7818V25.669ZM39.2745 25.669L41.9734 26.2263L39.2745 26.7818V25.669ZM44.2588 25.669L46.9585 26.2263L44.2588 26.7818V25.669ZM40.5189 39.516V27.6558H49.5253H51.1759L51.1897 36.9706L51.1939 39.516H40.5189ZM43.7521 54.422C43.5396 54.865 43.3807 55.3894 43.2708 55.9964C42.2402 55.6515 41.2299 55.2832 40.2834 54.9198C40.286 54.9198 40.2876 54.9198 40.2899 54.9198C41.4918 54.9198 42.6534 54.7457 43.7521 54.422ZM40.5189 53.9544V39.9949H51.1939L51.1986 42.6568C51.1986 45.2479 50.7473 47.0036 50.0767 48.3075C49.5227 49.2645 48.832 50.1326 48.0314 50.8875C47.981 50.9335 47.9304 50.9799 47.8805 51.0258C45.8543 52.8649 43.2494 53.8999 40.5189 53.9544ZM49.1688 25.669L51.869 26.2263L49.1688 26.7818V25.669ZM58.8505 42.6696C58.8505 37.7119 56.9199 33.0502 53.413 29.545C53.004 29.1336 52.5756 28.7453 52.1342 28.3781L52.1334 27.6584C52.8753 27.6223 53.4666 27.0112 53.4666 26.26C53.4666 25.4854 52.8382 24.8579 52.0655 24.8579C52.0342 24.8579 52.0058 24.8597 51.9755 24.8631L53.3452 24.2343L52.8226 23.0913L54.86 18.3611L53.9813 17.9829L51.9141 22.7842L50.8084 23.2912L51.5288 24.8665H45.5659H35.0119H29.0288L29.7514 23.2912L28.637 22.7806L26.5706 17.9829L25.6927 18.3611L27.7333 23.0979L27.2122 24.2343L28.5775 24.8603C28.5676 24.8603 28.5574 24.8585 28.5462 24.8585C27.7711 24.8585 27.1444 25.4859 27.1444 26.2604C27.1444 27.0002 27.7176 27.6033 28.4438 27.6563L28.4425 28.3804C28.0027 28.7459 27.5738 29.1348 27.1645 29.5454C23.6579 33.0507 21.7275 37.7123 21.7275 42.67C21.7275 46.5142 22.8923 50.2023 25.0952 53.3356C27.2498 56.3987 30.2325 58.7159 33.7203 60.0359C33.7391 60.0438 33.9247 60.112 34.24 60.2248C34.2651 60.7249 34.5822 61.1867 35.0798 61.3689C35.5933 61.5547 36.1501 61.3898 36.4876 60.9992C36.5059 61.0071 36.5244 61.0123 36.5427 61.0201V66.308C36.5427 68.2518 38.2139 69.8319 40.2693 69.8319C42.324 69.8319 43.9962 68.2518 43.9962 66.308V62.7839L53.1178 58.4172C53.4389 58.295 53.7075 58.1345 53.9249 57.9343C54.6512 57.267 54.7671 56.2399 54.2685 54.8801C55.0769 53.955 55.7966 52.9495 56.4082 51.8808C58.0074 49.0905 58.8505 45.9034 58.8505 42.6696Z" fill="#231F20"/>
<path d="M53.3298 16.9791C53.0317 16.0443 52.1572 15.3688 51.1253 15.3688C50.2965 15.3688 49.57 15.804 49.1612 16.4576C48.868 15.8128 48.2817 15.31 47.5346 15.15C46.5247 14.9362 45.5283 15.4162 45.0422 16.2664C44.6444 15.5697 43.8934 15.099 43.0327 15.099C42.9721 15.099 42.9131 15.1016 42.8539 15.1068C42.9027 14.8215 42.9604 14.5339 43.0311 14.2457C44.7725 14.4777 46.3876 13.8212 47.957 13.1858C49.157 12.6979 50.2941 12.237 51.3659 12.237C51.7956 12.237 52.7586 12.4704 53.3326 13.3566C53.8913 14.222 53.8884 15.4656 53.3298 16.9791ZM41.214 13.0953C40.9676 12.8638 40.6376 12.7184 40.2735 12.7184C39.9153 12.7184 39.5916 12.8564 39.347 13.0807C39.3455 13.0624 39.3447 13.0417 39.3447 13.0227C39.3447 12.5058 39.7631 12.0857 40.281 12.0857C40.7974 12.0857 41.2174 12.5058 41.2174 13.0227C41.2174 13.0488 41.2153 13.0705 41.214 13.0953ZM41.1545 14.4115C40.9162 14.2108 40.6084 14.0889 40.2735 14.0889C39.9367 14.0889 39.6298 14.2108 39.3901 14.4115C39.3551 14.3131 39.3366 14.2068 39.3366 14.0964C39.3366 13.5795 39.7558 13.1599 40.2735 13.1599C40.7903 13.1599 41.2085 13.5795 41.2085 14.0964C41.2085 14.2068 41.1903 14.3131 41.1545 14.4115ZM40.2735 16.3996C39.7558 16.3996 39.3366 15.9812 39.3366 15.4641C39.3366 14.9461 39.7558 14.5266 40.2735 14.5266C40.7903 14.5266 41.2085 14.9461 41.2085 15.4641C41.2085 15.9812 40.7903 16.3996 40.2735 16.3996ZM40.2735 11.1907C40.7509 11.1907 41.1451 11.5495 41.2023 12.0133C40.9569 11.7875 40.6306 11.6491 40.2735 11.6491C39.9138 11.6491 39.5885 11.7875 39.3447 12.0133C39.4003 11.5495 39.7942 11.1907 40.2735 11.1907ZM40.2735 10.3058C40.746 10.3058 41.1362 10.6577 41.1994 11.113C40.9538 10.8893 40.6298 10.7508 40.2735 10.7508C39.9153 10.7508 39.5909 10.8893 39.3455 11.113C39.41 10.6577 39.7992 10.3058 40.2735 10.3058ZM37.5195 15.099C36.6594 15.099 35.9083 15.5697 35.5097 16.2664C35.0234 15.4162 34.0273 14.9362 33.0173 15.15C32.2707 15.3093 31.6865 15.8101 31.392 16.4554C30.983 15.8023 30.2562 15.3688 29.4298 15.3688C28.3966 15.3688 27.5203 16.0461 27.2227 16.9824C26.663 15.4663 26.6593 14.2222 27.2206 13.3566C27.7925 12.4704 28.7571 12.237 29.1865 12.237C30.2599 12.237 31.3949 12.6979 32.5965 13.1858C34.163 13.8212 35.7802 14.4777 37.5221 14.2457C37.591 14.5339 37.6505 14.8215 37.6993 15.1068C37.639 15.1016 37.5798 15.099 37.5195 15.099ZM54.162 12.8199C53.459 11.7352 52.2509 11.2503 51.3659 11.2503C50.0991 11.2503 48.821 11.7688 47.5847 12.2705C46.1884 12.838 44.7485 13.4203 43.3037 13.2822C43.4804 12.7473 43.6926 12.2414 43.9328 11.807L43.0583 11.3743C43.2363 11.0428 43.3603 10.6759 43.4109 10.2875C43.311 10.2489 42.1415 9.82832 40.2236 9.82832C38.3112 9.82832 37.2282 10.2464 37.1394 10.2816C37.1901 10.6737 37.313 11.042 37.4936 11.3743L36.6199 11.807C36.8614 12.2414 37.0715 12.7473 37.249 13.2822C35.8042 13.4203 34.3648 12.838 32.9672 12.2705C31.7309 11.7688 30.452 11.2503 29.1865 11.2503C28.3008 11.2503 27.0937 11.7352 26.3915 12.8199C25.8136 13.7116 25.3792 15.3405 26.5844 18.0243L26.5659 17.9821L28.359 17.2039L28.4859 17.4964C27.893 17.752 27.3331 18.4349 27.9946 19.9698C29.5298 19.3102 29.5963 18.4289 29.3405 17.8358L29.6339 17.711L30.393 19.477L31.155 21.2443L30.8619 21.3714C30.6068 20.7783 29.9216 20.2195 28.3872 20.8799C29.0476 22.4146 30.2521 23.0501 31.1683 23.0501C32.7583 23.0501 33.9349 22.0616 33.7665 21.0714C33.6412 20.335 32.9682 20.0756 32.7137 20.1239C32.3908 20.1863 32.195 20.5128 32.2451 20.7655C32.2577 20.8232 32.2796 20.8772 32.3096 20.9234L32.2678 20.9846C31.8429 20.9491 31.4769 20.635 31.3926 20.1946C31.2918 19.665 31.6387 19.1531 32.1692 19.0526C32.4921 18.991 32.8077 19.0962 33.028 19.3077L33.1342 19.1512C32.8474 18.9993 32.6299 18.7259 32.5644 18.3821C32.4036 17.5382 33.3561 16.7207 33.3715 16.7132C33.3856 16.7137 34.5728 17.1248 34.7339 17.9685C34.7992 18.3144 34.6963 18.6523 34.4836 18.899L34.6407 19.0061C34.7671 18.726 35.0234 18.5079 35.3481 18.4463C35.8781 18.3458 36.39 18.6928 36.4918 19.2232C36.5748 19.6628 36.3503 20.0894 35.9673 20.2794L35.9062 20.2375C35.918 20.1827 35.918 20.1249 35.907 20.0675C35.8621 19.8125 35.5596 19.5814 35.2367 19.6431C34.9832 19.6919 34.4679 20.1798 34.6068 20.9102C34.8441 22.1577 35.8861 23.0544 37.1553 23.0544C38.4224 23.0544 39.7399 22.0025 39.7399 20.4626C37.9366 20.4626 37.4963 21.3072 37.4963 22.0032H37.1525V19.9284V17.8508H37.4963C37.4963 18.5467 37.9366 19.3935 39.7399 19.3935C39.7399 17.5905 38.8947 17.1499 38.1972 17.1499V16.8056H39.984H40.5672H42.354V17.1499C41.656 17.1499 40.8112 17.5905 40.8112 19.3935C42.6129 19.3935 43.0546 18.5467 43.0546 17.8508H43.3974V19.9284V22.0032H43.0546C43.0546 21.3072 42.6129 20.4626 40.8112 20.4626C40.8112 22.0025 42.1279 23.0544 43.3958 23.0544C44.6642 23.0544 45.7084 22.1577 45.9433 20.9102C46.0827 20.1798 45.5674 19.6919 45.3147 19.6431C44.9908 19.5814 44.6885 19.8125 44.6433 20.0675C44.6331 20.1249 44.6331 20.1827 44.6444 20.2375L44.583 20.2794C44.2019 20.0894 43.9758 19.6628 44.0591 19.2232C44.1607 18.6928 44.6726 18.3458 45.202 18.4463C45.5293 18.509 45.787 18.7284 45.9138 19.0116L46.0694 18.9004C45.8543 18.655 45.7507 18.3149 45.8165 17.9685C45.9786 17.123 47.1692 16.7132 47.1801 16.7132C47.194 16.7184 48.1478 17.5382 47.9854 18.3821C47.9199 18.7283 47.6983 19.0058 47.4093 19.1569L47.5127 19.3177C47.7346 19.099 48.0541 18.9902 48.3814 19.0526C48.9121 19.1531 49.2599 19.665 49.158 20.1946C49.075 20.635 48.7072 20.9491 48.2838 20.9846L48.2423 20.9234C48.2716 20.8772 48.2943 20.8232 48.3057 20.7655C48.3556 20.5128 48.1609 20.1863 47.8372 20.1239C47.5837 20.0756 46.9094 20.335 46.7844 21.0714C46.615 22.0616 47.7941 23.0501 49.3823 23.0501C50.2991 23.0501 51.5027 22.4146 52.1629 20.8799C50.6298 20.2195 49.9448 20.7783 49.6885 21.3714L49.3961 21.2443L50.1568 19.477L50.9167 17.711L51.2112 17.8358C50.9548 18.4289 51.0222 19.3102 52.5568 19.9698C53.2173 18.4349 52.6573 17.752 52.0655 17.4964L52.1901 17.2039L53.985 17.9821L53.9659 18.0238C55.1722 15.34 54.7386 13.7116 54.162 12.8199Z" fill="#231F20"/>
<path d="M45.8225 28.3225H45.8196H45.4727L45.6536 28.7388L45.8196 28.744L45.8619 28.7466L45.7958 28.8654L45.8937 28.7624L45.912 28.7858L45.9908 28.7346L46.1696 28.322" fill="#231F20"/>
<path d="M41.5121 28.6613L41.4503 28.7239L41.4578 28.8891L41.1036 28.8372L41.1091 28.5988L40.8499 28.1236L40.9112 28.0611L41.3704 28.325H41.6406V28.7046L41.5098 28.6544" fill="#231F20"/>
<path d="M41.7677 28.5997C41.7024 28.5997 41.6476 28.546 41.6476 28.4802C41.6476 28.4147 41.7024 28.3613 41.7677 28.3613C41.8066 28.3613 41.8405 28.3823 41.8627 28.4115H41.9016C41.9102 28.3854 41.9165 28.3577 41.9165 28.3287C41.9165 28.1786 41.7935 28.0567 41.6447 28.0567C41.4962 28.0567 41.3746 28.1786 41.3746 28.3287C41.3746 28.4783 41.4962 28.5997 41.6447 28.5997L41.7711 28.5989C41.7698 28.5989 41.7685 28.5997 41.7677 28.5997Z" fill="#231F20"/>
<path d="M41.3806 28.9865C41.3806 28.9204 41.3265 28.867 41.2607 28.867C41.1931 28.867 41.1412 28.9204 41.1412 28.9865C41.1412 29.0272 41.1621 29.0607 41.1924 29.0816V29.1214C41.166 29.1292 41.1378 29.1372 41.1091 29.1372C40.9592 29.1372 40.8376 29.0147 40.8376 28.8662C40.8376 28.7161 40.9592 28.5934 41.1091 28.5934C41.2579 28.5934 41.3806 28.7161 41.3806 28.8662L41.3793 28.9909C41.3793 28.9896 41.3806 28.9865 41.3806 28.9865Z" fill="#231F20"/>
<path d="M41.5121 38.5724L41.4503 38.5093L41.4578 38.3457L41.1036 38.3965L41.1091 38.6357L40.8499 39.1105L40.9112 39.1725L41.3704 38.9084H41.6406V38.5285L41.5098 38.5806" fill="#231F20"/>
<path d="M41.7677 38.6341C41.7024 38.6341 41.6476 38.6884 41.6476 38.7531C41.6476 38.8194 41.7024 38.8732 41.7677 38.8732C41.8066 38.8732 41.8405 38.8523 41.8627 38.8223H41.9016C41.9102 38.8484 41.9165 38.8754 41.9165 38.9059C41.9165 39.0555 41.7935 39.1766 41.6447 39.1766C41.4962 39.1766 41.3746 39.0555 41.3746 38.9059C41.3746 38.7561 41.4962 38.6341 41.6447 38.6341L41.7711 38.6357C41.7698 38.6357 41.7685 38.6341 41.7677 38.6341Z" fill="#231F20"/>
<path d="M41.3806 38.2478C41.3806 38.3133 41.3265 38.3674 41.2607 38.3674C41.1931 38.3674 41.1412 38.3133 41.1412 38.2478C41.1412 38.2078 41.1621 38.174 41.1924 38.1523V38.112C41.166 38.1042 41.1378 38.0989 41.1091 38.0989C40.9592 38.0989 40.8376 38.2206 40.8376 38.3704C40.8376 38.5205 40.9592 38.6414 41.1091 38.6414C41.2579 38.6414 41.3806 38.5205 41.3806 38.3704L41.3793 38.2444C41.3793 38.2457 41.3806 38.2451 41.3806 38.2478Z" fill="#231F20"/>
<path d="M50.1234 38.5724L50.185 38.5093L50.1769 38.3457L50.5311 38.3965L50.5264 38.6357L50.7851 39.1105L50.7217 39.1725L50.2651 38.9084H49.9942V38.5285L50.1257 38.5806" fill="#231F20"/>
<path d="M49.8678 38.6341C49.9336 38.6341 49.9871 38.6884 49.9871 38.7531C49.9871 38.8194 49.9336 38.8732 49.8678 38.8732C49.8287 38.8732 49.7942 38.8523 49.7728 38.8223H49.7321C49.7248 38.8484 49.7185 38.8754 49.7185 38.9059C49.7185 39.0555 49.8415 39.1766 49.99 39.1766C50.1393 39.1766 50.2615 39.0555 50.2615 38.9059C50.2615 38.7561 50.1393 38.6341 49.99 38.6341L49.865 38.6357C49.865 38.6357 49.865 38.6341 49.8678 38.6341Z" fill="#231F20"/>
<path d="M50.2539 38.2478C50.2539 38.3133 50.3087 38.3674 50.3735 38.3674C50.4403 38.3674 50.493 38.3133 50.493 38.2478C50.493 38.2078 50.4734 38.174 50.4429 38.1523V38.112C50.4693 38.1042 50.4956 38.0989 50.5264 38.0989C50.6755 38.0989 50.7966 38.2206 50.7966 38.3704C50.7966 38.5205 50.6755 38.6414 50.5264 38.6414C50.3771 38.6414 50.2539 38.5205 50.2539 38.3704L50.2555 38.2444C50.2555 38.2457 50.2539 38.2451 50.2539 38.2478Z" fill="#231F20"/>
<path d="M50.1263 28.6613L50.1881 28.7239L50.1798 28.8891L50.534 28.8372L50.529 28.5988L50.788 28.1236L50.7272 28.0611L50.2685 28.325H49.997V28.7046L50.1289 28.6544" fill="#231F20"/>
<path d="M49.8704 28.5997C49.9378 28.5997 49.99 28.546 49.99 28.4802C49.99 28.4147 49.9378 28.3613 49.8704 28.3613C49.8318 28.3613 49.7984 28.3823 49.7754 28.4115H49.7363C49.7274 28.3854 49.7227 28.3577 49.7227 28.3287C49.7227 28.1786 49.8441 28.0567 49.9942 28.0567C50.1435 28.0567 50.2651 28.1786 50.2651 28.3287C50.2651 28.4783 50.1435 28.5997 49.9942 28.5997L49.8678 28.5989C49.8691 28.5989 49.8704 28.5997 49.8704 28.5997Z" fill="#231F20"/>
<path d="M50.2581 28.9865C50.2581 28.9204 50.3124 28.867 50.3784 28.867C50.4429 28.867 50.4977 28.9204 50.4977 28.9865C50.4977 29.0272 50.4758 29.0607 50.4466 29.0816V29.1214C50.4734 29.1292 50.4998 29.1372 50.529 29.1372C50.6791 29.1372 50.8005 29.0147 50.8005 28.8662C50.8005 28.7161 50.6791 28.5934 50.529 28.5934C50.3792 28.5934 50.2581 28.7161 50.2581 28.8662V28.9909C50.2581 28.9896 50.2581 28.9865 50.2581 28.9865Z" fill="#231F20"/>
<path d="M45.4233 29.6649H46.1931V29.3298H45.4233V29.6649Z" fill="#231F20"/>
<path d="M45.6201 29.9863H46.0141V29.6648H45.6201V29.9863Z" fill="#231F20"/>
<path d="M46.2989 29.4663L46.2952 29.4676H46.3017L46.2989 29.4663Z" fill="#231F20"/>
<path d="M46.3639 29.6072C46.3482 29.6255 46.326 29.6402 46.2989 29.6402C46.2513 29.6402 46.2125 29.6013 46.2125 29.5532C46.2125 29.5062 46.25 29.4695 46.2952 29.4677L46.2104 29.4664C46.101 29.4664 46.0133 29.5551 46.0133 29.6632C46.0133 29.7723 46.101 29.8611 46.2104 29.8611C46.319 29.8611 46.4077 29.7723 46.4077 29.6632C46.4077 29.6579 46.4051 29.6528 46.4051 29.6476" fill="#231F20"/>
<path d="M45.2706 29.6072C45.2852 29.6255 45.3082 29.6402 45.3346 29.6402C45.3834 29.6402 45.422 29.6013 45.422 29.5532C45.422 29.5062 45.3852 29.4695 45.3382 29.4677L45.4241 29.4664C45.5332 29.4664 45.6201 29.5551 45.6201 29.6632C45.6201 29.7723 45.5332 29.8611 45.4241 29.8611C45.3147 29.8611 45.227 29.7723 45.227 29.6632C45.227 29.6579 45.2299 29.6528 45.2299 29.6476" fill="#231F20"/>
<path d="M45.8196 38.9155H45.8225H46.1696L45.9908 38.4989L45.8225 38.4938L45.7825 38.4914L45.8465 38.3719L45.7494 38.4743L45.73 38.4509L45.6536 38.5011L45.4727 38.915" fill="#231F20"/>
<path d="M45.4319 37.8965H46.2017V37.5611H45.4319V37.8965Z" fill="#231F20"/>
<path d="M45.6201 37.5714H46.0141V37.2492H45.6201V37.5714Z" fill="#231F20"/>
<path d="M45.2706 37.6291C45.2865 37.6108 45.3095 37.5959 45.3354 37.5959C45.3844 37.5959 45.4233 37.6349 45.4233 37.6824C45.4233 37.7286 45.3863 37.7679 45.3395 37.7697H45.4241C45.5332 37.7697 45.6209 37.6813 45.6209 37.5727C45.6209 37.4628 45.5332 37.3756 45.4241 37.3756C45.3158 37.3756 45.2288 37.4628 45.2288 37.5727C45.2288 37.5779 45.2299 37.5832 45.2299 37.5884" fill="#231F20"/>
<path d="M46.3649 37.6291C46.3482 37.6108 46.3273 37.5959 46.2989 37.5959C46.2513 37.5959 46.2125 37.6349 46.2125 37.6824C46.2125 37.7286 46.25 37.7679 46.2952 37.7697H46.2104C46.1023 37.7697 46.0133 37.6813 46.0133 37.5727C46.0133 37.4628 46.1023 37.3756 46.2104 37.3756C46.3203 37.3756 46.4077 37.4628 46.4077 37.5727C46.4077 37.5779 46.4051 37.5832 46.4051 37.5884" fill="#231F20"/>
<path d="M50.5387 33.613V33.2639L50.1247 33.4438L50.1176 33.6108L50.1137 33.6521L49.9942 33.5871L50.0975 33.6834L50.0748 33.7043L50.1262 33.7816L50.5387 33.9612" fill="#231F20"/>
<path d="M49.1904 34.0073H49.5256V33.2379H49.1904V34.0073Z" fill="#231F20"/>
<path d="M48.8829 33.8148H49.2066V33.419H48.8829V33.8148Z" fill="#231F20"/>
<path d="M49.3948 34.098L49.3935 34.0953V34.1006L49.3948 34.098Z" fill="#231F20"/>
<path d="M49.2635 34.1635C49.2442 34.1478 49.2296 34.1249 49.2296 34.098C49.2296 34.0492 49.2687 34.0107 49.3181 34.0107C49.3635 34.0107 49.4011 34.0475 49.4029 34.0945L49.4037 34.0094C49.4037 33.9003 49.3155 33.813 49.2066 33.813C49.098 33.813 49.0098 33.9003 49.0098 34.0094C49.0098 34.1175 49.098 34.206 49.2066 34.206C49.2129 34.206 49.2225 34.2035 49.2225 34.2035" fill="#231F20"/>
<path d="M49.3948 33.1343L49.3935 33.1368V33.1316L49.3948 33.1343Z" fill="#231F20"/>
<path d="M49.2635 33.0701C49.2442 33.0858 49.2296 33.1072 49.2296 33.1343C49.2296 33.1826 49.2687 33.2218 49.3181 33.2218C49.3635 33.2218 49.4011 33.1836 49.4029 33.1376L49.4037 33.223C49.4037 33.3316 49.3155 33.4201 49.2066 33.4201C49.098 33.4201 49.0098 33.3316 49.0098 33.223C49.0098 33.1137 49.098 33.026 49.2066 33.026C49.2129 33.026 49.2225 33.0285 49.2225 33.0285" fill="#231F20"/>
<path d="M41.1028 33.613V33.2639L41.5163 33.4438L41.5239 33.6108L41.5273 33.6521L41.646 33.5871L41.5434 33.6834L41.5662 33.7043L41.516 33.7816L41.1028 33.9612" fill="#231F20"/>
<path d="M42.117 34.0073H42.4511V33.2379H42.117V34.0073Z" fill="#231F20"/>
<path d="M42.436 33.8148H42.757V33.419H42.436V33.8148Z" fill="#231F20"/>
<path d="M42.2462 34.098L42.2491 34.0953V34.1006L42.2462 34.098Z" fill="#231F20"/>
<path d="M42.3783 34.1635C42.3976 34.1478 42.4114 34.1249 42.4114 34.098C42.4114 34.0492 42.3728 34.0107 42.3248 34.0107C42.2778 34.0107 42.2402 34.0475 42.2386 34.0945L42.2378 34.0094C42.2378 33.9003 42.3263 33.813 42.4336 33.813C42.5435 33.813 42.6325 33.9003 42.6325 34.0094C42.6325 34.1175 42.5435 34.206 42.4336 34.206C42.4336 34.206 42.4247 34.204 42.4179 34.2035" fill="#231F20"/>
<path d="M42.2462 33.1343L42.2491 33.1368V33.1316L42.2462 33.1343Z" fill="#231F20"/>
<path d="M42.3783 33.0701C42.3976 33.0858 42.4114 33.1072 42.4114 33.1343C42.4114 33.1826 42.3728 33.2218 42.3248 33.2218C42.2778 33.2218 42.2402 33.1836 42.2386 33.1376L42.2378 33.223C42.2378 33.3316 42.3263 33.4201 42.4336 33.4201C42.5435 33.4201 42.6325 33.3316 42.6325 33.223C42.6325 33.1137 42.5435 33.026 42.4336 33.026C42.4336 33.026 42.4247 33.0285 42.4179 33.0285" fill="#231F20"/>
</svg>
