<?xml version="1.0" encoding="UTF-8"?>
<svg xmlns="http://www.w3.org/2000/svg" version="1.1" viewBox="0 0 344.12 191.54">
  <!-- Generator: Adobe Illustrator 29.3.0, SVG Export Plug-In . SVG Version: 2.1.0 Build 146)  -->
  <defs>
    <style>
      .st0 {
        fill: #732282;
      }

      .st1 {
        display: none;
      }

      .st2 {
        fill: #222221;
      }

      .st3 {
        fill: #d57e26;
      }
    </style>
  </defs>
  <g id="Clearance__x28_do_not_print_x29_" class="st1">
    <rect class="st3" x="-80.07" y="-78.36" width="80.07" height="80.07"/>
    <rect class="st3" x="-80.13" y="180.32" width="80.07" height="80.07"/>
    <rect class="st3" x="341.59" y="-78.49" width="80.07" height="80.07"/>
    <rect class="st3" x="341.53" y="180.19" width="80.07" height="80.07"/>
  </g>
  <g id="Line">
    <rect class="st0" y="1.71" width="4.25" height="178.58"/>
  </g>
  <g id="Simplified_Coat_of_Arms">
    <g>
      <g>
        <path class="st2" d="M41.93,69.06c-.39-.86-1.86-.35-1.58.51,1.75-.58.56,2.19-.72,1.43-.93-.23-.79-2.26.22-1.41.14-1.05-1.24-1.3-1.79-.51-.07-.67-.48-1.55-1.24-1.44.04,2.02,1.13,4.94,3.38,5.17,2.07-.72,2.98-3.12,2.88-5.15-.84.16-1.13.46-1.14,1.41Z"/>
        <path class="st2" d="M33.71,61.88c-1.82-.62-3.17-2.26-2.78-4.24-.44-.22-.79-.84-.53-1.32.56-.29.97.09,1.44.34,1.68-1.41,3.37-.23,4.93.67.04-.14.08-.26.12-.38-1-.59-2.16-2.28-3.31-2.16-.95.4-3.87.34-3.8,1.66.04,1.17-.65,3.35.35,4.17,1.06.53,2.12,1.45,3.29,1.6.12-.06.5-.2.29-.35Z"/>
        <path class="st2" d="M36.16,58.72c-1.91-.29-2.06,2.63-.25,2.75,1.91.19,2.07-2.62.25-2.75ZM36,59.45c.84-.02.87,1.24.09,1.26-.86.03-.79-1.22-.09-1.26Z"/>
        <path class="st2" d="M40.03,63.33c1.68-.03,1.77-2.76-.1-2.74-2.05.09-1.56,2.92.1,2.74ZM39.97,61.35c.79-.03.79,1.25-.04,1.21-.82,0-.77-1.25.04-1.21Z"/>
        <path class="st2" d="M33.07,56.88c-.2-.13-1.01-.08-.78.27,1.69.76.36,2.39-.83.95-.3.42-.03.72.23,1.01,1.64,1.33,3.37-1.35,1.38-2.22Z"/>
        <path class="st2" d="M38.01,67.92s.02,0,.07.02c.04-.4.04-3.56,0-3.84-.15-.07-.29-.17-.49-.16-.03,1.01,0,2.01-.01,3.02-.07.43.08.72.44.96Z"/>
        <path class="st2" d="M32.59,57.73c-.63-.4-1.21-1.35-2.03-1.18-.08.7,1.41,1.56,1.97,1.87.31-.28.33-.44.05-.69Z"/>
        <path class="st2" d="M42.52,65.67c-.17-.05-.31-.15-.48-.12-.04.71-.17,1.53-.02,2.22.16-.08.29-.14.46-.22.01-.64.02-1.25.03-1.88Z"/>
        <path class="st2" d="M53.36,33.33c-.12,0-.21.04-.31.09v1.35c.35-.6.91-1.34.31-1.44Z"/>
        <path class="st2" d="M40.04,67.18c.66.04.58-1.04-.08-.99-.61.03-.54,1.03.08.99Z"/>
        <path class="st2" d="M53.05,39.94v.97c.17.51.33,1.27.4,2.6.06,1.2-.02,2.41-.29,3.58-.27,1.2-.68,2.44-1.16,3.26.21-.53.65-2.11.62-6.56l.04-13.98h-24.72c0,.05-.09,13.41-.09,13.65.04,5.22.93,7.03,1.11,7.65-1.19-.96-2.12-7.33-1.39-9.76.03-.07.05-1.76.05-1.76-1.49,4.17-.93,9.31,1.59,12.91.55.62,2.03,2.9,2.91,2.42-4.21-3.21-3.85-11.13-3.75-11.13h11.62v15.3c-.67.02-1.48-.58-2.14-.77-1.45-.45-2.57-1.86-4.13-1.85,3.61,2.47,7.72,4.65,12.06,5.4-.47.19-.86.76-1.35.45-1.33-.47-2.4.73-1.67,2.02-.1.15-.21.31-.31.46-3.94-.76-7.52-3.06-10.93-4.91,1.05,1.98,7.45,4.4,9.71,5.19.48.09,1.74.83,1.79,0-.05-.21.02-.34.13-.49.38.13.79-.4.44-.67-.44-.29-.16-1.02.37-.93.16.02.27.12.38.23.32.35.69.09.76-.2.19-.58,1.29-.96,1.85-1.14.71-.15,1.84-.21,1.96-1.09-1.85.83-3.99.57-5.89-.07-.14-.06-.31-.12-.5-.18.06-.06.12-.13.15-.21.23-.64.55-1.41.81-2.04,3.32-1.52,6.52-3.51,8.39-6.68,1.96-3.4,2.77-7.97,1.2-11.65ZM40.31,30.32h11.91v13.14s-11.91,0-11.91,0v-13.14ZM39.98,43.46h-11.62v-13.14h11.62v13.14ZM42.66,58.67c-.13.42-.27.84-.43,1.25-.08.2-.13.35-.17.46-.66-.22-1.37-.47-1.61-.83.74-.29,1.48-.6,2.23-.92,0,.01-.02.03-.02.04ZM50.44,52.83c-2.65,3.07-6.46,4.72-10.13,6.27v-15.3h11.91c.07,2.42.07,6.96-1.78,9.04Z"/>
        <path class="st2" d="M47.02,29.44h1.47c-.12-.36-.5-.52-.94-.86-.12.35-.32.61-.54.86Z"/>
        <path class="st2" d="M33.34,29.44c.05,0,.1,0,.14,0l-.78-.59-1,.6h1.64Z"/>
        <path class="st2" d="M38.06,29.44c.36-1.43-1.7-2.6-2.81-1.28-.37.39-.47.86-.38,1.28h.74c-.22-.46-.16-1.01.41-1.23.76-.31,1.5.54,1.42,1.23h.62Z"/>
        <path class="st2" d="M41.1,27.39c.13.41.29,1.45.11,2.05h.78c-.05-.72,0-1.52.17-2.05h-1.06Z"/>
        <path class="st2" d="M39.07,27.39c.26.54.11,1.39.16,2.05h.78c-.17-.65,0-1.73.12-2.05h-1.06Z"/>
        <path class="st2" d="M44.3,29.44c.15-.58.35-1.17.59-1.55l-.82-.28c0,.51-.16,1.19-.36,1.82h.59Z"/>
        <path class="st2" d="M51.59,31.72v.05c.44.15.56-.6.1-.61l.29-.54-.07-.07s-.52.31-.53.3c0-.46-.74-.35-.6.1h.04c.16-.2.38.16.13.21,0,0-4.38,0-4.38,0l.14-.31h-.8l.14.31h-4.37c-.26-.04-.04-.42.12-.21h.04c.14-.45-.6-.56-.6-.1,0,0-.52-.3-.53-.3l-.07.07.29.54c-.47,0-.34.75.1.61.32-1.77.2,4.66.21,4.88l-.31-.13v.8l.31-.14c-.01.11.12,6.66-.21,4.89-.44-.15-.57.6-.1.61l-.29.54.07.07s.52-.31.53-.3c0,.46.74.35.6-.1h-.04c-.16.2-.38-.16-.13-.21,0,0,4.38,0,4.38,0l-.14.32h.8l-.14-.32h4.37c.07,0,.12.07.12.13,0,.13-.18.19-.24.08h-.05c-.14.45.6.56.6.1,0,0,.52.3.53.3l.07-.07-.29-.54c.47,0,.34-.75-.1-.61-.32,1.77-.2-4.66-.21-4.9l.32.14v-.8l-.32.14v-5.06c.05-.25.42-.04.21.13ZM51.07,42.36h-9.52v-5.48h0s0,0,0,0v-5.41h9.52v10.89Z"/>
        <path class="st2" d="M50.69,31.86h-8.77v10.11h8.77v-10.11ZM46.73,32.16h0s0,0,0,0h0ZM42.22,37.36h0s0,0,0,.02v-.02ZM42.31,41.44v-.02l.02.02h-.02ZM45.87,41.67h0s0,0,0,0h0ZM46.74,41.67h0s0,0,0,0h0ZM50.24,36.29l-.05-.05c-.29-.04-.33.43-.04.44h0s-.35.17-.35.17v.11l.35.16h0c-.29.03-.25.49.04.45l.05-.05c.27-1.11.13,3.72.15,3.83h-.3v.3h-3.25c-.19-.03-.04-.3.08-.16l.05-.05c.04-.3-.43-.33-.44-.03h0l-.16-.36h-.11l-.16.36h0c-.01-.29-.47-.26-.44.03l.05.05c.12-.14.27.13.08.16,0,0-3.24,0-3.24,0v-.3h-.3v-3.99s0,.08,0,.08c.02-.19.3-.05.16.08l.05.05c.29.04.33-.43.04-.44h0s.35-.17.35-.17v-.11l-.35-.16h0c.29-.03.25-.49-.04-.46l-.05.05c.14.13-.14.27-.16.08,0,.01,0,.1,0,.11h0v-4.02h.3v-.3h3.25c.18.03.03.3-.09.16l-.05.05c-.04.3.45.32.44.02h0l.17.37h.11l.17-.37c0,.3.48.28.45-.02l-.05-.05c-.11.14-.27-.12-.09-.16h3.25v.3h.3c-.03-.07.12,4.93-.16,3.83ZM50.39,36.48h0s0,0,0,0c0,0,0,0,0,0Z"/>
        <path class="st2" d="M43.58,33.72c.42.53.89,2.08,1.71,1.93h0c.14-.08.28-.52.29-.59,0-.02-.09-.1-.18-.17-.6-.59-.98-1.08-.5-1.65-.01-.45-.36.05-.49-.02-.07-.13-.33-.49-.49-.32-.1.05.02.31-.05.37-.04.05-.06.06-.17.06-.37,0-.42.24-.12.39Z"/>
        <path class="st2" d="M45.54,36.72c.12-.13.49-.51.53-.6.04-.09.05-.09.31-.11.71-.11,1.08-.42,1.28-1.24.1-.25-.03-.78-.17-.89-.06-.04-.08-.12-.05-.15.13-.02.41-.14.46-.3-.08-.16-.26-.04-.51-.13-.19-.09-.68-.25-.88-.14-.45.34-1.06.04-.73.79l.38.05v.29s-.27.06-.36.08c-.23.35.54.38.74.11.14-.17.35-.2.34,0-.1.23-.47.35-.68.47-.32.06-.41.73-.65.95-.7.14-.95.12-1.64-.48-.25-.31-.45-.08-.26.17-.17,0-.83-.3-.43.38-.32.49.15.32.42.47.56.24,1.18.42,1.91.29Z"/>
        <path class="st2" d="M47.78,36.25l.3.65s.64.3.72.39c.36.28.3,1.05-.02.96-.53-.23-.84-1.03-1.21-1.52-.1-.08-.35-.89-.52-.68-2.18.52.39,1.12,0,1.98-.08.12-.32.73-.22.82.18.24.59.41.81.72.36.37.04.8-.4.45-.25-.2-.55.09-.29.36.02.05-.15.13-.18.15-.26.38.17.36.4.17.13-.07,0,.33.21.27.4-.09,1.01-.31,1.12-.97.25-.61-.33-.51-.47-1.04-.14-.22-.15-1.02.16-.73.29.39.68.61,1.03.26.55-1.22-.98-2.37-.79-3.69.44-.56.95.44,1.27-1.12-3.42.62-.22,3.16-1.91,2.56Z"/>
        <path class="st2" d="M46.12,37.57c-1.42-.2-.61.85-.65,1.58-.22.13-1.05-.23-.95-.53,0-.25-.24-.31-.31-.13-.04.08-.1.08-.18-.02-.15-.24-.37.08-.28.26.03.07,0,.15-.09.16-.23.1-.22.43.1.45.7.34,1.3.7,2.11.58h-.01c.88-.07.43-.25.39-.9-.15-.7.98-1.17-.13-1.44Z"/>
        <path class="st2" d="M28.82,52.48l-.52-.68c-.16.23-.39.46-.67.67l-1.13.82c-.29.21-.57.36-.84.44l.52.68c.16-.23.39-.46.67-.66l.37-.27.8,1.05-.37.27c-.29.21-.57.36-.84.44l.52.68c.16-.23.39-.46.67-.66l1.13-.82c.29-.21.57-.36.84-.44l-.52-.68c-.16.23-.39.46-.67.67l-.37.27-.8-1.05.37-.27c.29-.21.57-.36.84-.44Z"/>
        <path class="st2" d="M26.92,48.89c-.25-.21-.53-.35-.85-.4-.32-.06-.64-.02-.95.1-.47.17-.8.48-.98.94-.18.46-.18.92.01,1.4.11.31.29.57.55.78.25.21.54.34.86.4.32.06.62.03.92-.09.28-.1.53-.27.73-.51.2-.24.33-.52.38-.84.06-.33.02-.65-.11-.98-.12-.32-.3-.59-.54-.8ZM26.9,50.74c-.19.33-.46.56-.82.69-.31.12-.61.13-.89.01-.28-.11-.46-.31-.56-.57-.13-.32-.11-.65.07-1s.45-.58.8-.71c.31-.12.6-.12.88-.01.28.11.48.3.59.59.13.33.11.66-.08,1Z"/>
        <path class="st2" d="M26.11,46.78c-.15.04-.36.08-.62.12l-1.16.17,1.62-1.65c.18-.18.32-.29.42-.33l-.12-.81c-.32.12-.68.21-1.1.27l-1.19.17c-.26.04-.47.06-.62.06-.15,0-.32-.01-.51-.04l.13.89c.15-.07.31-.13.49-.18.17-.05.37-.09.61-.12l1.37-.2-1.69,1.72c-.14.14-.24.24-.3.29-.08.06-.16.11-.24.15l.15,1.01h.02c.11-.19.25-.36.41-.53l1.82-.27c.24-.04.45-.05.62-.06.18,0,.35,0,.51.04l-.13-.88c-.16.08-.32.14-.48.18Z"/>
        <path class="st2" d="M23.97,42.73l1.47.14c.37.04.7.12.97.24l.09-.91c-.3.07-.63.09-1,.05l-1.47-.14c-.37-.04-.7-.12-.97-.24l-.09.91c.3-.07.63-.09,1-.05Z"/>
        <path class="st2" d="M27.4,38.3c-.05-.31-.21-.54-.49-.68-.2-.09-.38-.12-.55-.07-.17.05-.4.18-.68.39-.22.16-.39.26-.53.3-.14.04-.25.04-.36-.01s-.17-.14-.19-.26,0-.26.07-.4c.11-.23.31-.41.59-.54h0s-.56-.3-.56-.3c-.2.17-.36.38-.49.63-.16.32-.21.63-.13.93.07.3.23.51.47.63.19.1.39.13.57.1.19-.03.41-.14.66-.33.25-.19.44-.3.55-.34.11-.04.22-.04.32.01.11.06.18.15.21.28.03.13,0,.26-.06.39-.07.14-.17.25-.29.33-.12.08-.3.16-.54.23v.02s.73.37.73.37c.2-.19.37-.43.51-.71.17-.34.23-.66.18-.98Z"/>
        <path class="st2" d="M27.45,33.66v-.44s0-.02,0-.03c-.23.03-.46.1-.67.22-.29.16-.51.38-.68.66-.16.28-.24.57-.24.89,0,.3.07.59.22.86.15.27.37.49.65.66.22.13.45.21.71.23v-.52c-.2-.06-.38-.19-.54-.37-.25-.29-.36-.63-.36-1.01,0-.34.09-.62.3-.84.17-.18.37-.29.59-.31Z"/>
        <path class="st2" d="M54.4,36.2l-1.22.67s-.08.04-.12.06v1.67l.29.52h.84s0,0,0,0c-.16-.14-.34-.33-.54-.58-.2-.25-.38-.49-.53-.74l1.66-.9c.31-.17.62-.26.91-.28l-.55-1.02c-.18.24-.42.44-.73.61Z"/>
        <path class="st2" d="M56.82,39.99s.06-.01.1-.02l-.27-.91h-.01c-.07.16-.2.34-.41.55l-1.1,1.14-.51.15c-.36.11-.69.15-.99.14l.26.88c.25-.18.55-.32.91-.42l.53-.16,1.57.37c.25.06.44.12.58.19h.01s-.24-.84-.24-.84c-.02.01-.04.03-.08.04-.13.04-.28.04-.46,0l-.89-.2.63-.65c.13-.13.25-.21.38-.25Z"/>
        <path class="st2" d="M57.41,45.6l.1-1.04c-.29.09-.61.12-.97.08l-1.41-.14c-.36-.04-.67-.13-.93-.27l-.1,1.1c.29-.09.61-.12.97-.08l.34.03c-.01.09-.02.16-.03.21-.04.46.01.84.17,1.13.16.29.39.46.71.49.29.03.54-.09.76-.36.22-.27.35-.65.39-1.16ZM56.8,46.13c-.14.16-.3.23-.5.21-.19-.02-.34-.12-.46-.31s-.18-.43-.18-.72l.96.1c.19.02.33.04.43.06-.04.29-.13.51-.27.67Z"/>
        <path class="st2" d="M56.4,50.58l.56-1.9c-.3.01-.63-.03-.99-.14l-1.41-.42c-.36-.11-.66-.25-.91-.42l-.53,1.81.58.47h.01c-.05-.43,0-.9.15-1.41l1.05.31c-.1.28-.22.51-.36.67l.47.51.31-1.05,1,.3c-.11.35-.27.62-.48.81l.54.47Z"/>
        <path class="st2" d="M54.58,53.16c.09,0,.18.01.26.03l.55-.85h-.01c-.2.06-.4.11-.62.14l-1.4-.91c-.18-.12-.34-.23-.46-.34-.12-.11-.23-.22-.32-.34l-.49.75c.16.04.31.09.44.15.13.06.29.16.5.29l.89.58-2.16.26c-.24.03-.41.03-.5,0l-.44.68c.29.1.6.26.92.47l.92.6c.2.13.35.24.46.33.1.09.21.21.32.35l.49-.75c-.15-.04-.3-.09-.45-.16-.14-.07-.31-.16-.49-.28l-1.06-.69,2.26-.27c.19-.02.32-.03.39-.03Z"/>
        <path class="st2" d="M50.48,57.47h0s.46.41.46.41c.21-.1.4-.24.56-.42.2-.24.3-.5.28-.78-.02-.28-.12-.51-.32-.68-.16-.14-.33-.21-.51-.23-.18-.02-.4.02-.66.11-.26.1-.45.15-.57.15-.11,0-.21-.02-.29-.1-.09-.08-.14-.18-.14-.3,0-.12.04-.23.13-.33.09-.1.19-.17.32-.22.13-.04.3-.06.54-.06h.01s-.61-.53-.61-.53c-.21.12-.41.28-.59.49-.22.25-.33.52-.34.81,0,.29.1.53.33.72.17.13.33.2.49.21.16,0,.39-.05.69-.16.22-.08.4-.12.53-.13.13,0,.24.03.32.11.08.07.13.17.13.28,0,.11-.04.22-.13.33-.14.17-.36.27-.63.32Z"/>
        <path class="st2" d="M47.76,59.87l1.59-.9c-.21-.19-.4-.43-.57-.73l-.67-1.18c-.17-.3-.28-.59-.33-.86l-1.51.85.08.69h.01c.24-.31.57-.59,1-.83l.49.88c-.25.12-.47.2-.67.22v.64s.87-.5.87-.5l.47.84c-.3.16-.58.24-.84.23l.06.66Z"/>
        <path class="st2" d="M27.34,56.32c-3.15-3.18-4.88-7.53-4.88-12.24s1.62-9.14,4.55-12.21c.17-.18.37-.37.6-.59v-.66h0c-.34.3-.66.61-.95.92-3.02,3.15-4.68,7.61-4.68,12.54s1.78,9.31,5.02,12.59c.65.66,1.44,1.33,2.21,1.89l.09.07.02-.11c.02-.09.02-.23.02-.34,0-.04,0-.08,0-.11v-.04s-.03-.02-.03-.02c-.72-.52-1.29-1.01-1.96-1.68Z"/>
        <path class="st2" d="M53.26,31.07c-.07-.07-.14-.13-.21-.2v.68c3.04,3.09,4.71,7.52,4.71,12.51s-1.69,9.1-4.76,12.25c-2.03,2.08-4.92,3.86-7.56,4.64l.03.14c.12-.02.29-.02.48-.03.2,0,.42-.02.65-.04,2.52-.77,4.48-2.03,6.75-4.36,3.16-3.24,4.9-7.71,4.9-12.59,0-5.2-1.77-9.81-4.99-13Z"/>
        <path class="st2" d="M29.87,24.23l-.52,1.07-.17.35.33.21,1,.64c.15.56.31,1.16.48,1.8-.3,0-1.51.89-1.86,1.13h.9c2.81-1.74,6.21-2.65,10.09-2.68,4-.04,7.46.87,10.31,2.68h.88c-.27-.19-1.76-1.07-1.86-1.12.17-.65.33-1.25.48-1.81l1-.64.33-.21-.17-.35-.52-1.07c1.54-5.37,2.04-5.67,2.82-5.79l.04-.15-2.85-.92-.05.19c.72.53.95,1.41.63,2.44-.76-.33-1.2-1.06-1.11-1.72-.01,0-.19-.05-.19-.05l-.95,3.21s.14.04.15.05c.38-.55,1.03-.86,1.79-.73-.64,1.28-1.24,1.99-2.62,1.74-1.49-.27-1.86-1.53-1.52-2.2.25-.49.51-.55.8-.45.29.1.46.52.21,1.13.56-.11,1.13-.86,1.2-1.52s-.5-1.11-.97-1.16c-.44-.04-.85.1-1.22.58.63-1.31.99-2.33.2-3.59-1.03.67-1.29,1.87-1.09,3.48-.44-1.42-1.64-1.5-2.16-.63-.52.86.13,1.89.49,2.24-.18-.67.09-1.18.69-1.05.6.13.61,1.4-.17,2.06-.78.65-1.96.55-2.73-.03-.71-.53-.97-1.12-1.12-2.3.98.09,1.73.68,1.83,1.41.02,0,.18,0,.18,0l.12-3.67s-.21,0-.22-.01c-.15.74-.95,1.37-1.96,1.39.07-1.13.71-2.01,1.54-2.15v-.21h-4.18v.21c.83.14,1.47,1.03,1.54,2.15-1.01-.02-1.81-.65-1.96-1.39-.02,0-.22.01-.22.01l.12,3.67s.16,0,.18,0c.1-.74.85-1.33,1.83-1.41-.15,1.17-.41,1.77-1.12,2.3-.77.58-1.95.68-2.73.03-.78-.65-.77-1.92-.17-2.06.6-.13.87.38.69,1.05.37-.35,1.02-1.37.49-2.24-.52-.86-1.72-.78-2.16.63.2-1.61-.07-2.82-1.09-3.48-.79,1.26-.43,2.29.2,3.59-.37-.47-.78-.62-1.22-.58-.47.05-1.03.5-.97,1.16s.64,1.41,1.2,1.52c-.25-.61-.08-1.03.21-1.13.29-.1.55-.04.8.45.34.67-.04,1.93-1.52,2.2-1.38.25-1.98-.46-2.62-1.74.76-.13,1.41.18,1.79.73.01,0,.15-.05.15-.05l-.95-3.21s-.17.05-.19.05c.08.65-.35,1.38-1.11,1.72-.33-1.03-.09-1.91.63-2.44l-.05-.19-2.85.92.04.15c.78.12,1.28.42,2.82,5.79ZM49.99,24.04l.71,1.45-1.34.86-1.3-1.61,1.94-.7ZM43.56,23.77c.12-.63.94-1.01,1.84-.83.9.17,1.52.83,1.4,1.46s-.94,1.01-1.84.83c-.9-.17-1.52-.83-1.4-1.46ZM40.22,22.09l2.07,1.48-2.07,1.48-2.07-1.48,2.07-1.48ZM35.03,22.93c.9-.17,1.72.2,1.84.83.12.63-.51,1.29-1.4,1.46-.9.17-1.72-.2-1.84-.83s.51-1.29,1.4-1.46ZM32.38,24.74l-1.3,1.61-1.34-.86.71-1.45,1.94.7Z"/>
        <path class="st2" d="M50.35,16.77l1.03.33c-1.63-3.48-4.62-6.09-8.21-7.02-.09.24-.17.5-.24.78,3.16.8,5.82,2.98,7.42,5.91Z"/>
        <path class="st2" d="M29.05,17.11l1.03-.33c1.6-2.93,4.27-5.11,7.42-5.91-.07-.28-.15-.54-.24-.78-3.6.94-6.58,3.55-8.21,7.02Z"/>
        <path class="st2" d="M47.99,11.48c.31,0,.57-.26.57-.57s-.25-.57-.57-.57-.57.26-.57.57.25.57.57.57Z"/>
        <path class="st2" d="M50.21,13.52c.31,0,.57-.26.57-.57s-.25-.57-.57-.57-.57.26-.57.57.25.57.57.57Z"/>
        <path class="st2" d="M51.41,15.41c0,.32.25.57.57.57s.57-.26.57-.57-.25-.57-.57-.57-.57.26-.57.57Z"/>
        <path class="st2" d="M50.59,14.13c0,.32.25.57.57.57s.57-.26.57-.57-.25-.57-.57-.57-.57.26-.57.57Z"/>
        <path class="st2" d="M46.72,10.66c.31,0,.57-.26.57-.57s-.25-.57-.57-.57-.57.26-.57.57.25.57.57.57Z"/>
        <path class="st2" d="M45.38,9.98c.31,0,.57-.26.57-.57s-.25-.57-.57-.57-.57.26-.57.57.25.57.57.57Z"/>
        <path class="st2" d="M52.1,16.76c0,.32.25.57.57.57s.57-.26.57-.57-.25-.57-.57-.57-.57.26-.57.57Z"/>
        <ellipse class="st2" cx="43.97" cy="8.89" rx=".57" ry=".57"/>
        <path class="st2" d="M49.15,12.44c.31,0,.57-.26.57-.57s-.25-.57-.57-.57-.57.26-.57.57.25.57.57.57Z"/>
        <path class="st2" d="M27.76,17.34c.31,0,.57-.26.57-.57s-.25-.57-.57-.57-.57.26-.57.57.25.57.57.57Z"/>
        <path class="st2" d="M31.28,12.44c.31,0,.57-.26.57-.57s-.25-.57-.57-.57-.57.26-.57.57.25.57.57.57Z"/>
        <path class="st2" d="M30.22,13.52c.31,0,.57-.26.57-.57s-.25-.57-.57-.57-.57.26-.57.57.25.57.57.57Z"/>
        <path class="st2" d="M29.27,14.7c.31,0,.57-.26.57-.57s-.25-.57-.57-.57-.57.26-.57.57.25.57.57.57Z"/>
        <path class="st2" d="M28.45,15.98c.31,0,.57-.26.57-.57s-.25-.57-.57-.57-.57.26-.57.57.25.57.57.57Z"/>
        <path class="st2" d="M33.71,10.66c.31,0,.57-.26.57-.57s-.25-.57-.57-.57-.57.26-.57.57.25.57.57.57Z"/>
        <path class="st2" d="M35.05,9.98c.31,0,.57-.26.57-.57s-.25-.57-.57-.57-.57.26-.57.57.25.57.57.57Z"/>
        <path class="st2" d="M36.47,9.46c.31,0,.57-.26.57-.57s-.25-.57-.57-.57-.57.26-.57.57.25.57.57.57Z"/>
        <path class="st2" d="M32.44,11.48c.31,0,.57-.26.57-.57s-.25-.57-.57-.57-.57.26-.57.57.25.57.57.57Z"/>
        <path class="st2" d="M41.19,15.32h.76c0-2.43.35-4.53.97-5.91.09-.19,0-.42-.19-.51-.05-.02-.1-.03-.16-.03-.14,0-.28.08-.34.22-.9,2-1.04,4.76-1.04,6.23Z"/>
        <path class="st2" d="M38.48,15.32h.76c0-1.47-.14-4.23-1.04-6.23-.06-.14-.2-.22-.34-.22-.05,0-.11.01-.16.03-.19.09-.27.32-.19.51.63,1.39.97,3.49.97,5.91Z"/>
        <path class="st2" d="M40.22,14.07c-.34,0-.62.28-.62.62s.28.62.62.62.62-.28.62-.62-.28-.62-.62-.62Z"/>
        <path class="st2" d="M40.22,12.5c-.34,0-.62.28-.62.62s.28.62.62.62.62-.28.62-.62-.28-.62-.62-.62Z"/>
        <ellipse class="st2" cx="40.22" cy="11.57" rx=".62" ry=".62"/>
        <path class="st2" d="M40.22,9.6c-.34,0-.62.28-.62.62,0,.17.07.33.18.44.13-.07.28-.11.44-.11s.3.04.44.11c.11-.11.18-.27.18-.44,0-.34-.28-.62-.62-.62Z"/>
        <path class="st2" d="M40.22,8.36c-.34,0-.62.28-.62.62,0,.14.05.27.13.37.15-.08.31-.14.49-.14s.34.05.49.14c.08-.1.13-.23.13-.37,0-.34-.28-.62-.62-.62Z"/>
        <path class="st2" d="M39.84,4.11c-.1.8-.51,1.41-1.02,1.51v.2h1s-.09.08-.12.12c-.85.23-1.47,1.01-1.47,1.94,0,.83.5,1.55,1.21,1.85-.19-.2-.31-.47-.31-.76,0-.61.49-1.1,1.09-1.1s1.09.49,1.09,1.1c0,.3-.12.57-.31.76.71-.31,1.21-1.02,1.21-1.85,0-.93-.62-1.71-1.47-1.94-.04-.05-.08-.09-.12-.12h1v-.2c-.51-.1-.92-.71-1.02-1.51.79.1,1.4.52,1.49,1.04h.2v-2.83h-.2c-.09.52-.7.94-1.49,1.04.1-.8.51-1.41,1.02-1.51v-.2h-2.79v.2c.51.1.92.71,1.02,1.51-.79-.1-1.4-.52-1.49-1.04h-.2v2.83h.2c.09-.52.7-.94,1.49-1.04Z"/>
      </g>
      <path class="st2" d="M42.54,45.08c-.24.68,0,1.59.64,1.97.73-.33,1.19-1.28.94-2.07.17-.15.39-.22.32-.46-.11-.28-.55-.07-.66-.39-.27-.38-.64-.07-.86.18-.17.02-.33-.06-.49.01-.16.29.28.47.1.76Z"/>
      <path class="st2" d="M42.46,46.75c-.04-.72-.88-1.19-.62-1.91.07-.13.04-.29-.09-.4q-.24.06-.43-.05c-.31-.16-.36.19-.33.41-.06.03-.12.06-.2.09.22.62.87,2.18,1.68,1.86Z"/>
      <path class="st2" d="M49.69,50.6c-1.35-.45-3.47,2.48-4.36,1.62-.22-.47-.89-.42-1.31-.29.51.36.78,1.17,1.55.9.87-.17,1.55-.87,2.3-1.19.02.25-.24.36-.34.6.51-.16.98-.31,1.35-.63-.06-1.42,1.96-.42.02.45.35,0,.59.16.82-.12.45-.4.47-.98-.03-1.33Z"/>
      <path class="st2" d="M49.35,52.33c-1.51-.19-1.28.84-2.02.6.13-.16.5-.26.38-.51-1.1.48-2.26.83-3.36,1.32-.56.59-.37,1.78-1.64,1.89-.05.62-.91,1.03-1.44.76-.21.2-.12.25-.09.44-.18.16-.43.54-.04.54.12-.03.22-.21.35-.15,0,.08-.02.16-.03.25.1,0,.24.03.28-.01.17-.22.42-.04.62-.21.65-.44,1.57-.84,1.52-1.74,1.14-.5,1.81-2.35,3.3-1.7.74.4.94-.8,1.6-.82.19.44.28.4.51.26.42.32.34-.18.51-.42.02-.23-.21-.49-.45-.49Z"/>
      <path class="st2" d="M40.85,49.2c.31.47.39,1.21.91,1.49.24,0,.61.22.75-.07-.15-.56-.84-.88-.74-1.52.03-.15-.02-.29-.15-.43-.27.08-.83-.53-.62.19-.17.06-.26.17-.15.33Z"/>
      <path class="st2" d="M44.3,48.38c-.14-.08-.31-.08-.46-.07-.25-.66-.71-.41-1.07-.02-.55-.22-.47.27-.18.54-.27.67-.08,1.66.63,1.95.75-.31.96-1.23.91-1.96.23-.04.42-.3.17-.45Z"/>
      <path class="st2" d="M40.69,53.62c-.11.29.17.45.28.68.31.49.77,1.69,1.49,1.06-.27-.52-.69-1-.89-1.55.24-.33.13-.76-.31-.49-.11-.23-.28-.27-.49-.21-.06.14-.09.28.07.4,0,0,0,.04,0,.07-.05.02-.1.03-.14.05Z"/>
      <path class="st2" d="M43.62,52.61c-.21-.45-.66-.49-.97-.11-.11.14-.27.09-.42.1-.3.14-.13.47.13.55-.15.51-.22,1.03-.02,1.53.71,1.69,1.77-.46,1.51-1.38.49-.4.35-.64-.24-.68Z"/>
      <path class="st2" d="M45.54,50.96c-.17,0-.21.23-.09.33.12.13.23-.01.37.03,0,.07,0,.14.01.2.72.04,1.82-.6,2.2-1.19-.15-.24-.3-.46-.45-.7-.39.13-.84.12-1.07.47.14.15.26.28.4.43-.27.15-.57.4-.86.16-.12-.11-.45-.06-.37.15.01.03,0,.07-.01.11-.05,0-.09.01-.13.02Z"/>
      <path class="st2" d="M46.63,53.88c-.4.1-.79.13-1.04.54.1.13.19.26.29.4-.19.49-.68.41-1.13.43.04.15.07.24.09.34-.19.1-.27.27-.23.52.05.02.11.04.17.06.13-.16.36-.32.41-.02.83-.27,1.57-.77,1.96-1.55-.24-.18-.44-.4-.54-.71Z"/>
      <path class="st2" d="M48.82,49.06c.88-.02,2.92-.98,1.44-1.78-.83-.14-1.66.27-2.46.45-3.22,1.28-1.33-.28-3.33-.11.67,1.7,2.38.82,3.65.43.04.19-.2.23-.17.42.43-.09.84-.17,1.24-.26.18-.84,1.7-.85,1,0-1.76.77-3.84.62-5.68,1.15-1.23,3.23-3.37,1.03-3.35,1.96-.48.05-.47.51.02.47.01.94,2.38-.15,2.82-.44.11-.23.2-.43.3-.65.72.35,1.23-.69,1.86-.87.62-.12,1.44-.73,1.97-.17.59.65,1.48-.34,2,.32-.2.51.06.28.15.6,0,.29.47.28.48,0,0-.13.01-.2.14-.26.26-.4-.3-.84-.49-1.18-.43-.42-1.15.38-1.59-.06Z"/>
      <path class="st2" d="M46.89,46.77c-.06-.05-.2,0-.21.04,0,.29-.3.21-.39.4.06.12.15.22.28.2.16-.01.15.19.3.2.71-.32,1.54-.24,2.14-.8-.22-.19-.28-.45-.33-.73-.41.03-.8-.03-1.16.17-.04.19.09.29.19.45-.29.12-.55.19-.82.06Z"/>
      <path class="st2" d="M51.07,45.72c-.23-.21-1.13.23-1.16-.22.67.15,1.97-.73,1.08-1.3-1.51-.35-3.16.38-4.69.55-.6.13-.3-.85-1.63-.58.85,1.78,2.7.52,4.13.51,0,.16-.27.15-.2.35.42-.13,1.12.09,1.36-.32.13-.51,1.2-.39.88.2-.8.51-1.99.28-2.93.38-1.15.1-2.41.12-3.48.53-.21.67-.51,1.35-1.28,1.51-.54-.52-1.32.09-1.9-.44-.19.04-.23.15-.3.29-.28.11-.38.27-.09.46.14.05.09.22.16.3.76.05,1.52-.15,2.28-.24.57,0,.55-.5.97-.57,1.01.05,1.64-.84,2.59-.98.76-.22,1.79-.5,2.46.04.16.18.4.22.64.17.32-.06.71-.13.87.25-.05.06-.11.11-.18.19.03.07.07.15.11.23.16-.01.18.12.24.22.09.14.29.14.32,0,.04-.18.22-.09.28-.24.03-.47-.07-1.04-.54-1.28Z"/>
      <g>
        <path class="st2" d="M39.24,46.95c-.42-.04-.88-.13-1.29-.18-.38.17-.43.82,0,.96.22.06.69.12.69.1.52.14,1.22-.53.6-.89Z"/>
        <path class="st2" d="M32.51,48.76c.87,1.14,1.73,2.3,2.58,3.44.13.02.37.07.37.07l-3.08-4.2s-.06.42.13.69Z"/>
        <path class="st2" d="M36.32,52.19l-3.78-5.15s-.08.24-.11.35c.28.38,3.62,4.93,3.62,4.93l.27-.13Z"/>
        <path class="st2" d="M33.8,53.31c.74.33,3.67,1.27,2.52-.5-3.86.08-5.78-4-3.6-7.07,1.29.61,5.88-1.55,5.47.7.24.26.3.28.85.28,1.36-3.02-3.2-2.17-4.83-1.83-1.46.41-2.77-1.73-4.07-.58-.52.45-.2,1.46.5,1.5.62.03.8-.82.26-1.09,1.2-.39.6,1.53.16,2.01-1.36-.73-1.62,1.48-.25.92.06.4.07.79-.03,1.17-1.48-.34-1.11,1.8.01.95.32.31.46.78.49,1.24-.11.04-.22.06-.31.11-1.12.48.22,1.85.69.74.44.27.94.56,1.39.82-1.13,1.34.86,1.95.77.63Z"/>
        <path class="st2" d="M35.92,54.23c-.06-.02-.13-.04-.21-.07-.11.28-.27.79-.03.97,0,0,1.24.55,1.24.55l1.62-1.17.52-6.44-.47.03c-.13.01-1.1,7.43-1.55,6.99.1-.49,1.25-6.99,1.25-6.99,0,0-.32-.05-.47-.07-.03.15-.06.34-.06.34l-1.74-2.35-.23.11,1.87,2.52-.13.44c-.17-.12-1.97-2.68-2.15-2.92l-.37-.03,2.43,3.25-.14.43-2.72-3.67h-.35s2.95,3.98,2.95,3.98l-.17.57-3.23-4.52h-.44s3.58,4.86,3.58,4.86l-.14.44-3.95-5.3-.07.4s3.67,4.96,3.9,5.29c-.2.6-.05.66.2,1.16.14.56-.26,1.43-.92,1.22Z"/>
      </g>
      <g>
        <path class="st2" d="M38.77,41.01c-.29.14-.68.27-.9-.08.5-.2,1.12-.15,1.47-.63.26-.31.23-.94-.26-1.1-1.27-.35-2.61.29-3.89.4-2.4.65-.69-.52-2.6-.51.68,1.95,2.73.7,4.16.56-.1.23-.34.32-.43.52.5-.1,1.17.09,1.54-.3.19-.54,1.47-.6,1.17.13-1.2,1.17-4.96.07-6.64.83-.25.76-.69,1.27-1.43,1.48-.6-.37-.87.05-1.47-.11-.17-.18-.34-.39-.59-.19,0,.08,0,.17,0,.27-.28-.08-.6.31-.3.49.12,0,.25-.14.38,0-.01.07-.02.13-.04.2.79.34,1.66-.05,2.45-.26.31-.1.49-.41.83-.4.81.06,1.28-.62,1.97-.82.86-.16,1.74-.3,2.62-.28,1.01,1.38,1.19.21,2.1.68-.03.13-.05.26-.08.41.09.03.17.06.24.08-.09.34.42.54.49.11,0-.05-.01-.12.06-.13.54-.29-.29-1.72-.86-1.35Z"/>
        <path class="st2" d="M32.44,39.69c-.03-.11-.05-.2-.08-.3-.18,0-.34-.01-.5-.02-.36-.46-.57-.47-1-.06q-.29-.11-.49.15c.07.15.16.26.32.33-.44.81-.31,1.55.21,2.23.99.04,1.39-1.31,1.23-2.13.1-.07.2-.14.3-.21Z"/>
        <path class="st2" d="M36.79,41.61c-.12-.45-.94-.08-1.28-.07-.04.23.16.33.2.5-.26.17-.55.18-.83.22-.15-.15-.21-.42-.47-.34-.15.04-.06.19-.17.25q-.29-.02-.33.27c.09.05.18.11.27.16-.22,1.02,2.57-.04,2.98-.34-.13-.23-.31-.39-.36-.65Z"/>
        <path class="st2" d="M29.91,40.65c-.32-.33-.42-.77-.1-1.12-.16-.15-.38-.03-.53-.25-.2-.23-.32.04-.37.28-.57.08-.24.27-.11.57.19.52.86,1.78,1.51,1.54-.03-.36-.12-.77-.4-1.02Z"/>
      </g>
      <g>
        <path class="st2" d="M38.82,36.93c-.29.14-.68.27-.9-.08.5-.2,1.12-.15,1.47-.63.26-.31.23-.94-.26-1.1-1.27-.35-2.61.29-3.89.4-2.4.65-.69-.52-2.6-.51.68,1.95,2.73.7,4.16.56-.1.23-.34.32-.43.52.5-.1,1.17.09,1.54-.3.19-.54,1.47-.6,1.17.13-1.2,1.17-4.96.07-6.64.83-.25.76-.69,1.27-1.43,1.48-.6-.37-.87.05-1.47-.11-.17-.18-.34-.39-.6-.19,0,.08,0,.17,0,.27-.28-.08-.6.31-.3.49.12,0,.25-.14.38,0-.01.07-.02.13-.04.2.79.34,1.66-.05,2.45-.26.31-.1.49-.41.83-.4.81.06,1.28-.62,1.97-.82.86-.16,1.74-.3,2.62-.28,1.01,1.38,1.19.21,2.1.68-.03.13-.05.26-.08.41.09.03.17.06.24.08-.09.34.42.54.49.11,0-.05-.01-.12.06-.13.54-.29-.29-1.72-.86-1.35Z"/>
        <path class="st2" d="M32.49,35.61c-.03-.11-.05-.2-.08-.3-.18,0-.34-.01-.5-.02-.36-.46-.57-.47-1-.06q-.29-.11-.49.15c.07.15.16.26.32.33-.44.81-.31,1.55.21,2.23.99.04,1.39-1.31,1.23-2.13.1-.07.2-.14.3-.21Z"/>
        <path class="st2" d="M36.84,37.54c-.12-.45-.94-.08-1.28-.07-.04.23.16.33.2.5-.26.17-.55.18-.83.22-.15-.15-.21-.42-.47-.34-.15.04-.06.19-.17.25q-.29-.02-.33.27c.09.05.18.11.27.16-.22,1.02,2.57-.04,2.98-.34-.13-.23-.31-.39-.36-.65Z"/>
        <path class="st2" d="M29.96,36.57c-.32-.33-.42-.77-.1-1.12-.16-.15-.38-.03-.53-.25-.2-.23-.32.04-.37.28-.57.08-.24.27-.11.57.19.52.86,1.78,1.51,1.54-.03-.36-.12-.77-.4-1.02Z"/>
      </g>
      <g>
        <path class="st2" d="M38.77,32.73c-.29.14-.68.27-.9-.08.5-.2,1.12-.15,1.47-.63.26-.31.23-.94-.26-1.1-1.27-.35-2.61.29-3.89.4-2.4.65-.69-.52-2.6-.51.68,1.95,2.73.7,4.16.56-.1.23-.34.32-.43.52.5-.1,1.17.09,1.54-.3.19-.54,1.47-.6,1.17.13-1.2,1.17-4.96.07-6.64.83-.25.76-.69,1.27-1.43,1.48-.6-.37-.87.05-1.47-.11-.17-.18-.34-.39-.59-.19,0,.08,0,.17,0,.27-.28-.08-.6.31-.3.49.12,0,.25-.14.38,0-.01.07-.02.13-.04.2.79.34,1.66-.05,2.45-.26.31-.1.49-.41.83-.4.81.06,1.28-.62,1.97-.82.86-.16,1.74-.3,2.62-.28,1.01,1.38,1.19.21,2.1.68-.03.13-.05.26-.08.41.09.03.17.06.24.08-.09.34.42.54.49.11,0-.05-.01-.12.06-.13.54-.29-.29-1.72-.86-1.35Z"/>
        <path class="st2" d="M32.44,31.42c-.03-.11-.05-.2-.08-.3-.18,0-.34-.01-.5-.02-.36-.46-.57-.47-1-.06q-.29-.11-.49.15c.07.15.16.26.32.33-.44.81-.31,1.55.21,2.23.99.04,1.39-1.31,1.23-2.13.1-.07.2-.14.3-.21Z"/>
        <path class="st2" d="M36.79,33.34c-.12-.45-.94-.08-1.28-.07-.04.23.16.33.2.5-.26.17-.55.18-.83.22-.15-.15-.21-.42-.47-.34-.15.04-.06.19-.17.25q-.29-.02-.33.27c.09.05.18.11.27.16-.22,1.02,2.57-.04,2.98-.34-.13-.23-.31-.39-.36-.65Z"/>
        <path class="st2" d="M29.91,32.37c-.32-.33-.42-.77-.1-1.12-.16-.15-.38-.03-.53-.25-.2-.23-.32.04-.37.28-.57.08-.24.27-.11.57.19.52.86,1.78,1.51,1.54-.03-.36-.12-.77-.4-1.02Z"/>
      </g>
    </g>
  </g>
  <g id="Name">
    <g>
      <path class="st2" d="M23.38,90.88h12.13c10.89,0,16.98,5.49,16.98,16.83s-5.2,18.51-16.98,18.51h-12.13v-35.34ZM28.08,122.26h7.82c3.22,0,11.88-.89,11.88-13.91,0-8.42-3.12-13.51-11.78-13.51h-7.92v27.42Z"/>
      <path class="st2" d="M61.07,96.03h-4.21v-5.15h4.21v5.15ZM56.87,100.63h4.21v25.59h-4.21v-25.59Z"/>
      <path class="st2" d="M68.96,118.16c.15,3.76,3.46,4.95,6.88,4.95,2.62,0,6.19-.59,6.19-3.81,0-6.58-16.73-2.13-16.73-11.98,0-5.15,5.05-7.28,9.55-7.28,5.74,0,10.1,1.78,10.49,8.02h-4.21c-.25-3.27-3.22-4.31-5.94-4.31-2.52,0-5.44.69-5.44,3.27,0,2.97,4.45,3.56,8.37,4.46,4.21.94,8.37,2.38,8.37,7.28,0,6.14-5.69,8.07-10.89,8.07-5.74,0-10.59-2.33-10.84-8.66h4.21Z"/>
      <path class="st2" d="M107.48,108.85c-.64-3.22-2.82-5.1-6.34-5.1-6.09,0-7.97,4.85-7.97,10,0,4.75,2.13,9.36,7.47,9.36,4.11,0,6.48-2.33,7.03-6.24h4.31c-.94,6.29-4.8,9.95-11.29,9.95-7.82,0-11.98-5.4-11.98-13.07s3.96-13.71,12.08-13.71c5.84,0,10.4,2.72,11.04,8.81h-4.36Z"/>
      <path class="st2" d="M115.75,90.88h4.21v35.34h-4.21v-35.34Z"/>
      <path class="st2" d="M136.27,100.04c8.12,0,12.42,5.89,12.42,13.41s-4.31,13.36-12.42,13.36-12.42-5.89-12.42-13.36,4.31-13.41,12.42-13.41ZM136.27,123.11c4.41,0,7.97-3.46,7.97-9.65s-3.56-9.7-7.97-9.7-7.97,3.51-7.97,9.7,3.56,9.65,7.97,9.65Z"/>
      <path class="st2" d="M155.11,118.16c.15,3.76,3.47,4.95,6.88,4.95,2.62,0,6.19-.59,6.19-3.81,0-6.58-16.73-2.13-16.73-11.98,0-5.15,5.05-7.28,9.55-7.28,5.74,0,10.1,1.78,10.49,8.02h-4.21c-.25-3.27-3.22-4.31-5.94-4.31-2.52,0-5.45.69-5.45,3.27,0,2.97,4.46,3.56,8.37,4.46,4.21.94,8.37,2.38,8.37,7.28,0,6.14-5.69,8.07-10.89,8.07-5.74,0-10.59-2.33-10.84-8.66h4.21Z"/>
      <path class="st2" d="M197.28,126.22h-3.96v-4.06h-.1c-1.78,3.17-4.6,4.65-8.32,4.65-6.73,0-8.81-3.86-8.81-9.36v-16.83h4.21v17.32c0,3.17,1.98,5.15,5.2,5.15,5.1,0,7.57-3.42,7.57-8.02v-14.45h4.21v25.59Z"/>
      <path class="st2" d="M202.32,100.63h3.96v5.4h.1c2.03-4.16,4.85-6.14,9.41-5.99v4.45c-6.78,0-9.26,3.81-9.26,10.35v11.38h-4.21v-25.59Z"/>
      <path class="st2" d="M239.41,118.11c-1.14,5.69-5.15,8.71-10.94,8.71-8.17,0-12.03-5.69-12.28-13.46,0-7.72,5.05-13.31,12.03-13.31,9.06,0,11.83,8.46,11.58,14.65h-19.16c-.15,4.46,2.38,8.42,7.97,8.42,3.51,0,5.89-1.63,6.63-5h4.16ZM235.36,110.98c-.25-4.01-3.17-7.23-7.38-7.23s-7.08,3.27-7.33,7.23h14.7Z"/>
      <path class="st2" d="M276.44,121.82c-2.13,3.32-6.14,5-10,5-9.55,0-11.04-6.78-11.04-9.65,0-5.49,3.76-8.32,8.27-10.69-1.98-2.77-3.91-4.75-3.91-8.32,0-3.81,2.82-7.28,7.97-7.28,4.41,0,8.56,2.43,8.56,7.23,0,4.26-3.22,7.18-6.63,9.16l6.39,7.77c.64-1.78,1.04-3.61,1.14-5.5h4.01c-.4,4.26-.89,5.5-2.38,8.71l6.88,7.97h-5.49l-3.76-4.41ZM266,109.15c-3.32,1.83-6.14,3.81-6.14,7.97,0,3.56,3.32,5.99,6.73,5.99,3.22,0,5.79-1.63,7.52-4.21l-8.12-9.75ZM272.08,98.36c0-2.03-1.53-3.76-4.06-3.76-1.98,0-4.06,1.19-4.06,3.76,0,2.13,1.88,4.21,3.42,6.14,2.03-1.34,4.7-3.07,4.7-6.14Z"/>
      <path class="st2" d="M23.38,144.13h12.82c3.07,0,7.28,0,9.36,1.29,2.33,1.39,4.16,3.86,4.16,7.38,0,3.76-1.93,6.58-5.25,7.92v.1c4.36.94,6.73,4.16,6.73,8.51,0,5.15-3.76,10.15-10.74,10.15h-17.08v-35.34ZM28.08,159.33h9.4c5.35,0,7.52-1.88,7.52-5.64,0-4.95-3.42-5.59-7.52-5.59h-9.4v11.24ZM28.08,175.51h11.78c4.11,0,6.63-2.43,6.63-6.34,0-4.6-3.71-5.89-7.67-5.89h-10.74v12.23Z"/>
      <path class="st2" d="M77.97,179.38c-.74.45-1.78.69-3.02.69-2.18,0-3.56-1.19-3.56-3.96-2.33,2.77-5.44,3.96-9.01,3.96-4.65,0-8.46-2.03-8.46-7.18,0-5.79,4.31-7.08,8.66-7.87,4.6-.94,8.61-.54,8.61-3.76,0-3.71-3.07-4.26-5.69-4.26-3.56,0-6.19,1.09-6.39,4.85h-4.21c.25-6.34,5.1-8.56,10.84-8.56,4.6,0,9.6,1.04,9.6,7.03v13.17c0,1.98,0,2.87,1.34,2.87.4,0,.84-.1,1.29-.25v3.27ZM71.14,166.26c-3.27,2.43-12.77.05-12.77,6.34,0,2.77,2.38,3.76,4.95,3.76,5.54,0,7.82-3.42,7.82-5.79v-4.31Z"/>
      <path class="st2" d="M80.82,153.88h3.96v5.4h.1c2.03-4.16,4.85-6.14,9.4-5.99v4.46c-6.78,0-9.26,3.81-9.26,10.35v11.38h-4.21v-25.59Z"/>
      <path class="st2" d="M96.54,153.88h3.96v5.4h.1c2.03-4.16,4.85-6.14,9.4-5.99v4.46c-6.78,0-9.26,3.81-9.26,10.35v11.38h-4.21v-25.59Z"/>
      <path class="st2" d="M116.65,149.28h-4.21v-5.15h4.21v5.15ZM112.44,153.88h4.21v25.59h-4.21v-25.59Z"/>
      <path class="st2" d="M121.8,153.88h3.96v4.06h.1c1.78-3.17,4.6-4.65,8.32-4.65,6.73,0,8.81,3.86,8.81,9.36v16.83h-4.21v-17.33c0-3.17-1.98-5.15-5.2-5.15-5.1,0-7.57,3.42-7.57,8.02v14.45h-4.21v-25.59Z"/>
      <path class="st2" d="M170.23,177.3c0,8.37-3.76,12.57-11.88,12.57-4.8,0-10.35-1.98-10.59-7.52h4.21c.15,3.02,3.91,4.16,6.63,4.16,5.49,0,7.67-3.96,7.67-9.7v-1.68h-.1c-1.44,3.12-4.7,4.65-7.97,4.65-7.62,0-11.43-5.99-11.43-12.97,0-6.04,2.92-13.51,11.83-13.51,3.22,0,6.09,1.44,7.62,4.26h.05v-3.66h3.96v23.41ZM166.08,166.16c0-4.5-1.98-9.16-7.28-9.16s-7.57,4.41-7.57,9.31c0,4.6,1.68,9.75,7.23,9.75s7.62-5.1,7.62-9.9Z"/>
      <path class="st2" d="M210.48,154.48c-.54-5.1-3.86-7.23-8.76-7.23-4.01,0-7.92,1.44-7.92,6.04,0,8.71,22.62,2.57,22.62,16.48,0,7.52-7.38,10.54-13.81,10.54-7.92,0-14.6-3.91-14.6-12.47h4.46c0,5.94,4.95,8.51,10.3,8.51,4.26,0,8.96-1.34,8.96-6.44,0-9.7-22.62-3.32-22.62-16.29,0-7.13,6.34-10.35,12.82-10.35,7.23,0,12.77,3.42,13.02,11.19h-4.46Z"/>
      <path class="st2" d="M242.19,171.36c-1.14,5.69-5.15,8.71-10.94,8.71-8.17,0-12.03-5.69-12.28-13.46,0-7.72,5.05-13.32,12.03-13.32,9.06,0,11.83,8.46,11.58,14.65h-19.16c-.15,4.46,2.38,8.42,7.97,8.42,3.51,0,5.89-1.63,6.63-5h4.16ZM238.13,164.23c-.25-4.01-3.17-7.23-7.38-7.23s-7.08,3.27-7.33,7.23h14.7Z"/>
      <path class="st2" d="M245.97,153.88h3.96v5.4h.1c2.03-4.16,4.85-6.14,9.41-5.99v4.46c-6.78,0-9.26,3.81-9.26,10.35v11.38h-4.21v-25.59Z"/>
      <path class="st2" d="M274.61,179.47h-4.5l-9.5-25.59h4.7l7.18,21.33h.1l6.98-21.33h4.41l-9.36,25.59Z"/>
      <path class="st2" d="M290.96,149.28h-4.21v-5.15h4.21v5.15ZM286.75,153.88h4.21v25.59h-4.21v-25.59Z"/>
      <path class="st2" d="M313.68,162.1c-.64-3.22-2.82-5.1-6.34-5.1-6.09,0-7.97,4.85-7.97,10,0,4.75,2.13,9.36,7.47,9.36,4.11,0,6.48-2.33,7.03-6.24h4.31c-.94,6.29-4.8,9.95-11.29,9.95-7.82,0-11.98-5.4-11.98-13.07s3.96-13.71,12.08-13.71c5.84,0,10.4,2.72,11.04,8.81h-4.36Z"/>
      <path class="st2" d="M343.71,171.36c-1.14,5.69-5.15,8.71-10.94,8.71-8.17,0-12.03-5.69-12.28-13.46,0-7.72,5.05-13.32,12.03-13.32,9.06,0,11.83,8.46,11.58,14.65h-19.16c-.15,4.46,2.38,8.42,7.97,8.42,3.51,0,5.89-1.63,6.63-5h4.16ZM339.66,164.23c-.25-4.01-3.17-7.23-7.38-7.23s-7.08,3.27-7.33,7.23h14.7Z"/>
    </g>
  </g>
</svg>