<svg width="946" height="103" viewBox="0 0 946 103" fill="none" xmlns="http://www.w3.org/2000/svg">
<rect width="5.3825" height="103" fill="#7F3F98"/>
<path d="M53.5001 8.13151V10.4468C54.7845 10.5032 55.702 10.7291 56.1913 10.842C55.9466 9.48677 54.9068 8.47032 53.5001 8.13151Z" fill="black"/>
<path d="M50.7358 6.08791C50.7358 7.01099 50.4811 7.6044 50.1415 8C50.1415 8 50.7358 7.86813 51.5 7.86813C52.0094 7.86813 52.7736 8 52.8585 8C52.5189 7.6044 52.2642 7.01099 52.2642 6.08791C54.8962 6.08791 55.4906 7.01099 55.4906 7.8022H56V5.49451V3.18681H55.4906C55.4906 3.97802 54.8113 4.9011 52.2642 4.9011C52.2642 2.85714 53.4528 2.3956 54.4717 2.3956V2H51.5H48.5283V2.3956C49.5472 2.3956 50.7358 2.92308 50.7358 4.9011C48.1038 4.9011 47.5094 3.97802 47.5094 3.18681H47V5.49451V7.8022H47.5094C47.5094 7.01099 48.1038 6.08791 50.7358 6.08791Z" fill="black"/>
<path d="M49.6912 8C48.3456 8.33882 47.3058 9.41173 47 10.7105C47.4893 10.5976 48.4068 10.3717 49.6912 10.3152V8Z" fill="black"/>
<path fill-rule="evenodd" clip-rule="evenodd" d="M55.167 84.0266C54.4424 84.0266 53.8214 83.4011 53.8214 82.6713C53.8214 81.9416 54.3907 81.3682 55.167 81.316C55.8915 81.316 56.5126 81.9416 56.5126 82.6713C56.5126 83.4011 55.8915 84.0266 55.167 84.0266ZM55.1668 81.9937C54.8049 81.9937 54.4947 82.3065 54.4947 82.6714C54.4947 83.0884 54.7532 83.349 55.1668 83.349C55.5286 83.349 55.8388 83.0362 55.8388 82.6714C55.8388 82.3065 55.5286 81.9937 55.1668 81.9937Z" fill="black"/>
<path fill-rule="evenodd" clip-rule="evenodd" d="M50.4562 57.6967C50.4562 56.7377 49.7362 56 48.8002 56H48.5122H39.44C38.648 56 38 56.6639 38 57.4754C38 58.0656 38.432 58.5082 39.008 58.5082C39.584 58.5082 40.016 58.0656 40.016 57.4016C40.232 57.623 40.448 57.7705 40.7361 57.918C40.592 58.5082 40.448 59.3197 40.376 60.2787C40.232 60.0574 40.016 59.9836 39.8 59.9836C39.44 59.9836 39.08 60.2787 39.08 60.7213C39.08 61.0902 39.368 61.459 39.8 61.459C40.016 61.459 40.232 61.3115 40.376 61.1639C40.376 61.6803 40.376 62.1967 40.448 62.7869C40.304 62.7131 40.16 62.6393 40.016 62.6393C39.656 62.6393 39.296 62.9344 39.296 63.377C39.296 63.7459 39.584 64.1148 40.016 64.1148C40.232 64.1148 40.52 63.9672 40.592 63.7459C40.592 63.8197 40.592 63.8934 40.6641 63.9672C40.8081 64.4098 40.9521 64.8525 41.0961 65.2213C41.0241 65.1475 40.8801 65.1475 40.7361 65.1475C40.376 65.1475 40.016 65.4426 40.016 65.8852C40.016 66.2541 40.304 66.623 40.7361 66.623C41.0961 66.623 41.3841 66.3279 41.4561 66.0328C41.6721 66.4754 41.9601 66.918 42.3201 67.3607H42.1761C41.8161 67.3607 41.4561 67.6557 41.4561 68.0984C41.4561 68.541 41.7441 68.8361 42.1761 68.8361C42.5361 68.8361 42.8961 68.541 42.8961 68.0984V68.0246C43.9761 69.1311 45.3441 70.0902 47.0002 70.7541L46.7122 72.9672C46.7122 72.9672 47.3602 73.2623 48.3682 73.5574C49.3762 73.8525 50.3122 74 50.3122 74L50.4562 57.6967ZM41.9544 58.5818C41.9544 58.5818 42.0264 58.5818 42.0984 58.6555L47.2105 69.2785C40.8743 66.3277 41.5224 61.0162 41.9544 58.5818ZM42.6777 58.8034L47.3578 68.4674L47.5738 67.2133L43.5417 58.8772C43.2537 58.8772 42.9657 58.8772 42.6777 58.8034ZM47.6482 66.3278L44.0481 58.8032C44.3361 58.8032 44.5522 58.7294 44.7682 58.6557L47.7922 64.9999L47.6482 66.3278ZM45.2021 58.582L47.9381 64.1886L48.0821 62.8607L45.8501 58.2869C45.6341 58.4345 45.4181 58.5082 45.2021 58.582ZM48.2205 62.0491L46.2787 58.0655C46.4945 57.918 46.7102 57.7704 46.8541 57.6229L48.3643 60.7213L48.2205 62.0491ZM48.5111 59.9834L48.7268 58.3605C48.7988 57.7703 48.2953 57.2539 47.72 57.3277C47.5762 57.3277 47.4323 57.3277 47.2885 57.4015L48.5111 59.9834Z" fill="black"/>
<path d="M42.9686 14.0718C42.9686 13.3513 43.5965 12.7208 44.3142 12.7208C45.0319 12.7208 45.6598 13.3513 45.6598 14.0718C45.6598 14.8824 45.0319 15.4227 44.3142 15.4227C43.5965 15.5128 42.9686 14.8824 42.9686 14.0718Z" fill="black"/>
<path d="M28 22.649C28 21.8384 28.628 21.298 29.3456 21.298C30.0633 21.298 30.6912 21.9285 30.6912 22.649C30.6912 23.3695 30.0633 24 29.3456 24C28.628 24.09 28 23.4596 28 22.649Z" fill="black"/>
<path d="M27 16.3553C27 15.6325 27.628 15 28.3456 15C29.153 15 29.6912 15.6325 29.6912 16.3553C29.6912 17.0781 29.0633 17.7105 28.3456 17.7105C27.628 17.7105 27 17.0781 27 16.3553Z" fill="black"/>
<path d="M28 13.351C28 12.6305 28.628 12 29.3456 12C30.153 12 30.6912 12.6305 30.6912 13.351C30.6912 14.0715 30.0633 14.7019 29.3456 14.7019C28.628 14.792 28 14.1616 28 13.351Z" fill="black"/>
<path d="M30.7277 11.351C30.7277 10.6305 31.3557 10 32.0734 10C32.791 10 33.419 10.6305 33.419 11.351C33.419 12.1616 32.791 12.7019 32.0734 12.7019C31.3557 12.792 30.7277 12.1616 30.7277 11.351Z" fill="black"/>
<path d="M34 11.351C34 10.6305 34.628 10 35.3456 10C36.153 10 36.6912 10.6305 36.6912 11.351C36.6912 12.0715 36.0633 12.7019 35.3456 12.7019C34.628 12.792 34 12.1616 34 11.351Z" fill="black"/>
<path d="M37.1543 11.649C37.1543 10.9285 37.7822 10.2981 38.4999 10.2981C39.3073 10.2981 39.8455 10.9285 39.8455 11.649C39.8455 12.3696 39.2175 13 38.4999 13C37.7822 13.0901 37.1543 12.4596 37.1543 11.649Z" fill="black"/>
<path d="M39.9998 12.8552C39.9998 12.1324 40.6278 11.4999 41.3454 11.4999C42.1528 11.4999 42.6911 12.1324 42.6911 12.8552C42.6911 13.6683 42.0631 14.2104 41.3454 14.2104C40.6278 14.2104 39.9998 13.578 39.9998 12.8552Z" fill="black"/>
<path d="M75.0002 23C75.0002 22.1894 74.3723 21.649 73.6546 21.649C72.937 21.649 72.309 22.2794 72.309 23C72.309 23.7205 72.937 24.3509 73.6546 24.3509C74.3723 24.441 75.0002 23.8105 75.0002 23Z" fill="black"/>
<path d="M72.0922 11.4174C72.0922 10.6968 71.4642 10.0664 70.7466 10.0664C69.9392 10.0664 69.4009 10.6968 69.4009 11.4174C69.4009 12.2279 70.0289 12.7683 70.7466 12.7683C71.4642 12.8584 72.0922 12.2279 72.0922 11.4174Z" fill="black"/>
<path d="M61.8941 31.1713C61.8941 30.4538 61.2609 29.816 60.5485 29.816C59.8361 29.816 59.2029 30.4538 59.2029 31.1713C59.2029 31.8888 59.8361 32.5266 60.5485 32.5266C61.2609 32.5266 61.8941 31.8888 61.8941 31.1713Z" fill="black"/>
<path fill-rule="evenodd" clip-rule="evenodd" d="M52 54.2632V38H66V54.2632H52ZM52.4064 53.842H65.5925L65.5111 38.501H59.4878H57.5343H52.4064V53.842Z" fill="black"/>
<path fill-rule="evenodd" clip-rule="evenodd" d="M53 39H53.7949H57.2926H59.5979H63.9701H64.765V39.8235V52.1765V53H63.9701H53.7949H53V52.1765V39ZM63.9696 39.8218V39.4101H53.7945V39.8218H53.397V52.1748H53.7945V52.5865H63.9696V52.1748H64.3671V39.8218H63.9696Z" fill="black"/>
<path d="M63.0003 43.4355L62.4132 44.0641C62.4132 44.0641 62.3398 44.0641 62.3398 44.1426L61.2388 45.2426C60.8718 45.5568 60.7984 46.1068 61.092 46.4996L61.7526 47.4424C61.826 47.521 61.826 47.5995 61.826 47.7567C61.826 47.8352 61.7526 47.9924 61.6792 47.9924C61.6058 48.0709 61.5324 48.0709 61.3856 48.0709C61.3122 48.0709 61.1654 47.9924 61.1654 47.9138C61.1654 47.9138 60.5048 46.971 60.2112 46.4996V45.164L61.7526 43.5927V42.2571L61.2388 41.7071L61.8994 41H59.1837L58.5231 41.7071V42.4928C58.5965 42.4142 58.7433 42.4142 58.8167 42.4142C59.1103 42.4142 59.4039 42.7285 59.4039 43.0427C59.4039 43.357 59.1103 43.6712 58.8167 43.6712C58.7433 43.6712 58.5965 43.6712 58.5231 43.5927V44.5355H57.5689L56.468 42.8856C56.6147 42.7285 56.6881 42.4928 56.6881 42.2571C56.6881 41.7857 56.3212 41.4714 55.9542 41.4714C55.8074 41.4714 55.6606 41.55 55.5138 41.6285V42.0999V42.8856V42.9641H55.5872L56.6147 44.5355L57.1285 45.3211H58.0827H58.3763L57.7157 46.0282H56.3946C56.3212 45.714 56.0276 45.5568 55.734 45.5568C55.4404 45.5568 55.1468 45.7925 55.0734 46.0282C55.0734 46.1068 55 46.1854 55 46.3425C55 46.4996 55.0734 46.7353 55.1468 46.8139H56.3212H58.1561L58.6699 47.5995H57.4955H56.6147L57.4221 48.778L57.8625 49.4066H56.8349C56.7615 49.0923 56.468 48.8566 56.101 48.8566C55.8074 48.8566 55.5138 49.0923 55.367 49.4066V49.6423C55.367 49.878 55.4404 50.0351 55.5872 50.1922H56.6881H58.4497H59.3305L58.8167 49.4066L58.3763 48.778H59.5507L59.991 49.4066L60.5048 50.1922H62.0462H62.2664V51.0564H62.0462C61.9728 50.7422 61.6792 50.5065 61.3122 50.5065C60.9452 50.5065 60.725 50.7422 60.5782 51.0564V51.2921C60.5782 51.5278 60.6516 51.685 60.7984 51.8421H63.0003V50.1137V49.328H62.2664H61.5324L60.7984 48.3066C60.9452 48.4638 61.092 48.6209 61.3122 48.6209C61.5324 48.6209 61.7526 48.6209 61.9728 48.4638C62.193 48.3066 62.2664 48.0709 62.3398 47.8352C62.3398 47.5995 62.3398 47.3638 62.193 47.1281L61.5324 46.1854C61.3856 46.0282 61.459 45.714 61.6058 45.6354C61.6058 45.6354 61.7526 45.4783 61.8994 45.3211C62.193 45.5568 62.56 45.5568 62.8536 45.3211C63.0003 45.164 63.0737 45.0069 63.0737 44.7712L63.0003 43.4355Z" fill="black"/>
<path d="M50.1542 31.3553L51.4999 30L52.8455 31.3553L51.4999 32.7105L50.1542 31.3553Z" fill="black"/>
<path d="M41.7126 31.1713C41.7126 30.4538 42.3459 29.816 43.0583 29.816C43.7707 29.816 44.4039 30.4538 44.4039 31.1713C44.4039 31.8888 43.7707 32.5266 43.0583 32.5266C42.3459 32.5266 41.7126 31.8888 41.7126 31.1713Z" fill="black"/>
<path fill-rule="evenodd" clip-rule="evenodd" d="M64.751 63.9482V64.3717C64.751 64.3717 65.3828 64.3717 65.4504 64.3097C65.4419 64.5797 65.2887 65.2404 65.062 65.9811C64.9843 66.3199 64.8288 66.9128 64.5955 67.4211H64.2068H62.9628C62.885 67.3363 62.8073 67.0822 62.8073 66.9128C62.8073 66.4893 63.1183 66.0658 63.5848 66.0658C63.818 66.0658 64.0513 66.1505 64.2068 66.3199C64.2456 66.2352 64.2845 66.1293 64.3234 66.0234C64.3623 65.9176 64.4011 65.8117 64.44 65.727C64.44 65.6846 64.4595 65.6211 64.4789 65.5576C64.4983 65.494 64.5178 65.4305 64.5178 65.3882H61.8743V65.5576L62.1853 66.3199L61.4855 66.6587L60.397 67.2516H59.464H58.6088C58.531 67.1669 58.4533 66.9128 58.4533 66.7434C58.4533 66.3199 58.7643 65.8964 59.2308 65.8964C59.6195 65.8964 59.9305 66.1505 60.0083 66.574L60.9413 66.1505V64.9646L53.7883 67.4211H53.0885H52.1555C52.0778 67.3363 52 67.0822 52 66.9128C52 66.4893 52.311 66.0658 52.7775 66.0658C53.1663 66.0658 53.4773 66.3199 53.555 66.6587L54.8768 66.2352L52 63.6941V63.44V62.1694C52.1555 62.0847 52.3888 62 52.5443 62C52.933 62 53.3218 62.3388 53.3218 62.847C53.3218 63.1012 53.244 63.3553 53.0885 63.5247L54.9545 65.134V63.2706L53.7883 62H58.3755L57.2093 63.2706V64.287H61.5633H63.818C64.0513 64.287 64.2068 64.1176 64.2068 63.8635C64.2068 63.6094 64.0513 63.44 63.818 63.44H60.3193H59.153H58.1423L59.153 62.3388C59.3085 62.1694 59.464 62.0847 59.6973 62.0847C60.086 62.0847 60.4748 62.5082 60.4748 62.9317H63.818C64.3623 62.9317 64.751 63.3553 64.751 63.9482ZM65.4508 64.287C65.4584 64.2954 65.4578 64.3029 65.4504 64.3097C65.4506 64.3018 65.4508 64.2942 65.4508 64.287ZM55.3447 63.6091L56.1213 64.4561L56.8979 63.6091H55.3447Z" fill="black"/>
<path fill-rule="evenodd" clip-rule="evenodd" d="M65.1348 57.9182C65.1348 58.085 65.1348 58.1684 65.0562 58.3352L66 58.2518V58.8356V59.2526V61.3377H65.2135H63.9551C63.8764 61.1709 63.7978 60.9206 63.7978 60.7538C63.7978 60.3368 64.1124 59.9198 64.5843 59.9198C64.8202 59.9198 65.0562 60.0866 65.2135 60.2534V59.336H61.9888L62.4607 59.8364L63.1685 60.5036L62.3034 60.8372L60.4944 61.4211H59.9438H58.6854C58.6067 61.2543 58.5281 61.004 58.5281 60.8372C58.5281 60.4202 58.8427 60.0032 59.3146 60.0032C59.7079 60.0032 60.0225 60.2534 60.1011 60.587L61.0449 60.2534V59.0024L53.809 61.4211H53.4157H52.1573C52.0787 61.2543 52 61.004 52 60.8372C52 60.4202 52.3146 60.0032 52.7865 60.0032C53.1798 60.0032 53.4944 60.2534 53.573 60.587L54.9101 60.17L52.0787 57.7514V57.5012V56.2502C52.236 56.1668 52.4719 56.0834 52.6292 56.0834C53.0225 56.0834 53.4157 56.417 53.4157 56.9174C53.4157 57.0842 53.3371 57.3344 53.1798 57.5012L55.0674 59.0858V57.251L53.8876 56H58.5281L57.3483 57.251V58.2518H61.8315H64.2697C64.5056 58.2518 64.6629 58.085 64.6629 57.8348C64.6629 57.5846 64.5056 57.4178 64.2697 57.4178H60.4944H59.3146H58.2921L59.3146 56.3336C59.4719 56.1668 59.6292 56.0834 59.8652 56.0834C60.2584 56.0834 60.6517 56.5004 60.6517 56.9174H64.191C64.7416 56.9174 65.1348 57.3344 65.1348 57.9182ZM55.4626 57.5845L56.2482 58.4185L57.0338 57.5845H55.4626Z" fill="black"/>
<path fill-rule="evenodd" clip-rule="evenodd" d="M60.393 68.5589H61.8162C62.3697 68.5589 62.765 68.8942 62.765 69.2295C62.765 69.6207 62.3697 69.9002 61.8162 69.9002H61.2628V70.0678V70.6267L61.0256 70.7944C60.7884 70.962 60.4721 71.1297 60.2349 71.2415C60.0372 71.3253 59.8593 71.4091 59.6814 71.4929C59.5035 71.5768 59.3256 71.6606 59.128 71.7444C58.9699 71.6886 58.8117 71.6327 58.7327 71.5209C58.7327 71.4929 58.7129 71.451 58.6931 71.4091C58.6734 71.3672 58.6536 71.3253 58.6536 71.2973V71.0738C58.7327 70.962 58.8908 70.7944 59.0489 70.7385C59.2861 70.6267 59.6024 70.6267 59.8396 70.7385C59.9031 70.7085 59.961 70.6826 60.0147 70.6585C60.1615 70.5927 60.2773 70.5409 60.393 70.459L59.6024 69.9561C59.2071 70.2355 58.7327 70.459 58.1792 70.6826V71.5209V72.1915C57.8629 72.3033 57.5467 72.4151 57.1514 72.5269C57.1514 72.5269 56.8351 72.5827 56.5188 72.6945C56.2026 72.8063 55.8863 72.8622 55.8863 72.8622C55.8072 72.8063 55.7282 72.7504 55.6491 72.6386C55.491 72.3592 55.7282 72.0239 56.1235 71.9121C56.3607 71.8562 56.677 71.9121 56.9142 72.0239L57.3885 71.8562L56.5188 71.2973C56.3607 71.3253 56.2223 71.3672 56.084 71.4091C55.9456 71.451 55.8072 71.4929 55.6491 71.5209L53.5143 73.3093C53.3035 73.3279 53.119 73.3465 52.955 73.3631C52.6271 73.3962 52.3811 73.4211 52.1702 73.4211C52.0912 73.3093 52.0121 73.1975 52.0121 73.0857C51.933 72.8063 52.2493 72.5269 52.7237 72.471C52.8818 72.471 53.119 72.471 53.2772 72.5827L55.1747 70.962L55.0166 71.0738L52.0121 69.1177V68.7824V68.1677C52.1702 68.1118 52.4074 68.0559 52.5656 68.0559C52.9609 68.0559 53.3562 68.2794 53.3562 68.6148C53.3562 68.7824 53.1981 68.9501 53.04 69.0619L54.9375 70.2914V68.8942L53.7515 68.0559H58.4164L57.2304 68.8942V69.4531H59.6024H61.8953C62.1325 69.4531 62.2906 69.3413 62.2906 69.1736C62.2906 69.006 62.1325 68.8942 61.8953 68.8942H60.314H59.0489H58.0211L59.0489 68.1677C59.2071 68.0559 59.3652 68 59.6024 68C59.9977 68 60.393 68.2794 60.393 68.5589ZM55.1777 69.0618L55.9675 69.6184L56.7572 69.0618H55.1777Z" fill="black"/>
<path fill-rule="evenodd" clip-rule="evenodd" d="M48.6917 50.9182C48.6917 51.085 48.6917 51.1684 48.6152 51.3352H49.4562V52.4194V54.4211H48.6917H47.4684C47.3919 54.2543 47.3155 54.0875 47.3155 53.8372C47.3155 53.4202 47.6213 53.0032 48.08 53.0032C48.3094 53.0032 48.5388 53.17 48.6917 53.3368V52.4194H45.557L46.0157 52.9198L46.7038 53.587L45.8628 53.8372L44.1043 54.4211H43.722H42.4988C42.4223 54.2543 42.3458 54.0875 42.3458 53.8372C42.3458 53.4202 42.6517 53.0032 43.1104 53.0032C43.4927 53.0032 43.7985 53.2534 43.875 53.587L44.7924 53.2534V52.0024L37.7585 54.4211H37.3762H36.1529C36.0765 54.2543 36 54.0875 36 53.8372C36 53.4202 36.3058 53.0032 36.7646 53.0032C37.1468 53.0032 37.4527 53.2534 37.5291 53.587L38.8289 53.17L36.0765 50.7514V50.5012V49.2502C36.2294 49.1668 36.3823 49.0834 36.6116 49.0834C36.9939 49.0834 37.3762 49.417 37.3762 49.9174C37.3762 50.0842 37.2998 50.3344 37.1468 50.5012L38.9818 52.0858V50.251L37.8349 49H42.3458L41.199 50.251V51.2518H45.4805H47.8507C48.08 51.2518 48.2329 51.085 48.2329 50.8348C48.2329 50.5846 48.08 50.4178 47.8507 50.4178H44.1808H42.9575H42.04L43.0339 49.3336C43.1869 49.1668 43.3398 49.0834 43.5691 49.0834C43.9514 49.0834 44.3337 49.5004 44.3337 49.9174H47.7742C48.3094 49.9174 48.6917 50.3344 48.6917 50.9182ZM39.2056 50.5845L39.9692 51.4185L40.7329 50.5845H39.2056Z" fill="black"/>
<path fill-rule="evenodd" clip-rule="evenodd" d="M48.6787 45.1684C48.696 45.0908 48.696 45.0201 48.696 44.9182C48.696 44.3344 48.3159 43.9174 47.7837 43.9174H44.3626C44.3626 43.5004 43.9825 43.0834 43.6024 43.0834C43.3743 43.0834 43.2223 43.1668 43.0702 43.3336L42.0819 44.4178H42.9942H44.1346H47.7837C48.0118 44.4178 48.1638 44.5846 48.1638 44.8348C48.1638 45.085 48.0118 45.2518 47.7837 45.2518H45.427H41.1696V44.251L42.31 43H37.8246L38.9649 44.251V46.0858L37.1404 44.5012C37.2924 44.3344 37.3684 44.0842 37.3684 43.9174C37.3684 43.417 36.9883 43.0834 36.6082 43.0834C36.3801 43.0834 36.2281 43.1668 36.076 43.2502V44.5012V44.7514L38.8129 47.17L37.5205 47.587C37.4445 47.2534 37.1404 47.0032 36.7602 47.0032C36.3041 47.0032 36 47.4202 36 47.8372C36 48.004 36.076 48.2543 36.152 48.4211H37.3684H37.7486L44.7428 46.0024V47.2534L43.8305 47.587C43.7544 47.2534 43.4503 47.0032 43.0702 47.0032C42.6141 47.0032 42.31 47.4202 42.31 47.8372C42.31 48.004 42.386 48.2543 42.462 48.4211H43.7544H44.1346L45.8831 47.8372L46.7194 47.5036L46.0352 46.8364L45.579 46.336H48.696V47.2534C48.544 47.0866 48.3159 46.9198 48.0878 46.9198C47.6317 46.9198 47.3276 47.3368 47.3276 47.7538C47.3276 47.9206 47.4036 48.1709 47.4796 48.3377H48.696H49.4562V46.2526V45.1684H48.6787ZM39.2724 44.5848L40.0317 45.4188L40.7911 44.5848H39.2724Z" fill="black"/>
<path d="M72.2762 54.3028C73.0526 54.0755 73.3853 53.2798 73.1635 52.5978C73.0526 52.2568 72.8307 51.9158 72.498 51.8022C72.1653 51.5748 71.8325 51.5748 71.4998 51.6885C71.1671 51.8022 70.8344 52.0295 70.7234 52.3705C70.5016 52.7115 70.5016 53.0525 70.6125 53.3935C70.8344 54.0755 71.6107 54.4165 72.2762 54.3028Z" fill="black"/>
<path d="M70 56.2698L70.1313 57.2164L72.7569 56.7001C72.8225 56.7001 75.3825 58.4211 75.3825 58.4211L75.2512 57.2164C75.2512 57.2164 73.5446 56.0977 73.4133 56.0117C73.5446 55.8396 74.923 54.2047 74.923 54.2047L74.7917 53L74.7261 53.086C74.7261 53.086 72.6912 55.5815 72.6256 55.6675C72.6256 55.7536 70 56.2698 70 56.2698Z" fill="black"/>
<path d="M71 59.4447C71 59.7543 71.1076 60.0639 71.4306 60.3735C71.6459 60.5799 71.9688 60.7863 72.3994 60.6831C72.7224 60.6831 73.0453 60.5799 73.3683 60.2703C73.5836 60.0639 73.6912 59.7543 73.6912 59.3415C73.6912 59.032 73.5836 58.7224 73.2606 58.4128C73.0453 58.2064 72.7224 58 72.2918 58C71.5382 58.1032 71 58.7224 71 59.4447Z" fill="black"/>
<path fill-rule="evenodd" clip-rule="evenodd" d="M69.8655 61.5697L69.9328 61L75.248 61.5697L75.0461 62.7091C74.9116 63.4342 74.2388 63.7967 73.2968 63.6932C72.8259 63.6414 72.4894 63.486 72.2876 63.2788C72.0858 63.0717 72.0185 62.8127 72.0185 62.5538V62.2948C72.0185 62.2948 72.0858 61.8805 72.0858 61.8287C71.9512 61.7769 69.8655 61.5697 69.8655 61.5697ZM74.2999 62.6056C74.2999 62.6056 74.3671 62.0876 74.3671 62.0359C74.2999 61.9841 73.023 61.8805 72.8886 61.9323C72.8886 62.0359 72.8214 62.4502 72.8214 62.4502V62.5538C72.8214 62.8127 73.0902 63.0199 73.4934 63.0717C73.695 63.1235 74.2327 63.1235 74.2999 62.6056Z" fill="black"/>
<path d="M69.7471 64L69 66.4127L69.6322 66.6667C69.6322 66.6667 70.1494 64.9524 70.1494 64.8889C70.2069 64.9524 71.2414 65.2698 71.3563 65.3333C71.2989 65.4603 70.8391 66.9841 70.8391 66.9841L71.4713 67.2381C71.4713 67.2381 71.931 65.6508 71.9885 65.5873C72.046 65.6508 73.0805 65.9683 73.1379 66.0317C73.0805 66.1587 72.6207 67.746 72.6207 67.746L73.2529 68L74 65.5873L69.7471 64Z" fill="black"/>
<path d="M68.7586 67L68.4922 67.4565C68.4922 67.4565 70.837 69.0543 71.0502 69.2255C70.7837 69.2255 67.2665 69.5679 67.2665 69.5679L67 70.0244L70.5173 72.4211L70.837 71.9075C70.837 71.9075 68.4922 70.3097 68.279 70.1385C68.5455 70.1385 72.116 69.7391 72.116 69.7391L72.3825 69.2825L68.7586 67Z" fill="black"/>
<path d="M66.8913 72.6333C66.3116 72.7 65.8043 72.8333 65.442 72.5C65.2971 72.3667 65.1522 71.9667 65.5145 71.6333C65.8768 71.3 66.3841 71.2333 66.9638 71.3H67.1812L66.3116 70.5C65.7319 70.5667 65.2971 70.7 64.9348 71.1C64.6449 71.3667 64.5 71.7 64.5 72.0333C64.5 72.4333 64.6449 72.7667 65.0072 73.1C65.7319 73.7667 66.529 73.6333 67.2536 73.5C67.7609 73.3667 68.1957 73.3 68.558 73.5667C68.6304 73.7 68.7029 73.7667 68.7029 73.9C68.7029 74.1 68.6304 74.2333 68.413 74.4333C68.1232 74.7 67.7609 74.8333 67.2536 74.7667H67.1087L67.9058 75.5C68.3406 75.4333 68.7029 75.3 68.9928 75.0333C69.3551 74.7 69.5 74.3667 69.5 74.0333C69.5 73.7 69.3551 73.3 68.9928 73.0333C68.3406 72.3667 67.5435 72.5 66.8913 72.6333Z" fill="black"/>
<path d="M63.4545 73.0788L61.1173 74.4341L61.5423 75.0501C61.5423 75.0501 63.1712 74.0645 63.3128 74.0029C63.3836 74.0645 64.0919 75.0501 64.1627 75.1117C64.0919 75.1733 62.5338 76.0974 62.5338 76.0974L62.9587 76.7134C62.9587 76.7134 64.5168 75.7894 64.5876 75.7894C64.6584 75.851 65.3667 76.775 65.4375 76.8982C65.3667 76.9598 63.7377 77.8838 63.7377 77.8838L64.1627 78.4999L66.4998 77.1446L63.4545 73.0788Z" fill="black"/>
<path d="M40.7041 76.9871C40.6462 76.9318 38.9678 75.9361 38.9099 75.8808C38.9678 75.8255 39.9517 74.3319 39.9517 74.3319L39.3729 74V74.0553L37 77.6509L37.5788 77.9828C37.5788 77.9828 38.5627 76.4893 38.6205 76.4339C38.6784 76.4893 40.3568 77.485 40.4147 77.5403C40.3568 77.5956 39.3729 79.0892 39.3729 79.0892L39.9517 79.4211L42.3825 75.7701L41.8037 75.4382C41.7459 75.4382 40.762 76.8765 40.7041 76.9871Z" fill="black"/>
<path fill-rule="evenodd" clip-rule="evenodd" d="M37.0484 71.3704C37.4608 71.8528 37.7358 72.473 37.667 73.1622C37.5983 73.9202 37.2546 74.6094 36.7734 75.1607C35.6049 76.1944 33.9552 76.1255 32.9929 75.0229C32.5117 74.4715 32.2368 73.8513 32.3055 73.1622C32.3055 72.473 32.6492 71.7839 33.2678 71.2326C34.2989 70.3367 35.8798 70.061 37.0484 71.3704ZM36.1548 74.5404C36.5672 74.1958 36.8421 73.6445 36.8421 73.1621C36.8421 72.6797 36.7047 72.2663 36.4297 71.8528C36.1548 71.5082 35.7423 71.3015 35.2612 71.3015C34.78 71.3015 34.2301 71.5082 33.8177 71.8528C33.4053 72.2663 33.1303 72.7487 33.1303 73.2311C33.0616 73.6445 33.1991 74.1269 33.5427 74.4715C34.2301 75.2985 35.3299 75.2985 36.1548 74.5404Z" fill="black"/>
<path d="M34.1628 68.9462C34.1628 68.9462 31.5265 70.2426 31.3068 70.3604C31.4166 70.1247 33.1193 66.5303 33.1193 66.5303L32.8996 66H32.8446L29 67.9445L29.2746 68.5338C29.2746 68.5338 31.9109 67.2374 32.1306 67.1196C32.0208 67.3553 30.3182 70.9497 30.3182 70.9497L30.5379 71.4211L34.3825 69.4765L34.1628 68.9462Z" fill="black"/>
<path d="M32.8718 63L32.8077 63.0968L28 64.8387L28.1923 66L33 64.1613L32.8718 63Z" fill="black"/>
<path d="M31.1263 60.2616C30.7974 60.0429 30.4684 59.9335 30.1395 60.0429C29.8106 60.0429 29.4816 60.2616 29.2623 60.5897C29.043 60.9178 28.9334 61.2459 29.043 61.574C29.043 61.9021 29.2623 62.2302 29.5913 62.4489C29.9202 62.6676 30.2491 62.777 30.5781 62.6676C31.3456 62.5583 31.7842 61.9021 31.6746 61.1365C31.5649 60.6991 31.3456 60.4804 31.1263 60.2616Z" fill="black"/>
<path d="M29.9297 58.4843C30.2704 58.0326 30.5429 57.6454 31.0198 57.6454C31.1561 57.6454 31.2924 57.7099 31.4286 57.839C31.5649 57.968 31.633 58.1617 31.633 58.3553C31.633 58.7425 31.3605 59.1297 30.8836 59.4524L30.7473 59.5815H31.9056C32.2462 59.1942 32.3825 58.807 32.3825 58.2907C32.3825 57.968 32.2462 57.6454 32.0418 57.3872C31.7693 57.1291 31.3605 57 30.9517 57C29.9978 57 29.589 57.5808 29.1803 58.1617C28.9077 58.5489 28.7033 58.9361 28.2945 58.9361C28.1583 58.9361 28.022 58.8716 27.9539 58.807C27.8176 58.6779 27.7495 58.4843 27.7495 58.2907C27.7495 57.968 27.9539 57.5808 28.2945 57.3227L28.4308 57.2581H27.4088C27.1363 57.5808 27 57.9035 27 58.2907C27 58.7425 27.1363 59.0652 27.4088 59.3233C27.6813 59.5815 28.022 59.7105 28.4308 59.7105C29.1121 59.5815 29.5209 59.0006 29.9297 58.4843Z" fill="black"/>
<path fill-rule="evenodd" clip-rule="evenodd" d="M32.2405 56.035C31.6347 56.3918 30.8943 56.5346 30.1539 56.3205C29.4135 56.1777 28.8077 55.6781 28.3366 54.9644C28.1346 54.6075 28 54.1793 28 53.6797C28 53.4655 28 53.2514 28.0673 53.0373C28.4039 51.5385 29.8174 50.682 31.2982 51.1102C32.0386 51.253 32.7117 51.7526 33.0483 52.3949C33.3848 52.9659 33.4521 53.6797 33.3175 54.3934C33.1829 55.1071 32.779 55.6781 32.2405 56.035ZM29.6837 52.1098C29.3471 52.3953 29.0779 52.7521 28.9433 53.2518C28.674 54.3223 29.2798 55.2502 30.2895 55.4643C31.3664 55.7498 32.3088 55.1788 32.578 54.1796C32.6453 53.68 32.578 53.2518 32.3761 52.8235C32.1742 52.3953 31.703 52.0384 31.1645 51.8957C30.626 51.7529 30.0875 51.8243 29.6837 52.1098Z" fill="black"/>
<path fill-rule="evenodd" clip-rule="evenodd" d="M69.9646 40.3038C75.0551 45.2753 77.825 51.8553 77.825 58.874C77.825 63.48 76.5523 67.9398 74.1568 71.8878C73.3333 73.4231 72.2853 74.8122 71.0875 76.1282C71.7612 78.0291 71.6115 79.4913 70.5634 80.4418C70.1891 80.7342 69.8148 80.9535 69.3657 81.0998L56.1902 87.2411V92.2127C56.1902 94.9178 53.7946 97.1842 50.8002 97.1842C47.8058 97.1842 45.4102 94.9909 45.4102 92.2127V84.7553H45.3353C44.8862 85.2671 44.0627 85.5596 43.3141 85.2671C42.6404 85.0478 42.1912 84.3898 42.1163 83.6587C41.6672 83.4393 41.3677 83.3662 41.3677 83.3662C36.2772 81.5384 32.0101 78.2484 28.866 73.9349C25.6469 69.4751 24 64.2842 24 58.874C24 51.8553 26.7699 45.2753 31.8604 40.3038C32.4593 39.7189 33.133 39.134 33.7319 38.6222V37.5987C32.6839 37.5256 31.8604 36.6482 31.8604 35.6247C31.8604 34.528 32.7587 33.6507 33.8816 33.6507H33.9565L32.0101 32.7733L32.7587 31.1649L29.8391 24.5118L31.1118 24L34.1062 30.7993L35.7532 31.5304L34.7051 33.7238H43.3141H58.5857H67.1947L66.1467 31.5304L67.7187 30.7993L70.7132 24L71.9858 24.5118L69.0662 31.1649L69.8148 32.7733L67.8685 33.6507H68.0182C69.1411 33.6507 70.0394 34.528 70.0394 35.6247C70.0394 36.6482 69.1411 37.5256 68.093 37.5987V38.6222L68.2951 38.7974C68.8878 39.3113 69.4262 39.778 69.9646 40.3038ZM67.7175 35.6981L63.8248 34.8939V36.5023L67.7175 35.6981ZM51.3253 74.8126V55.0726H66.7466V58.8013C66.7466 62.4569 66.0729 64.9426 65.0997 66.7704C64.2762 68.0864 63.303 69.3293 62.1052 70.426L61.8807 70.6453C59.0359 73.2773 55.218 74.7395 51.3253 74.8126ZM55.2943 77.6636C55.4441 76.8593 55.6686 76.1282 55.9681 75.4702C54.396 75.9089 52.6742 76.2013 50.9524 76.1282L50.9529 76.1284L50.953 76.1284L50.953 76.1285L50.9531 76.1285L50.9532 76.1285L50.9532 76.1285L50.9533 76.1286L50.9533 76.1286L50.9534 76.1286L50.9535 76.1286L50.9535 76.1286L50.9536 76.1287L50.9537 76.1287L50.9537 76.1287L50.9538 76.1287C52.3757 76.6403 53.7976 77.152 55.2943 77.6636ZM51.3253 54.4148V37.6724H64.3511H66.7466V50.8323V54.4148H51.3253ZM60.6052 35.6981L56.7124 34.8939V36.5023L60.6052 35.6981ZM49.5277 34.8939L53.4205 35.6981L49.5277 36.5023V34.8939ZM46.1578 35.6981L42.2651 34.8939V36.5023L46.1578 35.6981ZM35.2251 34.8939L39.1178 35.6981L35.2251 36.5023V34.8939ZM35.2251 37.6724V50.8323V54.4148H50.6464V37.6724H37.6206H35.2251ZM35.7803 54.6055H51.2016V74.3455C48.0575 74.2724 44.9882 73.3219 42.368 71.5672C42.3306 71.5307 42.2745 71.4941 42.2183 71.4576C42.1622 71.421 42.106 71.3845 42.0686 71.3479L41.9937 71.2748C41.9563 71.2382 41.9189 71.22 41.8814 71.2017C41.844 71.1834 41.8066 71.1651 41.7691 71.1286C41.6943 71.0555 41.6194 70.9824 41.5446 70.9824L41.4697 70.9092C39.8228 69.6664 38.4004 68.0579 37.3524 66.2301C36.3792 64.4024 35.7803 61.9166 35.7803 58.3341V54.6055ZM41.9664 82.1965C42.1162 82.2697 42.3407 82.3428 42.5653 82.4159L43.838 79.2721L43.3139 79.0528C43.0145 78.9065 42.8648 78.541 43.0145 78.2485C43.1642 77.9561 43.5385 77.8099 43.838 77.9561L44.362 78.1754L45.4849 75.4703C44.8415 75.201 44.2544 74.9317 43.7412 74.6962L43.7411 74.6962L43.7406 74.6959L43.7406 74.6959L43.7392 74.6953C43.4172 74.5476 43.1243 74.4132 42.8648 74.3005C42.3407 74.0812 41.8916 73.7888 41.4424 73.4963L41.3675 73.4232C41.3301 73.3867 41.2927 73.3684 41.2553 73.3501C41.2178 73.3318 41.1804 73.3135 41.143 73.277C41.1055 73.2404 41.0681 73.2222 41.0307 73.2039C40.9932 73.1856 40.9558 73.1673 40.9184 73.1308C40.881 73.1308 40.8622 73.1125 40.8435 73.0942C40.8248 73.0759 40.8061 73.0577 40.7687 73.0577C40.1698 72.619 39.6457 72.1803 39.1217 71.7417C37.9239 70.645 36.6513 69.4021 35.6781 67.5743C34.1809 65.0154 33.2826 62.091 33.2826 58.9472C33.2826 57.4119 33.5072 55.9497 33.8815 54.5606V51.6361L28.5663 49.2234L28.9406 48.4923V48.4192L33.8815 50.6126V48.1999C33.1476 47.6743 32.222 47.0863 31.6477 46.7215C31.3432 46.5281 31.1376 46.3974 31.1116 46.3721C31.0368 46.5183 30.1384 47.8343 30.1384 47.8343L29.3898 47.3957L31.7854 43.8863V43.8132L32.534 44.2519C32.534 44.2519 31.6356 45.641 31.5608 45.7141C31.5905 45.7431 31.7966 45.8755 32.0999 46.0703C32.5618 46.3669 33.2489 46.8082 33.8815 47.2494V40.4501C33.582 40.6694 33.2826 40.9619 32.9831 41.2543C28.1172 46.0066 25.497 52.221 25.497 58.8741C25.497 64.065 27.144 69.0365 30.1384 73.2039C33.058 77.2981 37.1753 80.4419 41.9664 82.1965ZM54.9915 92.2861C54.9915 92.7979 54.8417 93.3097 54.6172 93.7483C54.3926 94.1139 54.0183 94.3332 53.644 94.3332C53.1199 94.3332 52.6708 94.0408 52.5211 93.529C52.5211 93.4925 52.5023 93.4194 52.4743 93.3098L52.4743 93.3097C52.4462 93.2 52.4088 93.0538 52.3713 92.871C52.5211 92.9441 52.6708 92.9441 52.8205 92.9441C53.4942 92.9441 54.0183 92.4323 54.0183 91.8474C54.0183 91.1894 53.4942 90.7508 52.8205 90.7508C52.4462 90.7508 52.1467 90.897 51.9222 91.1163C51.5479 89.6541 51.1736 88.0457 51.1736 88.0457H50.949H50.6495C50.6495 88.0457 50.2752 89.6541 49.9009 91.1163C49.6763 90.897 49.3769 90.7508 49.0775 90.7508C48.4037 90.7508 47.9545 91.2626 47.9545 91.8474C47.9545 92.5054 48.4786 92.9441 49.0775 92.9441C49.2272 92.9441 49.3769 92.9441 49.5266 92.871C49.4518 93.1634 49.3769 93.4559 49.3769 93.529C49.2272 93.9677 48.778 94.3332 48.254 94.3332C47.8048 94.3332 47.4305 94.1139 47.2059 93.7483C46.9813 93.3097 46.9065 92.7979 46.9065 92.2861V85.2674C49.302 85.9986 52.2965 86.8759 55.0663 87.4608L54.9915 92.2861ZM43.6898 82.7819C46.5345 83.7324 51.4005 85.2677 55.5927 86.1451C55.6716 86.1065 56.1251 85.8952 56.8228 85.5701L56.8231 85.57L56.824 85.5696L56.8265 85.5684L56.8272 85.5681C58.7777 84.6593 62.6296 82.8647 65.5492 81.4659C63.3033 81.2466 60.3089 80.5886 56.5658 79.4919C53.0474 78.3953 49.3792 77.0062 46.5345 75.8364C46.3299 76.236 46.0904 76.8404 45.8159 77.533L45.8158 77.5331C45.6886 77.8542 45.5538 78.1942 45.4116 78.5415L46.2351 78.9071C46.6094 78.4684 47.0585 78.2491 47.6574 78.2491C48.7055 78.2491 49.6038 79.1264 49.6038 80.1499C49.6038 81.1735 48.7055 82.0508 47.6574 82.0508C46.6094 82.0508 45.711 81.1735 45.711 80.1499V80.0037L44.9624 79.7113C44.7327 80.2562 44.5173 80.787 44.3227 81.2669L44.3226 81.267C44.0733 81.8816 43.8579 82.4124 43.6898 82.7819ZM69.7404 79.4186C69.3661 79.7842 68.4678 80.1497 66.5963 80.1497C67.8689 79.2724 68.9918 78.3219 70.0399 77.2253C70.3393 78.2488 70.2645 78.9799 69.7404 79.4186ZM56.939 78.2489C60.158 79.1993 62.6284 79.7842 64.4251 80.0035C68.0184 77.8102 71.0128 74.8126 73.1089 71.084C75.3547 67.3553 76.4777 63.0418 76.4777 58.7282C76.4777 52.0751 73.7827 45.7875 68.9916 41.1084C68.8419 40.9622 68.6921 40.8343 68.5424 40.7063C68.3927 40.5784 68.243 40.4504 68.0932 40.3042V45.7875L71.0877 45.1295H71.1625L71.462 45.6413L68.0932 50.3204V50.686L73.1089 48.712H73.1838L73.4832 49.5162C73.4832 49.5162 68.9916 51.2709 68.8419 51.344C68.8419 51.4171 69.6653 53.3911 69.6653 53.3911L68.8419 53.6835L68.0184 51.6364V54.4146C68.3927 55.8038 68.6173 57.3391 68.6173 58.8013C68.6173 61.9451 67.7189 64.9426 66.2217 67.5015C65.3234 69.2562 64.1256 70.4991 62.9278 71.5226C61.5803 72.7655 60.0831 73.7891 58.4362 74.5202C57.3881 75.1051 56.7893 76.2749 56.4898 78.1026C56.5647 78.1392 56.6395 78.1575 56.7144 78.1758C56.7893 78.194 56.8641 78.2123 56.939 78.2489ZM68.3924 48.6384L68.0933 49.0771V48.1998L68.3924 48.6384ZM70.035 46.2988C69.8107 46.372 68.3152 46.7375 68.1657 46.7375C68.2404 46.8837 68.8386 47.7611 68.9134 47.8342C68.9882 47.7611 69.8855 46.5182 70.035 46.2988Z" fill="black"/>
<path fill-rule="evenodd" clip-rule="evenodd" d="M68.0174 12.9422C69.3226 12.9422 71.0883 13.6145 72.1632 15.1832C73.0077 16.4531 73.6986 18.7688 72.0864 22.6531V22.5784L69.3993 21.4579L69.2458 21.9061C70.0903 22.2796 70.9348 23.2507 69.9367 25.4917C67.6335 24.5206 67.5568 23.2507 67.9406 22.429L67.48 22.2796L66.3284 24.8194L65.1768 27.3592L65.6374 27.5086C66.0213 26.6869 67.0194 25.8652 69.3226 26.8363C68.3245 29.0773 66.5587 29.9737 65.1768 29.9737C62.8736 29.9737 61.1078 28.5544 61.3381 27.1351C61.4917 26.0893 62.4897 25.7158 62.8736 25.7905C63.3342 25.8652 63.6413 26.3134 63.5646 26.6869C63.5646 26.7616 63.5646 26.8363 63.4878 26.911L63.5646 26.9857C64.1787 26.9857 64.7162 26.5375 64.8697 25.8652C65.0232 25.1182 64.4858 24.3712 63.7181 24.2218C63.1807 24.1471 62.7201 24.2965 62.413 24.5953L62.2594 24.3712C62.6433 24.1471 63.0271 23.7736 63.1039 23.2507C63.3342 22.0555 61.8755 20.8603 61.8755 20.8603C61.8755 20.8603 60.1098 21.4579 59.8794 22.6531C59.8027 23.176 59.9562 23.6242 60.2633 23.9977L60.033 24.1471C59.8027 23.6989 59.4188 23.4001 58.9582 23.3254C58.1904 23.176 57.4227 23.6989 57.2691 24.4459C57.1156 25.0435 57.4995 25.6411 58.0369 25.9399L58.1137 25.8652V25.6411C58.1904 25.2676 58.6511 24.9688 59.1117 25.0435C59.4956 25.0435 60.2633 25.7905 60.033 26.8363C59.7259 28.6291 58.1137 29.899 56.2711 29.899C54.3518 29.899 52.4324 28.405 52.4324 26.164C55.0427 26.164 55.7337 27.4339 55.7337 28.405H56.1175V25.417V22.429H55.5801C55.5801 23.4748 54.9659 24.67 52.2789 24.67C52.2789 22.1302 53.584 21.4579 54.5821 21.4579V20.935H51.9718H51.1273H48.517V21.4579C49.5918 21.4579 50.8202 22.0555 50.8202 24.67C48.2099 24.67 47.5189 23.4001 47.5189 22.429H46.9815V25.417V28.405H47.5189C47.5189 27.3592 48.1331 26.164 50.8202 26.164C50.8202 28.405 48.8241 29.899 46.9815 29.899C45.139 29.899 43.6035 28.6291 43.2196 26.8363C42.9893 25.7905 43.7571 25.1182 44.1409 25.0435C44.6016 24.9688 45.0622 25.2676 45.139 25.6411V25.8652L45.2157 25.9399C45.7532 25.7158 46.137 25.0435 45.9835 24.4459C45.8299 23.6989 45.0622 23.176 44.2945 23.3254C43.7571 23.4001 43.3732 23.7736 43.2196 24.1471L42.9893 23.9977C43.2964 23.6242 43.45 23.176 43.3732 22.6531C43.1429 21.4579 41.3771 20.8603 41.3771 20.8603C41.3003 20.8603 39.9184 22.0555 40.1487 23.2507C40.2255 23.7736 40.5326 24.1471 40.9932 24.3712L40.8397 24.5953C40.4558 24.2965 39.9952 24.1471 39.5345 24.2218C38.7668 24.3712 38.2294 25.1182 38.3829 25.8652C38.5365 26.4628 39.0739 26.911 39.6881 26.9857L39.7648 26.911C39.7648 26.8737 39.7456 26.8363 39.7265 26.799C39.7073 26.7616 39.6881 26.7243 39.6881 26.6869C39.6113 26.3881 39.9184 25.8652 40.379 25.7905C40.7629 25.7158 41.7609 26.0893 41.9145 27.1351C42.1448 28.5544 40.4558 29.9737 38.0758 29.9737C36.6939 29.9737 34.9281 29.0773 33.9301 26.8363C36.2333 25.8652 37.2313 26.6869 37.6152 27.5086L38.0758 27.3592L36.9242 24.8194L35.7726 22.2796L35.312 22.429C35.6959 23.2507 35.6191 24.5206 33.3159 25.4917C32.3178 23.2507 33.1623 22.2796 34.0068 21.9061L33.8533 21.4579L31.1662 22.5784V22.6531C29.3237 18.8435 30.0146 16.4531 30.8591 15.1832C31.934 13.6145 33.6998 12.9422 35.0049 12.9422C36.8475 12.9422 38.7668 13.6892 40.6093 14.4362L40.8457 14.53C42.8454 15.3243 44.9135 16.1458 46.9815 15.9302C46.7512 15.1832 46.4441 14.4362 46.0602 13.8386L47.3654 13.241C47.0583 12.7928 46.9048 12.2699 46.828 11.6723C46.9815 11.5976 48.5938 11 51.4344 11C54.275 11 56.0408 11.5976 56.1943 11.6723C56.1175 12.2699 55.8872 12.7928 55.6569 13.241L56.9621 13.8386C56.5782 14.4362 56.2711 15.1832 56.0408 15.9302C58.1904 16.0796 60.3401 15.2579 62.413 14.4362C64.2555 13.6892 66.1748 12.9422 68.0174 12.9422ZM44.5255 20.1883C45.1396 19.1425 46.2145 18.4702 47.5196 18.4702C47.5964 18.4702 47.6732 18.4702 47.7499 18.3955C47.7115 18.1715 47.6732 17.966 47.6348 17.7606L47.6348 17.7606C47.5964 17.5552 47.558 17.3497 47.5196 17.1257C44.9883 17.4878 42.6736 16.5856 40.4355 15.7132L40.2262 15.6317L39.9958 15.5439C38.3134 14.9021 36.7011 14.2871 35.1591 14.2871C34.5449 14.2871 33.0862 14.6606 32.2417 15.9305C31.3972 17.2004 31.3972 18.9931 32.2417 21.1594C32.7024 19.8148 34.0075 18.8437 35.543 18.8437C36.7714 18.8437 37.8462 19.4413 38.4604 20.4124C38.8442 19.516 39.7655 18.769 40.8403 18.5449C42.299 18.2461 43.8345 18.9931 44.5255 20.1883ZM51.5892 11.5204C52.2802 11.5204 52.8944 12.0433 52.9712 12.7156C52.5873 12.4168 52.1267 12.1927 51.5892 12.1927C51.0518 12.1927 50.5912 12.4168 50.2073 12.7156C50.2841 12.0433 50.8983 11.5204 51.5892 11.5204ZM52.9712 13.9882C52.8944 13.3159 52.2802 12.793 51.5893 12.793C50.8983 12.793 50.2841 13.3159 50.2073 13.9882C50.5912 13.6894 51.0519 13.4653 51.5893 13.4653C52.1267 13.4653 52.5873 13.6894 52.9712 13.9882ZM51.5893 20.3376C50.8215 20.3376 50.2073 19.74 50.2073 18.993C50.2073 18.246 50.8215 17.6484 51.5893 17.6484C52.357 17.6484 52.9712 18.246 52.9712 18.993C52.9712 19.74 52.357 20.3376 51.5893 20.3376ZM51.5893 16.9764C52.0499 16.9764 52.5105 17.1258 52.8944 17.4246C52.9712 17.2752 52.9712 17.1258 52.9712 16.9764C52.9712 16.2294 52.357 15.6318 51.5893 15.6318C50.8215 15.6318 50.2073 16.2294 50.2073 16.9764C50.2073 17.1258 50.2073 17.2752 50.2841 17.4246C50.668 17.1258 51.0519 16.9764 51.5893 16.9764ZM52.9712 15.557C52.5873 15.2582 52.1267 15.0341 51.5893 15.0341C51.0519 15.0341 50.5912 15.2582 50.2073 15.557V15.4823C50.2073 14.7353 50.8215 14.1377 51.5893 14.1377C52.357 14.1377 52.9712 14.7353 52.9712 15.4823V15.557ZM67.6345 18.8434C69.1699 18.8434 70.4751 19.8145 70.9357 21.1591C71.7802 18.9928 71.7802 17.2 70.9357 16.0048C70.0912 14.7349 68.6325 14.3614 68.0184 14.3614C66.4763 14.3614 64.8641 14.9764 63.1816 15.6182C63.105 15.6474 63.0282 15.6767 62.9513 15.706C62.8816 15.7332 62.8118 15.7604 62.7419 15.7876C60.5038 16.66 58.1891 17.5622 55.6579 17.2C55.5811 17.6482 55.5043 18.0964 55.4275 18.4699H55.6579C56.963 18.4699 58.0378 19.2169 58.652 20.188C59.343 18.9181 60.8017 18.2458 62.3371 18.5446C63.412 18.7687 64.2565 19.5157 64.7171 20.4121C65.3313 19.441 66.4061 18.8434 67.6345 18.8434Z" fill="black"/>
<path d="M58.8075 53.394H59.0767L59.4803 54.3427H58.4038L58.8075 53.394Z" fill="black"/>
<path d="M114.849 70.3056H106.684L106.738 66.0892H114.849C117.641 66.0892 119.969 65.5074 121.831 64.3436C123.693 63.162 125.089 61.5149 126.02 59.4022C126.969 57.2717 127.444 54.7831 127.444 51.9364V49.5463C127.444 47.3083 127.175 45.321 126.638 43.5844C126.101 41.8298 125.313 40.3528 124.275 39.1532C123.236 37.9358 121.965 37.0137 120.461 36.3871C118.975 35.7605 117.266 35.4472 115.332 35.4472H106.523V31.204H115.332C117.892 31.204 120.229 31.6337 122.341 32.4931C124.454 33.3345 126.271 34.5609 127.793 36.1723C129.333 37.7657 130.514 39.6993 131.338 41.973C132.161 44.2289 132.573 46.7712 132.573 49.6V51.9364C132.573 54.7652 132.161 57.3165 131.338 59.5902C130.514 61.8461 129.324 63.7707 127.766 65.3642C126.226 66.9576 124.364 68.184 122.18 69.0434C120.014 69.8848 117.57 70.3056 114.849 70.3056ZM109.451 31.204V70.3056H104.267V31.204H109.451ZM144.807 41.2479V70.3056H139.812V41.2479H144.807ZM139.436 33.5404C139.436 32.7348 139.678 32.0544 140.161 31.4994C140.663 30.9444 141.397 30.6669 142.363 30.6669C143.312 30.6669 144.037 30.9444 144.539 31.4994C145.058 32.0544 145.317 32.7348 145.317 33.5404C145.317 34.3103 145.058 34.9727 144.539 35.5277C144.037 36.0648 143.312 36.3334 142.363 36.3334C141.397 36.3334 140.663 36.0648 140.161 35.5277C139.678 34.9727 139.436 34.3103 139.436 33.5404ZM169.502 62.598C169.502 61.8819 169.341 61.2195 169.019 60.6107C168.714 59.9841 168.079 59.4201 167.112 58.9188C166.163 58.3996 164.731 57.952 162.815 57.5761C161.204 57.2359 159.745 56.8331 158.438 56.3676C157.149 55.9021 156.048 55.3381 155.135 54.6757C154.239 54.0132 153.55 53.2344 153.067 52.3392C152.583 51.4441 152.342 50.3967 152.342 49.1972C152.342 48.0513 152.592 46.9682 153.094 45.9476C153.613 44.9271 154.338 44.023 155.269 43.2352C156.218 42.4475 157.355 41.8298 158.679 41.3822C160.004 40.9346 161.481 40.7108 163.111 40.7108C165.438 40.7108 167.425 41.1226 169.073 41.9462C170.72 42.7697 171.982 43.8708 172.859 45.2494C173.736 46.6101 174.175 48.1229 174.175 49.788H169.207C169.207 48.9823 168.965 48.2035 168.482 47.4516C168.016 46.6817 167.327 46.0461 166.414 45.5448C165.519 45.0435 164.418 44.7929 163.111 44.7929C161.732 44.7929 160.613 45.0077 159.754 45.4374C158.912 45.8492 158.295 46.3773 157.901 47.0219C157.525 47.6664 157.337 48.3467 157.337 49.0629C157.337 49.6 157.426 50.0834 157.605 50.5131C157.802 50.9249 158.142 51.3098 158.626 51.6679C159.109 52.008 159.789 52.3303 160.667 52.6347C161.544 52.939 162.663 53.2434 164.024 53.5477C166.405 54.0849 168.365 54.7294 169.905 55.4813C171.445 56.2333 172.591 57.1553 173.343 58.2475C174.095 59.3396 174.47 60.6644 174.47 62.2221C174.47 63.4932 174.202 64.657 173.665 65.7133C173.146 66.7696 172.385 67.6827 171.382 68.4525C170.397 69.2045 169.216 69.7953 167.837 70.225C166.477 70.6368 164.946 70.8427 163.245 70.8427C160.685 70.8427 158.518 70.3861 156.746 69.473C154.973 68.56 153.631 67.3783 152.718 65.9281C151.804 64.4779 151.348 62.9472 151.348 61.3358H156.343C156.415 62.6965 156.809 63.7797 157.525 64.5853C158.241 65.3731 159.118 65.9371 160.157 66.2772C161.195 66.5995 162.224 66.7606 163.245 66.7606C164.606 66.7606 165.742 66.5816 166.656 66.2235C167.587 65.8655 168.294 65.3731 168.777 64.7465C169.261 64.1198 169.502 63.4037 169.502 62.598ZM192.425 66.7606C193.606 66.7606 194.699 66.5189 195.701 66.0355C196.704 65.5521 197.527 64.8897 198.172 64.0482C198.816 63.1889 199.183 62.2131 199.273 61.121H203.999C203.91 62.8397 203.328 64.4421 202.254 65.9281C201.198 67.3962 199.81 68.5868 198.091 69.4999C196.373 70.3951 194.484 70.8427 192.425 70.8427C190.241 70.8427 188.334 70.4577 186.705 69.6879C185.093 68.918 183.75 67.8617 182.676 66.5189C181.62 65.1762 180.823 63.6364 180.286 61.8998C179.767 60.1452 179.507 58.2922 179.507 56.3407V55.2128C179.507 53.2613 179.767 51.4172 180.286 49.6806C180.823 47.926 181.62 46.3773 182.676 45.0346C183.75 43.6918 185.093 42.6355 186.705 41.8656C188.334 41.0958 190.241 40.7108 192.425 40.7108C194.699 40.7108 196.686 41.1763 198.387 42.1073C200.088 43.0204 201.421 44.2737 202.388 45.8671C203.373 47.4426 203.91 49.233 203.999 51.2382H199.273C199.183 50.0386 198.843 48.9555 198.252 47.9887C197.68 47.0219 196.892 46.252 195.889 45.6791C194.904 45.0883 193.75 44.7929 192.425 44.7929C190.903 44.7929 189.623 45.0972 188.584 45.7059C187.564 46.2968 186.749 47.1024 186.141 48.1229C185.55 49.1255 185.12 50.2445 184.852 51.4799C184.601 52.6973 184.476 53.9416 184.476 55.2128V56.3407C184.476 57.6119 184.601 58.8651 184.852 60.1005C185.102 61.3358 185.523 62.4548 186.114 63.4574C186.722 64.46 187.537 65.2657 188.558 65.8744C189.596 66.4652 190.885 66.7606 192.425 66.7606ZM214.783 29.0556V70.3056H209.788V29.0556H214.783ZM221.244 56.099V55.4813C221.244 53.3866 221.548 51.4441 222.157 49.6537C222.765 47.8454 223.643 46.2789 224.788 44.954C225.934 43.6112 227.322 42.5728 228.951 41.8388C230.58 41.0868 232.406 40.7108 234.43 40.7108C236.471 40.7108 238.306 41.0868 239.935 41.8388C241.582 42.5728 242.979 43.6112 244.124 44.954C245.288 46.2789 246.174 47.8454 246.783 49.6537C247.392 51.4441 247.696 53.3866 247.696 55.4813V56.099C247.696 58.1937 247.392 60.1363 246.783 61.9267C246.174 63.717 245.288 65.2836 244.124 66.6264C242.979 67.9512 241.591 68.9896 239.962 69.7416C238.35 70.4756 236.524 70.8427 234.483 70.8427C232.442 70.8427 230.607 70.4756 228.978 69.7416C227.349 68.9896 225.952 67.9512 224.788 66.6264C223.643 65.2836 222.765 63.717 222.157 61.9267C221.548 60.1363 221.244 58.1937 221.244 56.099ZM226.212 55.4813V56.099C226.212 57.5492 226.382 58.9188 226.722 60.2079C227.062 61.4791 227.572 62.607 228.253 63.5917C228.951 64.5764 229.819 65.3552 230.858 65.9281C231.896 66.4831 233.105 66.7606 234.483 66.7606C235.844 66.7606 237.035 66.4831 238.055 65.9281C239.093 65.3552 239.953 64.5764 240.633 63.5917C241.314 62.607 241.824 61.4791 242.164 60.2079C242.522 58.9188 242.701 57.5492 242.701 56.099V55.4813C242.701 54.049 242.522 52.6973 242.164 51.4262C241.824 50.1371 241.305 49.0002 240.606 48.0155C239.926 47.0129 239.067 46.2252 238.028 45.6522C237.008 45.0793 235.808 44.7929 234.43 44.7929C233.069 44.7929 231.869 45.0793 230.831 45.6522C229.81 46.2252 228.951 47.0129 228.253 48.0155C227.572 49.0002 227.062 50.1371 226.722 51.4262C226.382 52.6973 226.212 54.049 226.212 55.4813ZM270.646 62.598C270.646 61.8819 270.484 61.2195 270.162 60.6107C269.858 59.9841 269.222 59.4201 268.255 58.9188C267.307 58.3996 265.874 57.952 263.959 57.5761C262.347 57.2359 260.888 56.8331 259.581 56.3676C258.292 55.9021 257.191 55.3381 256.278 54.6757C255.383 54.0132 254.693 53.2344 254.21 52.3392C253.727 51.4441 253.485 50.3967 253.485 49.1972C253.485 48.0513 253.736 46.9682 254.237 45.9476C254.756 44.9271 255.481 44.023 256.412 43.2352C257.361 42.4475 258.498 41.8298 259.823 41.3822C261.148 40.9346 262.625 40.7108 264.254 40.7108C266.581 40.7108 268.569 41.1226 270.216 41.9462C271.863 42.7697 273.125 43.8708 274.003 45.2494C274.88 46.6101 275.318 48.1229 275.318 49.788H270.35C270.35 48.9823 270.108 48.2035 269.625 47.4516C269.16 46.6817 268.47 46.0461 267.557 45.5448C266.662 45.0435 265.561 44.7929 264.254 44.7929C262.875 44.7929 261.756 45.0077 260.897 45.4374C260.056 45.8492 259.438 46.3773 259.044 47.0219C258.668 47.6664 258.48 48.3467 258.48 49.0629C258.48 49.6 258.57 50.0834 258.749 50.5131C258.946 50.9249 259.286 51.3098 259.769 51.6679C260.253 52.008 260.933 52.3303 261.81 52.6347C262.687 52.939 263.806 53.2434 265.167 53.5477C267.548 54.0849 269.509 54.7294 271.048 55.4813C272.588 56.2333 273.734 57.1553 274.486 58.2475C275.238 59.3396 275.614 60.6644 275.614 62.2221C275.614 63.4932 275.345 64.657 274.808 65.7133C274.289 66.7696 273.528 67.6827 272.525 68.4525C271.541 69.2045 270.359 69.7953 268.981 70.225C267.62 70.6368 266.089 70.8427 264.388 70.8427C261.828 70.8427 259.662 70.3861 257.889 69.473C256.117 68.56 254.774 67.3783 253.861 65.9281C252.948 64.4779 252.491 62.9472 252.491 61.3358H257.486C257.558 62.6965 257.952 63.7797 258.668 64.5853C259.384 65.3731 260.261 65.9371 261.3 66.2772C262.338 66.5995 263.368 66.7606 264.388 66.7606C265.749 66.7606 266.886 66.5816 267.799 66.2235C268.73 65.8655 269.437 65.3731 269.92 64.7465C270.404 64.1198 270.646 63.4037 270.646 62.598ZM299.718 63.5917V41.2479H304.713V70.3056H299.96L299.718 63.5917ZM300.658 57.4686L302.726 57.4149C302.726 59.3485 302.52 61.1389 302.108 62.786C301.714 64.4153 301.07 65.8296 300.175 67.0292C299.279 68.2287 298.107 69.1687 296.657 69.849C295.206 70.5114 293.443 70.8427 291.366 70.8427C289.952 70.8427 288.654 70.6368 287.472 70.225C286.308 69.8132 285.306 69.1776 284.464 68.3183C283.623 67.4589 282.969 66.3399 282.504 64.9613C282.056 63.5827 281.832 61.9267 281.832 59.9931V41.2479H286.801V60.0468C286.801 61.3537 286.944 62.4369 287.23 63.2963C287.535 64.1378 287.937 64.8091 288.439 65.3104C288.958 65.7938 289.531 66.134 290.158 66.3309C290.802 66.5279 291.464 66.6264 292.145 66.6264C294.257 66.6264 295.931 66.2235 297.167 65.4179C298.402 64.5943 299.288 63.4932 299.825 62.1146C300.38 60.7182 300.658 59.1695 300.658 57.4686ZM317.055 45.8134V70.3056H312.086V41.2479H316.92L317.055 45.8134ZM326.132 41.0868L326.105 45.7059C325.693 45.6164 325.299 45.5627 324.923 45.5448C324.565 45.509 324.153 45.4911 323.688 45.4911C322.542 45.4911 321.531 45.6701 320.653 46.0282C319.776 46.3863 319.033 46.8876 318.424 47.5321C317.816 48.1767 317.332 48.9465 316.974 49.8417C316.634 50.719 316.41 51.6858 316.303 52.7421L314.906 53.5477C314.906 51.7932 315.076 50.1461 315.416 48.6063C315.775 47.0666 316.321 45.7059 317.055 44.5243C317.789 43.3248 318.72 42.3938 319.848 41.7313C320.993 41.051 322.354 40.7108 323.93 40.7108C324.288 40.7108 324.7 40.7556 325.165 40.8451C325.631 40.9167 325.953 40.9973 326.132 41.0868ZM342.045 70.8427C340.022 70.8427 338.187 70.5025 336.54 69.8222C334.91 69.1239 333.505 68.1482 332.323 66.8949C331.16 65.6417 330.264 64.1557 329.638 62.4369C329.011 60.7182 328.698 58.8383 328.698 56.7973V55.6693C328.698 53.306 329.047 51.2024 329.745 49.3583C330.444 47.4963 331.392 45.9208 332.592 44.6317C333.792 43.3427 335.152 42.3669 336.674 41.7045C338.196 41.042 339.771 40.7108 341.401 40.7108C343.477 40.7108 345.268 41.0689 346.772 41.785C348.293 42.5012 349.538 43.5038 350.505 44.7929C351.471 46.064 352.188 47.5679 352.653 49.3046C353.118 51.0233 353.351 52.9032 353.351 54.9442V57.1732H331.652V53.1181H348.383V52.7421C348.311 51.453 348.043 50.1998 347.577 48.9823C347.13 47.7649 346.414 46.7623 345.429 45.9745C344.444 45.1867 343.101 44.7929 341.401 44.7929C340.273 44.7929 339.234 45.0346 338.285 45.518C337.336 45.9835 336.522 46.6817 335.841 47.6127C335.161 48.5437 334.633 49.6806 334.257 51.0233C333.881 52.3661 333.693 53.9148 333.693 55.6693V56.7973C333.693 58.1758 333.881 59.4739 334.257 60.6913C334.651 61.8908 335.215 62.9472 335.949 63.8602C336.701 64.7733 337.605 65.4895 338.661 66.0087C339.736 66.5279 340.953 66.7875 342.314 66.7875C344.068 66.7875 345.554 66.4294 346.772 65.7133C347.989 64.9971 349.054 64.0393 349.967 62.8397L352.975 65.2299C352.349 66.1788 351.552 67.0829 350.585 67.9423C349.618 68.8017 348.428 69.4999 347.013 70.037C345.617 70.5741 343.961 70.8427 342.045 70.8427ZM389.528 65.3373V50.3788C389.528 49.233 389.296 48.2393 388.83 47.3978C388.383 46.5385 387.702 45.876 386.789 45.4105C385.876 44.945 384.748 44.7123 383.405 44.7123C382.152 44.7123 381.051 44.9271 380.102 45.3568C379.171 45.7865 378.437 46.3505 377.9 47.0487C377.381 47.747 377.121 48.4989 377.121 49.3046H372.153C372.153 48.2662 372.421 47.2367 372.959 46.2162C373.496 45.1957 374.266 44.2737 375.268 43.4501C376.289 42.6086 377.506 41.9462 378.92 41.4628C380.353 40.9615 381.946 40.7108 383.701 40.7108C385.813 40.7108 387.675 41.0689 389.287 41.785C390.916 42.5012 392.187 43.5844 393.1 45.0346C394.031 46.4669 394.497 48.2662 394.497 50.4325V63.9677C394.497 64.9345 394.577 65.9639 394.738 67.056C394.917 68.1482 395.177 69.0881 395.517 69.8759V70.3056H390.334C390.083 69.7326 389.886 68.9717 389.743 68.0228C389.6 67.056 389.528 66.1609 389.528 65.3373ZM390.388 52.6884L390.441 56.1796H385.419C384.005 56.1796 382.743 56.296 381.633 56.5287C380.523 56.7435 379.592 57.0748 378.84 57.5224C378.088 57.9699 377.515 58.5339 377.121 59.2142C376.727 59.8767 376.53 60.6555 376.53 61.5507C376.53 62.4638 376.736 63.2963 377.148 64.0482C377.56 64.8002 378.177 65.4 379.001 65.8475C379.843 66.2772 380.872 66.4921 382.089 66.4921C383.611 66.4921 384.954 66.1698 386.118 65.5253C387.281 64.8808 388.204 64.093 388.884 63.162C389.582 62.231 389.958 61.3269 390.012 60.4496L392.133 62.8397C392.008 63.5917 391.668 64.4242 391.113 65.3373C390.558 66.2504 389.815 67.1277 388.884 67.9691C387.971 68.7927 386.879 69.482 385.607 70.037C384.354 70.5741 382.94 70.8427 381.364 70.8427C379.395 70.8427 377.667 70.4577 376.181 69.6879C374.713 68.918 373.567 67.8886 372.744 66.5995C371.938 65.2925 371.535 63.8334 371.535 62.2221C371.535 60.6644 371.84 59.2948 372.448 58.1132C373.057 56.9136 373.934 55.92 375.08 55.1322C376.226 54.3266 377.605 53.7178 379.216 53.306C380.827 52.8943 382.627 52.6884 384.614 52.6884H390.388ZM407.08 47.4516V70.3056H402.112V41.2479H406.811L407.08 47.4516ZM405.898 54.6757L403.83 54.5951C403.848 52.6078 404.144 50.7727 404.717 49.0897C405.289 47.3889 406.095 45.9118 407.134 44.6586C408.172 43.4053 409.407 42.4385 410.84 41.7582C412.29 41.06 413.892 40.7108 415.647 40.7108C417.079 40.7108 418.368 40.9078 419.514 41.3017C420.66 41.6776 421.636 42.2864 422.441 43.1278C423.265 43.9693 423.891 45.0614 424.321 46.4042C424.751 47.7291 424.966 49.3493 424.966 51.265V70.3056H419.97V51.2113C419.97 49.6895 419.747 48.4721 419.299 47.559C418.852 46.628 418.198 45.9566 417.339 45.5448C416.479 45.1151 415.423 44.9003 414.17 44.9003C412.934 44.9003 411.806 45.1599 410.786 45.6791C409.783 46.1983 408.915 46.9144 408.181 47.8275C407.465 48.7406 406.901 49.788 406.489 50.9696C406.095 52.1334 405.898 53.3687 405.898 54.6757ZM450.627 64.6659V29.0556H455.623V70.3056H451.057L450.627 64.6659ZM431.077 56.099V55.535C431.077 53.315 431.345 51.3008 431.882 49.4926C432.437 47.6664 433.216 46.0998 434.219 44.7929C435.239 43.4859 436.448 42.4833 437.844 41.785C439.259 41.0689 440.834 40.7108 442.571 40.7108C444.397 40.7108 445.99 41.0331 447.351 41.6776C448.73 42.3043 449.893 43.2263 450.842 44.4437C451.809 45.6433 452.57 47.0935 453.125 48.7943C453.68 50.4952 454.065 52.4198 454.28 54.5683V57.039C454.083 59.1695 453.698 61.0852 453.125 62.786C452.57 64.4869 451.809 65.9371 450.842 67.1366C449.893 68.3362 448.73 69.2582 447.351 69.9027C445.972 70.5294 444.361 70.8427 442.517 70.8427C440.816 70.8427 439.259 70.4756 437.844 69.7416C436.448 69.0075 435.239 67.9781 434.219 66.6532C433.216 65.3283 432.437 63.7707 431.882 61.9804C431.345 60.1721 431.077 58.2116 431.077 56.099ZM436.072 55.535V56.099C436.072 57.5492 436.215 58.9099 436.501 60.181C436.806 61.4522 437.271 62.5712 437.898 63.538C438.525 64.5048 439.321 65.2657 440.288 65.8207C441.255 66.3578 442.41 66.6264 443.752 66.6264C445.4 66.6264 446.751 66.2772 447.808 65.579C448.882 64.8808 449.741 63.9587 450.386 62.8129C451.03 61.667 451.532 60.4227 451.89 59.08V52.6078C451.675 51.6231 451.361 50.6742 450.95 49.7611C450.556 48.8301 450.037 48.0066 449.392 47.2904C448.765 46.5564 447.987 45.9745 447.056 45.5448C446.143 45.1151 445.059 44.9003 443.806 44.9003C442.445 44.9003 441.273 45.1867 440.288 45.7597C439.321 46.3147 438.525 47.0845 437.898 48.0692C437.271 49.036 436.806 50.164 436.501 51.453C436.215 52.7242 436.072 54.0849 436.072 55.535ZM491.289 52.017H481.38L481.326 47.8544H490.323C491.809 47.8544 493.107 47.6037 494.217 47.1024C495.327 46.6011 496.186 45.885 496.795 44.954C497.421 44.0051 497.735 42.8772 497.735 41.5702C497.735 40.1379 497.457 38.9742 496.902 38.079C496.365 37.1659 495.533 36.5035 494.405 36.0917C493.295 35.662 491.88 35.4472 490.161 35.4472H482.535V70.3056H477.351V31.204H490.161C492.167 31.204 493.957 31.4099 495.533 31.8217C497.108 32.2156 498.442 32.8422 499.534 33.7016C500.644 34.543 501.486 35.6172 502.058 36.9242C502.631 38.2312 502.918 39.7977 502.918 41.6239C502.918 43.2352 502.506 44.6944 501.682 46.0014C500.859 47.2904 499.713 48.3467 498.245 49.1703C496.795 49.9939 495.094 50.522 493.142 50.7548L491.289 52.017ZM491.048 70.3056H479.339L482.266 66.0892H491.048C492.695 66.0892 494.091 65.8028 495.237 65.2299C496.401 64.657 497.287 63.8513 497.896 62.8129C498.505 61.7566 498.809 60.5123 498.809 59.08C498.809 57.6298 498.549 56.3765 498.03 55.3202C497.511 54.2639 496.696 53.4493 495.586 52.8764C494.476 52.3034 493.044 52.017 491.289 52.017H483.904L483.958 47.8544H494.056L495.157 49.3583C497.036 49.5194 498.63 50.0565 499.937 50.9696C501.244 51.8648 502.238 53.0106 502.918 54.4071C503.616 55.8036 503.965 57.3433 503.965 59.0263C503.965 61.4612 503.428 63.5201 502.354 65.203C501.298 66.8681 499.803 68.1392 497.869 69.0165C495.935 69.8759 493.662 70.3056 491.048 70.3056ZM527.801 65.3373V50.3788C527.801 49.233 527.568 48.2393 527.103 47.3978C526.655 46.5385 525.975 45.876 525.062 45.4105C524.148 44.945 523.021 44.7123 521.678 44.7123C520.425 44.7123 519.323 44.9271 518.375 45.3568C517.444 45.7865 516.71 46.3505 516.172 47.0487C515.653 47.747 515.394 48.4989 515.394 49.3046H510.425C510.425 48.2662 510.694 47.2367 511.231 46.2162C511.768 45.1957 512.538 44.2737 513.541 43.4501C514.561 42.6086 515.779 41.9462 517.193 41.4628C518.625 40.9615 520.219 40.7108 521.973 40.7108C524.086 40.7108 525.948 41.0689 527.559 41.785C529.188 42.5012 530.46 43.5844 531.373 45.0346C532.304 46.4669 532.769 48.2662 532.769 50.4325V63.9677C532.769 64.9345 532.85 65.9639 533.011 67.056C533.19 68.1482 533.449 69.0881 533.79 69.8759V70.3056H528.607C528.356 69.7326 528.159 68.9717 528.016 68.0228C527.872 67.056 527.801 66.1609 527.801 65.3373ZM528.66 52.6884L528.714 56.1796H523.692C522.278 56.1796 521.015 56.296 519.905 56.5287C518.795 56.7435 517.864 57.0748 517.112 57.5224C516.36 57.9699 515.787 58.5339 515.394 59.2142C515 59.8767 514.803 60.6555 514.803 61.5507C514.803 62.4638 515.009 63.2963 515.42 64.0482C515.832 64.8002 516.45 65.4 517.273 65.8475C518.115 66.2772 519.144 66.4921 520.362 66.4921C521.884 66.4921 523.226 66.1698 524.39 65.5253C525.554 64.8808 526.476 64.093 527.156 63.162C527.855 62.231 528.231 61.3269 528.284 60.4496L530.406 62.8397C530.28 63.5917 529.94 64.4242 529.385 65.3373C528.83 66.2504 528.087 67.1277 527.156 67.9691C526.243 68.7927 525.151 69.482 523.88 70.037C522.627 70.5741 521.212 70.8427 519.637 70.8427C517.667 70.8427 515.94 70.4577 514.454 69.6879C512.986 68.918 511.84 67.8886 511.016 66.5995C510.211 65.2925 509.808 63.8334 509.808 62.2221C509.808 60.6644 510.112 59.2948 510.721 58.1132C511.329 56.9136 512.207 55.92 513.353 55.1322C514.498 54.3266 515.877 53.7178 517.488 53.306C519.1 52.8943 520.899 52.6884 522.886 52.6884H528.66ZM545.352 45.8134V70.3056H540.384V41.2479H545.218L545.352 45.8134ZM554.429 41.0868L554.403 45.7059C553.991 45.6164 553.597 45.5627 553.221 45.5448C552.863 45.509 552.451 45.4911 551.986 45.4911C550.84 45.4911 549.828 45.6701 548.951 46.0282C548.074 46.3863 547.331 46.8876 546.722 47.5321C546.113 48.1767 545.63 48.9465 545.272 49.8417C544.932 50.719 544.708 51.6858 544.6 52.7421L543.204 53.5477C543.204 51.7932 543.374 50.1461 543.714 48.6063C544.072 47.0666 544.618 45.7059 545.352 44.5243C546.086 43.3248 547.017 42.3938 548.145 41.7313C549.291 41.051 550.652 40.7108 552.227 40.7108C552.585 40.7108 552.997 40.7556 553.463 40.8451C553.928 40.9167 554.25 40.9973 554.429 41.0868ZM563.79 45.8134V70.3056H558.822V41.2479H563.656L563.79 45.8134ZM572.867 41.0868L572.84 45.7059C572.429 45.6164 572.035 45.5627 571.659 45.5448C571.301 45.509 570.889 45.4911 570.423 45.4911C569.277 45.4911 568.266 45.6701 567.389 46.0282C566.511 46.3863 565.768 46.8876 565.16 47.5321C564.551 48.1767 564.068 48.9465 563.709 49.8417C563.369 50.719 563.145 51.6858 563.038 52.7421L561.642 53.5477C561.642 51.7932 561.812 50.1461 562.152 48.6063C562.51 47.0666 563.056 45.7059 563.79 44.5243C564.524 43.3248 565.455 42.3938 566.583 41.7313C567.729 41.051 569.089 40.7108 570.665 40.7108C571.023 40.7108 571.435 40.7556 571.9 40.8451C572.366 40.9167 572.688 40.9973 572.867 41.0868ZM582.657 41.2479V70.3056H577.662V41.2479H582.657ZM577.286 33.5404C577.286 32.7348 577.528 32.0544 578.011 31.4994C578.513 30.9444 579.247 30.6669 580.214 30.6669C581.162 30.6669 581.888 30.9444 582.389 31.4994C582.908 32.0544 583.168 32.7348 583.168 33.5404C583.168 34.3103 582.908 34.9727 582.389 35.5277C581.888 36.0648 581.162 36.3334 580.214 36.3334C579.247 36.3334 578.513 36.0648 578.011 35.5277C577.528 34.9727 577.286 34.3103 577.286 33.5404ZM595.402 47.4516V70.3056H590.433V41.2479H595.133L595.402 47.4516ZM594.22 54.6757L592.152 54.5951C592.17 52.6078 592.466 50.7727 593.038 49.0897C593.611 47.3889 594.417 45.9118 595.455 44.6586C596.494 43.4053 597.729 42.4385 599.161 41.7582C600.612 41.06 602.214 40.7108 603.969 40.7108C605.401 40.7108 606.69 40.9078 607.836 41.3017C608.982 41.6776 609.957 42.2864 610.763 43.1278C611.587 43.9693 612.213 45.0614 612.643 46.4042C613.073 47.7291 613.287 49.3493 613.287 51.265V70.3056H608.292V51.2113C608.292 49.6895 608.069 48.4721 607.621 47.559C607.173 46.628 606.52 45.9566 605.661 45.5448C604.801 45.1151 603.745 44.9003 602.492 44.9003C601.256 44.9003 600.128 45.1599 599.108 45.6791C598.105 46.1983 597.237 46.9144 596.503 47.8275C595.787 48.7406 595.223 49.788 594.811 50.9696C594.417 52.1334 594.22 53.3687 594.22 54.6757ZM639.46 41.2479H643.971V69.6879C643.971 72.2481 643.452 74.4323 642.414 76.2406C641.375 78.0489 639.925 79.4185 638.063 80.3495C636.219 81.2984 634.088 81.7728 631.671 81.7728C630.669 81.7728 629.487 81.6117 628.127 81.2894C626.784 80.9851 625.459 80.4569 624.152 79.705C622.863 78.9709 621.78 77.9773 620.902 76.724L623.507 73.7699C624.725 75.238 625.996 76.2585 627.321 76.8314C628.664 77.4044 629.989 77.6908 631.295 77.6908C632.871 77.6908 634.232 77.3954 635.378 76.8046C636.523 76.2138 637.41 75.3365 638.036 74.1727C638.681 73.0269 639.003 71.6125 639.003 69.9296V47.6395L639.46 41.2479ZM619.452 56.099V55.535C619.452 53.315 619.712 51.3008 620.231 49.4926C620.768 47.6664 621.529 46.0998 622.514 44.7929C623.516 43.4859 624.725 42.4833 626.139 41.785C627.554 41.0689 629.147 40.7108 630.919 40.7108C632.746 40.7108 634.339 41.0331 635.7 41.6776C637.078 42.3043 638.242 43.2263 639.191 44.4437C640.158 45.6433 640.919 47.0935 641.474 48.7943C642.029 50.4952 642.414 52.4198 642.628 54.5683V57.039C642.432 59.1695 642.047 61.0852 641.474 62.786C640.919 64.4869 640.158 65.9371 639.191 67.1366C638.242 68.3362 637.078 69.2582 635.7 69.9027C634.321 70.5294 632.71 70.8427 630.866 70.8427C629.129 70.8427 627.554 70.4756 626.139 69.7416C624.743 69.0075 623.543 67.9781 622.541 66.6532C621.538 65.3283 620.768 63.7707 620.231 61.9804C619.712 60.1721 619.452 58.2116 619.452 56.099ZM624.42 55.535V56.099C624.42 57.5492 624.564 58.9099 624.85 60.181C625.155 61.4522 625.611 62.5712 626.22 63.538C626.846 64.5048 627.643 65.2657 628.61 65.8207C629.577 66.3578 630.732 66.6264 632.074 66.6264C633.721 66.6264 635.082 66.2772 636.156 65.579C637.231 64.8808 638.081 63.9587 638.708 62.8129C639.352 61.667 639.853 60.4227 640.211 59.08V52.6078C640.015 51.6231 639.71 50.6742 639.298 49.7611C638.905 48.8301 638.385 48.0066 637.741 47.2904C637.114 46.5564 636.335 45.9745 635.404 45.5448C634.473 45.1151 633.381 44.9003 632.128 44.9003C630.767 44.9003 629.595 45.1867 628.61 45.7597C627.643 46.3147 626.846 47.0845 626.22 48.0692C625.611 49.036 625.155 50.164 624.85 51.453C624.564 52.7242 624.42 54.0849 624.42 55.535ZM686.352 60.4227C686.352 59.5097 686.209 58.704 685.922 58.0058C685.654 57.2896 685.17 56.6451 684.472 56.0722C683.792 55.4992 682.843 54.9532 681.625 54.434C680.426 53.9148 678.904 53.3866 677.06 52.8495C675.126 52.2766 673.381 51.641 671.823 50.9428C670.266 50.2266 668.932 49.412 667.822 48.4989C666.712 47.5858 665.861 46.5385 665.271 45.3568C664.68 44.1752 664.384 42.8235 664.384 41.3017C664.384 39.7798 664.698 38.3744 665.324 37.0853C665.951 35.7963 666.846 34.6773 668.01 33.7284C669.191 32.7616 670.597 32.0097 672.226 31.4725C673.855 30.9354 675.673 30.6669 677.678 30.6669C680.614 30.6669 683.103 31.2309 685.144 32.3588C687.202 33.4688 688.769 34.928 689.843 36.7362C690.917 38.5266 691.455 40.4423 691.455 42.4833H686.298C686.298 41.0152 685.985 39.7172 685.358 38.5892C684.732 37.4434 683.783 36.5482 682.512 35.9037C681.241 35.2413 679.629 34.91 677.678 34.91C675.834 34.91 674.312 35.1876 673.112 35.7426C671.913 36.2976 671.018 37.0495 670.427 37.9984C669.854 38.9473 669.567 40.0305 669.567 41.2479C669.567 42.0715 669.737 42.8235 670.078 43.5038C670.436 44.1662 670.982 44.7839 671.716 45.3568C672.468 45.9297 673.417 46.4579 674.562 46.9413C675.726 47.4247 677.114 47.8902 678.725 48.3378C680.945 48.9644 682.861 49.6627 684.472 50.4325C686.083 51.2024 687.408 52.0707 688.447 53.0375C689.503 53.9864 690.282 55.0696 690.783 56.287C691.302 57.4865 691.562 58.8472 691.562 60.369C691.562 61.9625 691.24 63.4037 690.595 64.6928C689.951 65.9818 689.029 67.0829 687.829 67.996C686.63 68.9091 685.188 69.6163 683.505 70.1176C681.84 70.601 679.978 70.8427 677.919 70.8427C676.111 70.8427 674.33 70.592 672.575 70.0907C670.839 69.5894 669.254 68.8375 667.822 67.8349C666.407 66.8322 665.271 65.5969 664.411 64.1288C663.57 62.6428 663.149 60.924 663.149 58.9725H668.305C668.305 60.3153 668.565 61.4701 669.084 62.4369C669.603 63.3858 670.31 64.1736 671.206 64.8002C672.119 65.4268 673.148 65.8923 674.294 66.1967C675.458 66.4831 676.666 66.6264 677.919 66.6264C679.728 66.6264 681.258 66.3757 682.512 65.8744C683.765 65.3731 684.714 64.657 685.358 63.726C686.021 62.795 686.352 61.6939 686.352 60.4227ZM709.275 70.8427C707.251 70.8427 705.416 70.5025 703.769 69.8222C702.14 69.1239 700.735 68.1482 699.553 66.8949C698.389 65.6417 697.494 64.1557 696.867 62.4369C696.241 60.7182 695.927 58.8383 695.927 56.7973V55.6693C695.927 53.306 696.277 51.2024 696.975 49.3583C697.673 47.4963 698.622 45.9208 699.821 44.6317C701.021 43.3427 702.382 42.3669 703.904 41.7045C705.425 41.042 707.001 40.7108 708.63 40.7108C710.707 40.7108 712.497 41.0689 714.001 41.785C715.523 42.5012 716.767 43.5038 717.734 44.7929C718.701 46.064 719.417 47.5679 719.883 49.3046C720.348 51.0233 720.581 52.9032 720.581 54.9442V57.1732H698.882V53.1181H715.612V52.7421C715.541 51.453 715.272 50.1998 714.807 48.9823C714.359 47.7649 713.643 46.7623 712.658 45.9745C711.674 45.1867 710.331 44.7929 708.63 44.7929C707.502 44.7929 706.464 45.0346 705.515 45.518C704.566 45.9835 703.751 46.6817 703.071 47.6127C702.391 48.5437 701.862 49.6806 701.487 51.0233C701.111 52.3661 700.923 53.9148 700.923 55.6693V56.7973C700.923 58.1758 701.111 59.4739 701.487 60.6913C701.88 61.8908 702.444 62.9472 703.178 63.8602C703.93 64.7733 704.834 65.4895 705.891 66.0087C706.965 66.5279 708.182 66.7875 709.543 66.7875C711.298 66.7875 712.784 66.4294 714.001 65.7133C715.219 64.9971 716.284 64.0393 717.197 62.8397L720.205 65.2299C719.578 66.1788 718.781 67.0829 717.815 67.9423C716.848 68.8017 715.657 69.4999 714.243 70.037C712.846 70.5741 711.19 70.8427 709.275 70.8427ZM731.15 45.8134V70.3056H726.182V41.2479H731.016L731.15 45.8134ZM740.227 41.0868L740.2 45.7059C739.788 45.6164 739.394 45.5627 739.018 45.5448C738.66 45.509 738.249 45.4911 737.783 45.4911C736.637 45.4911 735.626 45.6701 734.748 46.0282C733.871 46.3863 733.128 46.8876 732.519 47.5321C731.911 48.1767 731.427 48.9465 731.069 49.8417C730.729 50.719 730.505 51.6858 730.398 52.7421L729.001 53.5477C729.001 51.7932 729.171 50.1461 729.512 48.6063C729.87 47.0666 730.416 45.7059 731.15 44.5243C731.884 43.3248 732.815 42.3938 733.943 41.7313C735.089 41.051 736.449 40.7108 738.025 40.7108C738.383 40.7108 738.795 40.7556 739.26 40.8451C739.726 40.9167 740.048 40.9973 740.227 41.0868ZM753.938 65.8207L761.887 41.2479H766.963L756.516 70.3056H753.186L753.938 65.8207ZM747.305 41.2479L755.496 65.955L756.06 70.3056H752.73L742.202 41.2479H747.305ZM776.941 41.2479V70.3056H771.946V41.2479H776.941ZM771.57 33.5404C771.57 32.7348 771.812 32.0544 772.295 31.4994C772.796 30.9444 773.531 30.6669 774.497 30.6669C775.446 30.6669 776.171 30.9444 776.673 31.4994C777.192 32.0544 777.451 32.7348 777.451 33.5404C777.451 34.3103 777.192 34.9727 776.673 35.5277C776.171 36.0648 775.446 36.3334 774.497 36.3334C773.531 36.3334 772.796 36.0648 772.295 35.5277C771.812 34.9727 771.57 34.3103 771.57 33.5404ZM796.346 66.7606C797.527 66.7606 798.619 66.5189 799.622 66.0355C800.625 65.5521 801.448 64.8897 802.093 64.0482C802.737 63.1889 803.104 62.2131 803.194 61.121H807.92C807.831 62.8397 807.249 64.4421 806.175 65.9281C805.118 67.3962 803.731 68.5868 802.012 69.4999C800.293 70.3951 798.405 70.8427 796.346 70.8427C794.161 70.8427 792.255 70.4577 790.625 69.6879C789.014 68.918 787.671 67.8617 786.597 66.5189C785.541 65.1762 784.744 63.6364 784.207 61.8998C783.688 60.1452 783.428 58.2922 783.428 56.3407V55.2128C783.428 53.2613 783.688 51.4172 784.207 49.6806C784.744 47.926 785.541 46.3773 786.597 45.0346C787.671 43.6918 789.014 42.6355 790.625 41.8656C792.255 41.0958 794.161 40.7108 796.346 40.7108C798.619 40.7108 800.607 41.1763 802.308 42.1073C804.008 43.0204 805.342 44.2737 806.309 45.8671C807.294 47.4426 807.831 49.233 807.92 51.2382H803.194C803.104 50.0386 802.764 48.9555 802.173 47.9887C801.6 47.0219 800.813 46.252 799.81 45.6791C798.825 45.0883 797.671 44.7929 796.346 44.7929C794.824 44.7929 793.544 45.0972 792.505 45.7059C791.485 46.2968 790.67 47.1024 790.062 48.1229C789.471 49.1255 789.041 50.2445 788.772 51.4799C788.522 52.6973 788.396 53.9416 788.396 55.2128V56.3407C788.396 57.6119 788.522 58.8651 788.772 60.1005C789.023 61.3358 789.444 62.4548 790.035 63.4574C790.643 64.46 791.458 65.2657 792.479 65.8744C793.517 66.4652 794.806 66.7606 796.346 66.7606ZM825.364 70.8427C823.341 70.8427 821.506 70.5025 819.859 69.8222C818.23 69.1239 816.824 68.1482 815.643 66.8949C814.479 65.6417 813.584 64.1557 812.957 62.4369C812.331 60.7182 812.017 58.8383 812.017 56.7973V55.6693C812.017 53.306 812.366 51.2024 813.065 49.3583C813.763 47.4963 814.712 45.9208 815.911 44.6317C817.111 43.3427 818.472 42.3669 819.993 41.7045C821.515 41.042 823.091 40.7108 824.72 40.7108C826.797 40.7108 828.587 41.0689 830.091 41.785C831.613 42.5012 832.857 43.5038 833.824 44.7929C834.791 46.064 835.507 47.5679 835.972 49.3046C836.438 51.0233 836.671 52.9032 836.671 54.9442V57.1732H814.971V53.1181H831.702V52.7421C831.631 51.453 831.362 50.1998 830.897 48.9823C830.449 47.7649 829.733 46.7623 828.748 45.9745C827.764 45.1867 826.421 44.7929 824.72 44.7929C823.592 44.7929 822.554 45.0346 821.605 45.518C820.656 45.9835 819.841 46.6817 819.161 47.6127C818.48 48.5437 817.952 49.6806 817.576 51.0233C817.2 52.3661 817.012 53.9148 817.012 55.6693V56.7973C817.012 58.1758 817.2 59.4739 817.576 60.6913C817.97 61.8908 818.534 62.9472 819.268 63.8602C820.02 64.7733 820.924 65.4895 821.981 66.0087C823.055 66.5279 824.272 66.7875 825.633 66.7875C827.388 66.7875 828.874 66.4294 830.091 65.7133C831.308 64.9971 832.374 64.0393 833.287 62.8397L836.295 65.2299C835.668 66.1788 834.871 67.0829 833.904 67.9423C832.938 68.8017 831.747 69.4999 830.333 70.037C828.936 70.5741 827.28 70.8427 825.364 70.8427Z" fill="black"/>
<path fill-rule="evenodd" clip-rule="evenodd" d="M48.6787 40.1684C48.696 40.0908 48.696 40.0201 48.696 39.9182C48.696 39.3344 48.3159 38.9174 47.7837 38.9174H44.3626C44.3626 38.5004 43.9825 38.0834 43.6024 38.0834C43.3743 38.0834 43.2223 38.1668 43.0702 38.3336L42.0819 39.4178H42.9942H44.1346H47.7837C48.0118 39.4178 48.1638 39.5846 48.1638 39.8348C48.1638 40.085 48.0118 40.2518 47.7837 40.2518H45.427H41.1696V39.251L42.31 38H37.8246L38.9649 39.251V41.0858L37.1404 39.5012C37.2924 39.3344 37.3684 39.0842 37.3684 38.9174C37.3684 38.417 36.9883 38.0834 36.6082 38.0834C36.3801 38.0834 36.2281 38.1668 36.076 38.2502V39.5012V39.7514L38.8129 42.17L37.5205 42.587C37.4445 42.2534 37.1404 42.0032 36.7602 42.0032C36.3041 42.0032 36 42.4202 36 42.8372C36 43.004 36.076 43.2543 36.152 43.4211H37.3684H37.7486L44.7428 41.0024V42.2534L43.8305 42.587C43.7544 42.2534 43.4503 42.0032 43.0702 42.0032C42.6141 42.0032 42.31 42.4202 42.31 42.8372C42.31 43.004 42.386 43.2543 42.462 43.4211H43.7544H44.1346L45.8831 42.8372L46.7194 42.5036L46.0352 41.8364L45.579 41.336H48.696V42.2534C48.544 42.0866 48.3159 41.9198 48.0878 41.9198C47.6317 41.9198 47.3276 42.3368 47.3276 42.7538C47.3276 42.9206 47.4036 43.1709 47.4796 43.3377H48.696H49.4562V41.2526V40.1684H48.6787ZM39.2724 39.5848L40.0317 40.4188L40.7911 39.5848H39.2724Z" fill="black"/>
<path d="M27 19.351C27 18.5404 27.628 18 28.3456 18C29.0633 18 29.6912 18.6305 29.6912 19.351C29.6912 20.0715 29.0633 20.7019 28.3456 20.7019C27.628 20.792 27 20.1616 27 19.351Z" fill="black"/>
<path d="M76.191 19.4999C76.191 18.7794 75.563 18.1489 74.8454 18.1489C74.038 18.1489 73.4998 18.7794 73.4998 19.4999C73.4998 20.3105 74.1277 20.8509 74.8454 20.8509C75.563 20.9409 76.191 20.3105 76.191 19.4999Z" fill="black"/>
<path d="M75.9637 16.351C75.9637 15.6305 75.3357 15 74.6181 15C73.8107 15 73.2725 15.6305 73.2725 16.351C73.2725 17.1616 73.9004 17.7019 74.6181 17.7019C75.3357 17.792 75.9637 17.1616 75.9637 16.351Z" fill="black"/>
<path d="M74.6912 13.351C74.6912 12.6305 74.0633 12 73.3456 12C72.5382 12 72 12.6305 72 13.351C72 14.1616 72.628 14.7019 73.3456 14.7019C74.0633 14.792 74.6912 14.1616 74.6912 13.351Z" fill="black"/>
<path d="M57.3088 14.0001C57.3088 13.2795 57.9368 12.6491 58.6544 12.6491C59.3721 12.6491 60.0001 13.2795 60.0001 14.0001C60.0001 14.8106 59.3721 15.351 58.6544 15.351C57.9368 15.4411 57.3088 14.8106 57.3088 14.0001Z" fill="black"/>
<path d="M60.3087 12.9999C60.3087 12.2794 60.9366 11.649 61.6543 11.649C62.372 11.649 62.9999 12.2794 62.9999 12.9999C62.9999 13.8105 62.372 14.3509 61.6543 14.3509C60.9366 14.441 60.3087 13.8105 60.3087 12.9999Z" fill="black"/>
<path d="M63.3088 11.7207C63.3088 11.0002 63.9367 10.3697 64.6544 10.3697C65.372 10.3697 66 11.0002 66 11.7207C66 12.5313 65.372 13.0717 64.6544 13.0717C63.9367 13.1617 63.3088 12.5313 63.3088 11.7207Z" fill="black"/>
<path d="M66.3088 11.351C66.3088 10.6305 66.9368 10 67.6544 10C68.3721 10 69.0001 10.6305 69.0001 11.351C69.0001 12.1616 68.3721 12.702 67.6544 12.702C66.9368 12.7921 66.3088 12.1616 66.3088 11.351Z" fill="black"/>
<path d="M65.3605 46.4036V46.1345L66.3092 45.7308V46.8073L65.3605 46.4036Z" fill="black"/>
<path d="M52.6912 46.0249V46.294L51.7425 46.6977V45.6212L52.6912 46.0249Z" fill="black"/>
<path d="M59.1766 38.7308H58.9075L58.5038 37.7821H59.5803L59.1766 38.7308Z" fill="black"/>
<path d="M58.9034 39H59.1726L59.5763 39.9487H58.4998L58.9034 39Z" fill="black"/>
<path d="M53.0514 46.289V46.0199L54.0001 45.6162V46.6927L53.0514 46.289Z" fill="black"/>
<path d="M64.6026 46.1782V46.4474L63.6539 46.8511V45.7746L64.6026 46.1782Z" fill="black"/>
<path d="M59.0727 52.9486H58.8036L58.3999 51.9999H59.4764L59.0727 52.9486Z" fill="black"/>
</svg>
